<?xml version="1.0" standalone="no"?>
<!DOCTYPE svg PUBLIC "-//W3C//DTD SVG 1.1//EN" "http://www.w3.org/Graphics/SVG/1.1/DTD/svg11.dtd" >
<svg xmlns="http://www.w3.org/2000/svg">
<metadata>
 By Mathieu Reguer
Sandrine Nugue
</metadata>
<defs>
<font id="Infini-Regular" horiz-adv-x="660" >
  <font-face 
    font-family="Infini"
    font-weight="400"
    font-stretch="normal"
    units-per-em="1000"
    panose-1="2 0 0 0 0 0 0 0 0 0"
    ascent="800"
    descent="-200"
    x-height="500"
    cap-height="750"
    bbox="-49 -276 2509 1120"
    underline-thickness="70"
    underline-position="-110"
    stemh="75"
    stemv="123"
    unicode-range="U+0020-FB04"
  />
<missing-glyph horiz-adv-x="500" 
d="M0 0v750h500v-750h-500zM250 449l124 232h-248zM73 118l138 257l-138 257v-514zM427 118v514l-137 -257zM126 69h248l-124 232z" />
    <glyph glyph-name="f_f" unicode="ff" horiz-adv-x="624" 
d="M193 500h201l-2 63c-1 24 1 52 7 79c-28 13 -66 23 -105 23c-79 0 -98 -45 -101 -113v-52zM192 433l12 -433h-109l13 433h-83v77l80 -10l-2 72c-3 70 24 178 181 178c24 0 63 -5 75 -11l43 -87c17 62 60 118 156 118c19 0 45 -1 61 -6l20 -96h-2c-20 8 -45 17 -71 17
c-68 0 -81 -56 -84 -142v-44l140 11v-77h-141l12 -433h-109l13 433h-205z" />
    <glyph glyph-name="fi" unicode="fi" horiz-adv-x="572" 
d="M192 433l12 -433h-109l13 433h-83v77l80 -10l-2 63c-3 81 28 207 206 207c41 0 102 -6 132 -17l20 -108h-2c-47 24 -109 40 -150 40c-94 0 -113 -56 -116 -142v-46l289 13l14 -510h-112l13 433h-205z" />
    <glyph glyph-name="f_f_i" unicode="ffi" horiz-adv-x="861" 
d="M394 500l-2 63c-1 23 -1 50 6 77c-27 16 -67 25 -104 25c-79 0 -98 -45 -101 -113v-52h201zM482 497l289 13l14 -510h-112l13 433h-205l12 -433h-109l13 433h-205l12 -433h-109l13 433h-83v77l80 -10l-1 72c-3 70 24 178 180 178c24 0 63 -5 75 -11l44 -89
c19 63 75 120 195 120c41 0 102 -6 132 -17l20 -108h-2c-47 24 -109 40 -150 40c-94 0 -113 -56 -116 -142v-46z" />
    <glyph glyph-name="f_j" unicode="fj" horiz-adv-x="563" 
d="M342 -250l-50 77v2c72 0 90 29 92 110l8 430l-9 64h-191l12 -433h-109l13 433h-83v77l80 -10l-2 63c-3 81 27 207 205 207c41 0 102 -6 132 -17l20 -108h-2c-47 24 -109 40 -150 40c-93 0 -112 -56 -115 -142v-46l287 13l3 -556c3 -104 -15 -184 -141 -204z" />
    <glyph glyph-name="f_f_j" unicode="ffj" horiz-adv-x="853" 
d="M394 500l-2 63c-1 23 -1 50 6 77c-27 16 -67 25 -105 25c-78 0 -97 -45 -100 -113v-52h201zM632 -250l-50 77v2c72 0 90 29 92 110l8 430l-9 64h-192l12 -433h-109l13 433h-205l12 -433h-109l13 433h-83v77l80 -10l-1 72c-3 70 24 178 179 178c25 0 64 -5 76 -11l44 -89
c19 63 75 120 195 120c41 0 102 -6 132 -17l20 -108h-2c-47 24 -109 40 -150 40c-94 0 -113 -56 -116 -142v-46l288 13l3 -556c3 -104 -15 -184 -141 -204z" />
    <glyph glyph-name="fl" unicode="fl" horiz-adv-x="569" 
d="M193 500h202l-5 142c-27 14 -63 23 -102 23c-72 0 -95 -45 -95 -113v-52zM204 0h-109l13 433h-83v77l80 -10l-2 72c-3 70 23 178 174 178c24 0 56 -2 74 -8l38 -89l-4 117h109l-12 -346l12 -424h-109l13 424v9h-206z" />
    <glyph glyph-name="f_f_l" unicode="ffl" horiz-adv-x="859" 
d="M395 500l-2 72c-1 21 1 45 6 68c-25 15 -66 25 -105 25c-79 0 -98 -45 -101 -113v-52h202zM483 500h202l-5 142c-27 14 -63 23 -102 23c-72 0 -95 -45 -95 -113v-52zM204 0h-109l13 433h-83v77l80 -10l-1 72c-3 70 24 178 180 178c24 0 64 -5 76 -11l43 -87
c17 50 64 98 159 98c26 0 60 -2 79 -8l38 -86l-4 114h109l-12 -346l12 -424h-109l13 433h-206l12 -433h-109l13 433h-206z" />
    <glyph glyph-name=".notdef" horiz-adv-x="500" 
d="M0 0v750h500v-750h-500zM250 449l124 232h-248zM73 118l138 257l-138 257v-514zM427 118v514l-137 -257zM126 69h248l-124 232z" />
    <glyph glyph-name=".null" horiz-adv-x="0" 
 />
    <glyph glyph-name="CR" horiz-adv-x="0" 
 />
    <glyph glyph-name="space" unicode=" " horiz-adv-x="200" 
 />
    <glyph glyph-name="thinspace" unicode="&#x2009;" horiz-adv-x="80" 
 />
    <glyph glyph-name="A" unicode="A" horiz-adv-x="707" 
d="M472 285l-120 326l-117 -326h237zM578 0l-81 218h-286l-78 -218h-128v2l341 773h35l321 -773v-2h-124z" />
    <glyph glyph-name="B" unicode="B" horiz-adv-x="605" 
d="M95 750h193c159 0 241 -72 241 -171c0 -84 -51 -151 -138 -174v-1c114 -26 159 -99 159 -178c0 -112 -85 -226 -296 -226h-159l15 394zM201 394l12 -310h67c103 0 164 50 164 150c0 78 -65 127 -151 132v71c83 11 136 46 136 119c0 60 -45 105 -158 105h-59z" />
    <glyph glyph-name="C" unicode="C" horiz-adv-x="747" 
d="M670 44c-35 -21 -124 -54 -216 -54c-219 0 -389 143 -389 388c0 239 154 382 395 382c92 0 176 -22 217 -35l20 -142h-2c-68 48 -141 78 -256 78c-111 0 -269 -67 -269 -270c0 -188 101 -316 286 -316c79 0 159 32 232 84h2z" />
    <glyph glyph-name="D" unicode="D" horiz-adv-x="775" 
d="M201 394l12 -310h116c161 0 275 110 275 310c-1 167 -111 266 -257 266h-135zM95 0l15 394l-15 356h251c204 0 364 -122 364 -361c0 -221 -150 -389 -381 -389h-234z" />
    <glyph glyph-name="E" unicode="E" horiz-adv-x="569" 
d="M95 0l15 394l-15 356h389l20 -104h-2l-289 42l-11 -262l265 9l-10 -93l-255 29l12 -312l298 56h2l-21 -115h-398z" />
    <glyph glyph-name="F" unicode="F" horiz-adv-x="566" 
d="M464 324l-261 29l13 -353h-121l15 394l-15 356h400l21 -100h-2l-301 40l-11 -283l272 10z" />
    <glyph glyph-name="G" unicode="G" horiz-adv-x="776" 
d="M468 760c88 0 170 -18 220 -35l20 -142h-2c-65 46 -133 78 -258 78c-115 0 -279 -67 -279 -270c0 -189 117 -316 308 -316c42 0 101 13 137 31l-17 259v2h129l-18 -301c-41 -32 -127 -76 -244 -76c-229 0 -399 138 -399 388c0 239 149 382 403 382z" />
    <glyph glyph-name="H" unicode="H" horiz-adv-x="806" 
d="M590 0l13 353h-400l13 -353h-121l15 394l-15 356h121l-14 -322h402l-14 322h121l-15 -356l15 -394h-121z" />
    <glyph glyph-name="I" unicode="I" horiz-adv-x="311" 
d="M95 0l15 394l-15 356h121l-15 -356l15 -394h-121z" />
    <glyph glyph-name="J" unicode="J" horiz-adv-x="468" 
d="M32 119c59 -23 96 -37 147 -37c73 0 103 57 97 197l-19 471h121l-9 -537c-2 -139 -54 -223 -189 -223c-39 0 -81 5 -120 17l-30 112h2z" />
    <glyph glyph-name="K" unicode="K" horiz-adv-x="689" 
d="M679 0h-147l-280 395v40l195 315h143v-2l-254 -319l343 -427v-2zM95 0l15 394l-15 356h121l-15 -356l15 -394h-121z" />
    <glyph glyph-name="L" unicode="L" horiz-adv-x="567" 
d="M95 0l15 394l-15 356h121l-17 -687l321 63h2l-20 -126h-407z" />
    <glyph glyph-name="M" unicode="M" horiz-adv-x="938" 
d="M466 0l-217 524l-80 -524h-124l159 750h50l218 -536l223 536h47l161 -750h-124l-83 533l-228 -533h-2z" />
    <glyph glyph-name="N" unicode="N" horiz-adv-x="791" 
d="M641 0l-465 557l25 -557h-116l26 750h31l468 -563l-20 563h116l-34 -750h-31z" />
    <glyph glyph-name="O" unicode="O" horiz-adv-x="855" 
d="M428 -10c-220 0 -363 171 -363 389c0 234 157 381 363 381c205 0 362 -147 362 -381c0 -213 -143 -389 -362 -389zM428 76c144 0 257 117 257 306c0 169 -104 279 -257 279s-257 -112 -257 -278c0 -190 112 -307 257 -307z" />
    <glyph glyph-name="P" unicode="P" horiz-adv-x="593" 
d="M201 394l15 -394h-121l15 394l-15 356h201c162 0 252 -86 252 -205c0 -138 -78 -238 -265 -244v62c93 6 162 52 162 155c0 88 -47 143 -176 143h-57z" />
    <glyph glyph-name="Q" unicode="Q" horiz-adv-x="869" 
d="M829 -135h-2l-451 125c-190 26 -311 189 -311 389c0 234 157 381 363 381c205 0 362 -147 362 -381c0 -180 -102 -334 -267 -377h286zM428 76c144 0 257 117 257 306c0 169 -104 279 -257 279s-257 -112 -257 -278c0 -190 112 -307 257 -307z" />
    <glyph glyph-name="R" unicode="R" horiz-adv-x="631" 
d="M201 394l15 -394h-121l15 394l-15 356h202c143 0 225 -77 225 -185c0 -95 -48 -169 -157 -199l241 -364v-2h-144l-179 353v56c85 10 136 54 136 132c0 65 -46 119 -144 119h-63z" />
    <glyph glyph-name="S" unicode="S" horiz-adv-x="553" 
d="M195 372c-101 67 -126 135 -126 194c0 110 77 194 229 194c64 0 132 -11 163 -20l20 -138h-2c-66 43 -126 71 -201 71c-58 0 -103 -31 -103 -90c0 -50 22 -78 91 -125l65 -44c92 -62 157 -124 157 -218s-60 -206 -230 -206c-57 0 -128 17 -178 34l-20 136h2
c84 -57 138 -89 212 -89c71 0 108 46 108 103c0 54 -27 93 -88 133z" />
    <glyph glyph-name="T" unicode="T" horiz-adv-x="663" 
d="M651 629l-278 49l18 -678h-120l18 678l-277 -49h-2l21 121h601l21 -121h-2z" />
    <glyph glyph-name="U" unicode="U" horiz-adv-x="780" 
d="M391 76c118 0 196 80 196 242l-18 432h121l-12 -432c0 -203 -102 -328 -287 -328c-184 0 -289 125 -289 328l-12 432h121l-18 -432c0 -162 82 -242 198 -242z" />
    <glyph glyph-name="V" unicode="V" horiz-adv-x="697" 
d="M355 -25h-35l-310 773v2h124l216 -608l209 608h128v-2z" />
    <glyph glyph-name="W" unicode="W" horiz-adv-x="1010" 
d="M655 -25l-157 494l-163 -494h-37l-283 773v2h126l182 -583l163 583h28l170 -595l185 595h126v-2l-303 -773h-37z" />
    <glyph glyph-name="X" unicode="X" horiz-adv-x="671" 
d="M515 0l-193 326l-172 -326h-140v2l267 400l-216 346v2h136l141 -262l141 262h130v-2l-227 -334l279 -412v-2h-146z" />
    <glyph glyph-name="Y" unicode="Y" horiz-adv-x="643" 
d="M387 0h-127l15 338l-265 410v2h136l186 -348l177 348h124v-2l-262 -408z" />
    <glyph glyph-name="Z" unicode="Z" horiz-adv-x="657" 
d="M586 0h-536v10l406 672l-382 -48h-2l20 116h515v-10l-407 -673l404 49h2z" />
    <glyph glyph-name="Agrave" unicode="&#xc0;" horiz-adv-x="707" 
d="M211 932v2h127l68 -134h-84zM472 285l-120 326l-117 -326h237zM578 0l-81 218h-286l-78 -218h-128v2l341 773h35l321 -773v-2h-124z" />
    <glyph glyph-name="Aacute" unicode="&#xc1;" horiz-adv-x="707" 
d="M395 934h127v-2l-111 -132h-84zM472 285l-120 326l-117 -326h237zM578 0l-81 218h-286l-78 -218h-128v2l341 773h35l321 -773v-2h-124z" />
    <glyph glyph-name="Acircumflex" unicode="&#xc2;" horiz-adv-x="707" 
d="M277 800h-93l148 144h64l148 -144h-93l-87 61zM472 285l-120 326l-117 -326h237zM578 0l-81 218h-286l-78 -218h-128v2l341 773h35l321 -773v-2h-124z" />
    <glyph glyph-name="Atilde" unicode="&#xc3;" horiz-adv-x="707" 
d="M242 800h-49c1 54 15 150 106 150c77 0 92 -69 148 -69c23 0 40 19 42 69h48c1 -51 -11 -150 -98 -150c-81 0 -106 69 -152 69c-27 0 -40 -20 -45 -69zM472 285l-120 326l-117 -326h237zM578 0l-81 218h-286l-78 -218h-128v2l341 773h35l321 -773v-2h-124z" />
    <glyph glyph-name="Adieresis" unicode="&#xc4;" horiz-adv-x="707" 
d="M245 929c35 0 63 -21 63 -57c0 -38 -28 -61 -63 -61c-33 0 -62 23 -62 61c0 36 29 57 62 57zM481 929c35 0 63 -21 63 -57c0 -38 -28 -61 -63 -61c-33 0 -62 23 -62 61c0 36 29 57 62 57zM472 285l-120 326l-117 -326h237zM578 0l-81 218h-286l-78 -218h-128v2l341 773
h35l321 -773v-2h-124z" />
    <glyph glyph-name="Amacron" unicode="&#x100;" horiz-adv-x="707" 
d="M215 828v82h297v-82h-297zM472 285l-120 326l-117 -326h237zM578 0l-81 218h-286l-78 -218h-128v2l341 773h35l321 -773v-2h-124z" />
    <glyph glyph-name="Abreve" unicode="&#x102;" horiz-adv-x="707" 
d="M363 800c-101 0 -148 76 -148 150h49c0 -30 28 -59 99 -59c72 0 99 29 99 59h49c0 -74 -47 -150 -148 -150zM472 285l-120 326l-117 -326h237zM578 0l-81 218h-286l-78 -218h-128v2l341 773h35l321 -773v-2h-124z" />
    <glyph glyph-name="Aring" unicode="&#xc5;" horiz-adv-x="707" 
d="M361 793c-78 0 -121 50 -121 104c0 64 54 103 121 103s122 -39 122 -103c0 -54 -45 -104 -122 -104zM361 841c37 0 60 23 60 51c0 34 -26 54 -60 54c-33 0 -60 -20 -60 -54c0 -28 24 -51 60 -51zM472 285l-120 326l-117 -326h237zM578 0l-81 218h-286l-78 -218h-128v2
l341 773h35l321 -773v-2h-124z" />
    <glyph glyph-name="Aringacute" unicode="&#x1fa;" horiz-adv-x="707" 
d="M391 1119h130v-2l-105 -103h-90zM363 793c-78 0 -121 49 -121 102c0 63 54 101 121 101s122 -38 122 -101c0 -53 -45 -102 -122 -102zM363 841c37 0 60 22 60 49c0 32 -26 52 -60 52c-33 0 -60 -20 -60 -52c0 -27 24 -49 60 -49zM472 285l-120 326l-117 -326h237zM578 0
l-81 218h-286l-78 -218h-128v2l341 773h35l321 -773v-2h-124z" />
    <glyph glyph-name="Aogonek" unicode="&#x104;" horiz-adv-x="707" 
d="M472 285l-120 326l-117 -326h237zM743 -227c-18 -17 -54 -31 -89 -31c-80 0 -142 52 -142 131c0 57 29 98 67 127h-1l-81 218h-286l-78 -218h-128v2l341 773h35l321 -773v-2h-37c-46 -46 -65 -71 -65 -115c0 -46 37 -72 81 -72c21 0 44 7 70 26h2z" />
    <glyph glyph-name="AE" unicode="&#xc6;" horiz-adv-x="950" 
d="M490 394l-9 229l-185 -338h190zM476 0l8 218h-227l-116 -218h-136v2l471 748h389l20 -104h-2l-287 42l-12 -262l264 9l-10 -93l-254 28l13 -311l296 56h2l-21 -115h-398z" />
    <glyph glyph-name="AEacute" unicode="&#x1fc;" horiz-adv-x="950" 
d="M571 954h127v-2l-111 -132h-84zM490 394l-9 229l-185 -338h190zM476 0l8 218h-227l-116 -218h-136v2l471 748h389l20 -104h-2l-287 42l-12 -262l264 9l-10 -93l-254 28l13 -311l296 56h2l-21 -115h-398z" />
    <glyph glyph-name="Cacute" unicode="&#x106;" horiz-adv-x="747" 
d="M456 954h127v-2l-111 -132h-84zM670 44c-35 -21 -124 -54 -216 -54c-219 0 -389 143 -389 388c0 239 154 382 395 382c92 0 176 -22 217 -35l20 -142h-2c-68 48 -141 78 -256 78c-111 0 -269 -67 -269 -270c0 -188 101 -316 286 -316c79 0 159 32 232 84h2z" />
    <glyph glyph-name="Ccircumflex" unicode="&#x108;" horiz-adv-x="747" 
d="M338 820h-93l148 144h64l148 -144h-93l-87 61zM670 44c-35 -21 -124 -54 -216 -54c-219 0 -389 143 -389 388c0 239 154 382 395 382c92 0 176 -22 217 -35l20 -142h-2c-68 48 -141 78 -256 78c-111 0 -269 -67 -269 -270c0 -188 101 -316 286 -316c79 0 159 32 232 84h2
z" />
    <glyph glyph-name="Ccaron" unicode="&#x10c;" horiz-adv-x="747" 
d="M393 820l-148 144h96l84 -59l84 59h96l-148 -144h-64zM670 44c-35 -21 -124 -54 -216 -54c-219 0 -389 143 -389 388c0 239 154 382 395 382c92 0 176 -22 217 -35l20 -142h-2c-68 48 -141 78 -256 78c-111 0 -269 -67 -269 -270c0 -188 101 -316 286 -316
c79 0 159 32 232 84h2z" />
    <glyph glyph-name="Cdotaccent" unicode="&#x10a;" horiz-adv-x="747" 
d="M424 949c38 0 69 -23 69 -63c0 -42 -31 -67 -69 -67c-36 0 -68 25 -68 67c0 40 32 63 68 63zM670 44c-35 -21 -124 -54 -216 -54c-219 0 -389 143 -389 388c0 239 154 382 395 382c92 0 176 -22 217 -35l20 -142h-2c-68 48 -141 78 -256 78c-111 0 -269 -67 -269 -270
c0 -188 101 -316 286 -316c79 0 159 32 232 84h2z" />
    <glyph glyph-name="Ccedilla" unicode="&#xc7;" horiz-adv-x="747" 
d="M421 -268c-48 0 -92 21 -113 42l-10 66h2c29 -18 63 -37 101 -37c43 0 66 23 66 56c0 32 -24 47 -79 78v57c-186 26 -323 164 -323 384c0 239 154 382 395 382c92 0 176 -22 217 -35l20 -142h-2c-68 48 -141 78 -256 78c-111 0 -269 -67 -269 -270
c0 -188 101 -316 286 -316c79 0 159 32 232 84h2l-20 -115c-33 -20 -116 -51 -203 -54v-24c63 -27 89 -67 89 -113c0 -67 -55 -121 -135 -121z" />
    <glyph glyph-name="Dcaron" unicode="&#x10e;" horiz-adv-x="775" 
d="M294 820l-148 144h96l84 -59l84 59h96l-148 -144h-64zM201 394l12 -310h116c161 0 275 110 275 310c-1 167 -111 266 -257 266h-135zM95 0l15 394l-15 356h251c204 0 364 -122 364 -361c0 -221 -150 -389 -381 -389h-234z" />
    <glyph glyph-name="Dcroat" unicode="&#x110;" horiz-adv-x="775" 
d="M411 344h-208l10 -260h116c161 0 275 110 275 310c-1 167 -111 266 -257 266h-135l-10 -251l209 14v-79zM95 0l13 344h-98v79l99 -12l-14 339h251c204 0 364 -122 364 -361c0 -221 -150 -389 -381 -389h-234z" />
    <glyph glyph-name="Egrave" unicode="&#xc8;" horiz-adv-x="569" 
d="M138 952v2h127l68 -134h-84zM95 0l15 394l-15 356h389l20 -104h-2l-289 42l-11 -262l265 9l-10 -93l-255 29l12 -312l298 56h2l-21 -115h-398z" />
    <glyph glyph-name="Eacute" unicode="&#xc9;" horiz-adv-x="569" 
d="M322 954h127v-2l-111 -132h-84zM95 0l15 394l-15 356h389l20 -104h-2l-289 42l-11 -262l265 9l-10 -93l-255 29l12 -312l298 56h2l-21 -115h-398z" />
    <glyph glyph-name="Ecircumflex" unicode="&#xca;" horiz-adv-x="569" 
d="M204 820h-93l148 144h64l148 -144h-93l-87 61zM95 0l15 394l-15 356h389l20 -104h-2l-289 42l-11 -262l265 9l-10 -93l-255 29l12 -312l298 56h2l-21 -115h-398z" />
    <glyph glyph-name="Ecaron" unicode="&#x11a;" horiz-adv-x="569" 
d="M259 820l-148 144h96l84 -59l84 59h96l-148 -144h-64zM95 0l15 394l-15 356h389l20 -104h-2l-289 42l-11 -262l265 9l-10 -93l-255 29l12 -312l298 56h2l-21 -115h-398z" />
    <glyph glyph-name="Edieresis" unicode="&#xcb;" horiz-adv-x="569" 
d="M172 949c35 0 63 -21 63 -57c0 -38 -28 -61 -63 -61c-33 0 -62 23 -62 61c0 36 29 57 62 57zM408 949c35 0 63 -21 63 -57c0 -38 -28 -61 -63 -61c-33 0 -62 23 -62 61c0 36 29 57 62 57zM95 0l15 394l-15 356h389l20 -104h-2l-289 42l-11 -262l265 9l-10 -93l-255 29
l12 -312l298 56h2l-21 -115h-398z" />
    <glyph glyph-name="Emacron" unicode="&#x112;" horiz-adv-x="569" 
d="M142 848v82h297v-82h-297zM95 0l15 394l-15 356h389l20 -104h-2l-289 42l-11 -262l265 9l-10 -93l-255 29l12 -312l298 56h2l-21 -115h-398z" />
    <glyph glyph-name="Ebreve" unicode="&#x114;" horiz-adv-x="569" 
d="M290 820c-101 0 -148 76 -148 150h49c0 -30 28 -59 99 -59c72 0 99 29 99 59h49c0 -74 -47 -150 -148 -150zM95 0l15 394l-15 356h389l20 -104h-2l-289 42l-11 -262l265 9l-10 -93l-255 29l12 -312l298 56h2l-21 -115h-398z" />
    <glyph glyph-name="Edotaccent" unicode="&#x116;" horiz-adv-x="569" 
d="M290 949c38 0 69 -23 69 -63c0 -42 -31 -67 -69 -67c-36 0 -68 25 -68 67c0 40 32 63 68 63zM95 0l15 394l-15 356h389l20 -104h-2l-289 42l-11 -262l265 9l-10 -93l-255 29l12 -312l298 56h2l-21 -115h-398z" />
    <glyph glyph-name="Eogonek" unicode="&#x118;" horiz-adv-x="569" 
d="M554 -227c-18 -17 -54 -31 -89 -31c-80 0 -142 52 -142 131c0 57 29 98 67 127h-295l15 394l-15 356h389l20 -104h-2l-289 42l-11 -262l265 9l-10 -93l-255 29l12 -312l298 56h2l-21 -115h-17c-46 -46 -65 -71 -65 -115c0 -46 37 -72 81 -72c21 0 44 7 70 26h2z" />
    <glyph glyph-name="Gcircumflex" unicode="&#x11c;" horiz-adv-x="776" 
d="M353 820h-93l148 144h64l148 -144h-93l-87 61zM468 760c88 0 170 -18 220 -35l20 -142h-2c-65 46 -133 78 -258 78c-115 0 -279 -67 -279 -270c0 -189 117 -316 308 -316c42 0 101 13 137 31l-17 259v2h129l-18 -301c-41 -32 -127 -76 -244 -76c-229 0 -399 138 -399 388
c0 239 149 382 403 382z" />
    <glyph glyph-name="Gbreve" unicode="&#x11e;" horiz-adv-x="776" 
d="M439 820c-101 0 -148 76 -148 150h49c0 -30 28 -59 99 -59c72 0 99 29 99 59h49c0 -74 -47 -150 -148 -150zM468 760c88 0 170 -18 220 -35l20 -142h-2c-65 46 -133 78 -258 78c-115 0 -279 -67 -279 -270c0 -189 117 -316 308 -316c42 0 101 13 137 31l-17 259v2h129
l-18 -301c-41 -32 -127 -76 -244 -76c-229 0 -399 138 -399 388c0 239 149 382 403 382z" />
    <glyph glyph-name="Gdotaccent" unicode="&#x120;" horiz-adv-x="776" 
d="M439 949c38 0 69 -23 69 -63c0 -42 -31 -67 -69 -67c-36 0 -68 25 -68 67c0 40 32 63 68 63zM468 760c88 0 170 -18 220 -35l20 -142h-2c-65 46 -133 78 -258 78c-115 0 -279 -67 -279 -270c0 -189 117 -316 308 -316c42 0 101 13 137 31l-17 259v2h129l-18 -301
c-41 -32 -127 -76 -244 -76c-229 0 -399 138 -399 388c0 239 149 382 403 382z" />
    <glyph glyph-name="Gcommaaccent" unicode="&#x122;" horiz-adv-x="776" 
d="M468 760c88 0 170 -18 220 -35l20 -142h-2c-65 46 -133 78 -258 78c-115 0 -279 -67 -279 -270c0 -189 117 -316 308 -316c42 0 101 13 137 31l-17 259v2h129l-18 -301c-41 -32 -127 -76 -244 -76c-229 0 -399 138 -399 388c0 239 149 382 403 382zM397 -54h124
l-108 -195h-58z" />
    <glyph glyph-name="Hcircumflex" unicode="&#x124;" horiz-adv-x="806" 
d="M318 820h-93l148 144h64l148 -144h-93l-87 61zM590 0l13 353h-400l13 -353h-121l15 394l-15 356h121l-14 -322h402l-14 322h121l-15 -356l15 -394h-121z" />
    <glyph glyph-name="Hbar" unicode="&#x126;" horiz-adv-x="806" 
d="M604 428l-6 128h-390l-6 -128h402zM590 0l13 353h-400l13 -353h-121l15 394l-7 162h-93v69h90l-5 125h121l-5 -125h384l-5 125h121l-5 -125h86v-69h-89l-7 -162l15 -394h-121z" />
    <glyph glyph-name="Igrave" unicode="&#xcc;" horiz-adv-x="311" 
d="M3 952v2h127l68 -134h-84zM95 0l15 394l-15 356h121l-15 -356l15 -394h-121z" />
    <glyph glyph-name="Iacute" unicode="&#xcd;" horiz-adv-x="311" 
d="M187 954h127v-2l-111 -132h-84zM95 0l15 394l-15 356h121l-15 -356l15 -394h-121z" />
    <glyph glyph-name="Icircumflex" unicode="&#xce;" horiz-adv-x="311" 
d="M69 820h-93l148 144h64l148 -144h-93l-87 61zM95 0l15 394l-15 356h121l-15 -356l15 -394h-121z" />
    <glyph glyph-name="Itilde" unicode="&#x128;" horiz-adv-x="311" 
d="M34 820h-49c1 54 15 150 106 150c77 0 92 -69 148 -69c23 0 40 19 42 69h48c1 -51 -11 -150 -98 -150c-81 0 -106 69 -152 69c-27 0 -40 -20 -45 -69zM95 0l15 394l-15 356h121l-15 -356l15 -394h-121z" />
    <glyph glyph-name="Idieresis" unicode="&#xcf;" horiz-adv-x="311" 
d="M37 949c35 0 63 -21 63 -57c0 -38 -28 -61 -63 -61c-33 0 -62 23 -62 61c0 36 29 57 62 57zM273 949c35 0 63 -21 63 -57c0 -38 -28 -61 -63 -61c-33 0 -62 23 -62 61c0 36 29 57 62 57zM95 0l15 394l-15 356h121l-15 -356l15 -394h-121z" />
    <glyph glyph-name="Imacron" unicode="&#x12a;" horiz-adv-x="311" 
d="M7 848v82h297v-82h-297zM95 0l15 394l-15 356h121l-15 -356l15 -394h-121z" />
    <glyph glyph-name="Ibreve" unicode="&#x12c;" horiz-adv-x="311" 
d="M155 820c-101 0 -148 76 -148 150h49c0 -30 28 -59 99 -59c72 0 99 29 99 59h49c0 -74 -47 -150 -148 -150zM95 0l15 394l-15 356h121l-15 -356l15 -394h-121z" />
    <glyph glyph-name="Idotaccent" unicode="&#x130;" horiz-adv-x="311" 
d="M155 949c38 0 69 -23 69 -63c0 -42 -31 -67 -69 -67c-36 0 -68 25 -68 67c0 40 32 63 68 63zM95 0l15 394l-15 356h121l-15 -356l15 -394h-121z" />
    <glyph glyph-name="Iogonek" unicode="&#x12e;" horiz-adv-x="311" 
d="M260 -227c-18 -17 -54 -31 -89 -31c-80 0 -142 52 -142 131c0 57 29 98 67 127h-1l15 394l-15 356h121l-15 -356l15 -394h-34c-46 -46 -65 -71 -65 -115c0 -46 37 -72 81 -72c21 0 44 7 70 26h2z" />
    <glyph glyph-name="IJ" unicode="&#x132;" horiz-adv-x="749" 
d="M95 0l15 394l-15 356h121l-15 -356l15 -394h-121zM312 119c59 -23 96 -37 147 -37c73 0 103 57 97 197l-19 471h121l-9 -537c-2 -139 -54 -223 -189 -223c-39 0 -81 5 -120 17l-30 112h2z" />
    <glyph glyph-name="Jcircumflex" unicode="&#x134;" horiz-adv-x="468" 
d="M232 820h-93l148 144h64l148 -144h-93l-87 61zM32 119c59 -23 96 -37 147 -37c73 0 103 57 97 197l-19 471h121l-9 -537c-2 -139 -54 -223 -189 -223c-39 0 -81 5 -120 17l-30 112h2z" />
    <glyph glyph-name="Kcommaaccent" unicode="&#x136;" horiz-adv-x="689" 
d="M679 0h-147l-280 395v40l195 315h143v-2l-254 -319l343 -427v-2zM95 0l15 394l-15 356h121l-15 -356l15 -394h-121zM298 -54h124l-108 -195h-58z" />
    <glyph glyph-name="Lacute" unicode="&#x139;" horiz-adv-x="567" 
d="M189 954h127v-2l-111 -132h-84zM95 0l15 394l-15 356h121l-17 -687l321 63h2l-20 -126h-407z" />
    <glyph glyph-name="Lcaron" unicode="&#x13d;" horiz-adv-x="567" 
d="M362 750h110l-73 -184h-58zM95 0l15 394l-15 356h121l-17 -687l321 63h2l-20 -126h-407z" />
    <glyph glyph-name="Lcommaaccent" unicode="&#x13b;" horiz-adv-x="567" 
d="M95 0l15 394l-15 356h121l-17 -687l321 63h2l-20 -126h-407zM258 -54h124l-108 -195h-58z" />
    <glyph glyph-name="Lslash" unicode="&#x141;" horiz-adv-x="567" 
d="M95 0l9 228l-109 -77v101l113 80l2 62l-15 356h121l-9 -347l210 149v-101l-212 -151l-6 -237l321 63h2l-20 -126h-407z" />
    <glyph glyph-name="Ldot" unicode="&#x13f;" horiz-adv-x="567" 
d="M410 462c38 0 69 -23 69 -63c0 -42 -31 -67 -69 -67c-36 0 -68 25 -68 67c0 40 32 63 68 63zM95 0l15 394l-15 356h121l-17 -687l321 63h2l-20 -126h-407z" />
    <glyph glyph-name="Nacute" unicode="&#x143;" horiz-adv-x="791" 
d="M428 954h127v-2l-111 -132h-84zM641 0l-465 557l25 -557h-116l26 750h31l468 -563l-20 563h116l-34 -750h-31z" />
    <glyph glyph-name="Ncaron" unicode="&#x147;" horiz-adv-x="791" 
d="M365 820l-148 144h96l84 -59l84 59h96l-148 -144h-64zM641 0l-465 557l25 -557h-116l26 750h31l468 -563l-20 563h116l-34 -750h-31z" />
    <glyph glyph-name="Ntilde" unicode="&#xd1;" horiz-adv-x="791" 
d="M275 820h-49c1 54 15 150 106 150c77 0 92 -69 148 -69c23 0 40 19 42 69h48c1 -51 -11 -150 -98 -150c-81 0 -106 69 -152 69c-27 0 -40 -20 -45 -69zM641 0l-465 557l25 -557h-116l26 750h31l468 -563l-20 563h116l-34 -750h-31z" />
    <glyph glyph-name="Ncommaaccent" unicode="&#x145;" horiz-adv-x="791" 
d="M641 0l-465 557l25 -557h-116l26 750h31l468 -563l-20 563h116l-34 -750h-31zM335 -54h124l-108 -195h-58z" />
    <glyph glyph-name="Ograve" unicode="&#xd2;" horiz-adv-x="855" 
d="M276 952v2h127l68 -134h-84zM428 -10c-220 0 -363 171 -363 389c0 234 157 381 363 381c205 0 362 -147 362 -381c0 -213 -143 -389 -362 -389zM428 76c144 0 257 117 257 306c0 169 -104 279 -257 279s-257 -112 -257 -278c0 -190 112 -307 257 -307z" />
    <glyph glyph-name="Oacute" unicode="&#xd3;" horiz-adv-x="855" 
d="M460 954h127v-2l-111 -132h-84zM428 -10c-220 0 -363 171 -363 389c0 234 157 381 363 381c205 0 362 -147 362 -381c0 -213 -143 -389 -362 -389zM428 76c144 0 257 117 257 306c0 169 -104 279 -257 279s-257 -112 -257 -278c0 -190 112 -307 257 -307z" />
    <glyph glyph-name="Ocircumflex" unicode="&#xd4;" horiz-adv-x="855" 
d="M342 820h-93l148 144h64l148 -144h-93l-87 61zM428 -10c-220 0 -363 171 -363 389c0 234 157 381 363 381c205 0 362 -147 362 -381c0 -213 -143 -389 -362 -389zM428 76c144 0 257 117 257 306c0 169 -104 279 -257 279s-257 -112 -257 -278c0 -190 112 -307 257 -307z
" />
    <glyph glyph-name="Otilde" unicode="&#xd5;" horiz-adv-x="855" 
d="M307 820h-49c1 54 15 150 106 150c77 0 92 -69 148 -69c23 0 40 19 42 69h48c1 -51 -11 -150 -98 -150c-81 0 -106 69 -152 69c-27 0 -40 -20 -45 -69zM428 -10c-220 0 -363 171 -363 389c0 234 157 381 363 381c205 0 362 -147 362 -381c0 -213 -143 -389 -362 -389z
M428 76c144 0 257 117 257 306c0 169 -104 279 -257 279s-257 -112 -257 -278c0 -190 112 -307 257 -307z" />
    <glyph glyph-name="Odieresis" unicode="&#xd6;" horiz-adv-x="855" 
d="M310 949c35 0 63 -21 63 -57c0 -38 -28 -61 -63 -61c-33 0 -62 23 -62 61c0 36 29 57 62 57zM546 949c35 0 63 -21 63 -57c0 -38 -28 -61 -63 -61c-33 0 -62 23 -62 61c0 36 29 57 62 57zM428 -10c-220 0 -363 171 -363 389c0 234 157 381 363 381
c205 0 362 -147 362 -381c0 -213 -143 -389 -362 -389zM428 76c144 0 257 117 257 306c0 169 -104 279 -257 279s-257 -112 -257 -278c0 -190 112 -307 257 -307z" />
    <glyph glyph-name="Omacron" unicode="&#x14c;" horiz-adv-x="855" 
d="M280 848v82h297v-82h-297zM428 -10c-220 0 -363 171 -363 389c0 234 157 381 363 381c205 0 362 -147 362 -381c0 -213 -143 -389 -362 -389zM428 76c144 0 257 117 257 306c0 169 -104 279 -257 279s-257 -112 -257 -278c0 -190 112 -307 257 -307z" />
    <glyph glyph-name="Obreve" unicode="&#x14e;" horiz-adv-x="855" 
d="M428 820c-101 0 -148 76 -148 150h49c0 -30 28 -59 99 -59c72 0 99 29 99 59h49c0 -74 -47 -150 -148 -150zM428 -10c-220 0 -363 171 -363 389c0 234 157 381 363 381c205 0 362 -147 362 -381c0 -213 -143 -389 -362 -389zM428 76c144 0 257 117 257 306
c0 169 -104 279 -257 279s-257 -112 -257 -278c0 -190 112 -307 257 -307z" />
    <glyph glyph-name="Ohungarumlaut" unicode="&#x150;" horiz-adv-x="855" 
d="M349 954h111v-2l-82 -132h-66zM519 954h116v-2l-93 -132h-71zM428 -10c-220 0 -363 171 -363 389c0 234 157 381 363 381c205 0 362 -147 362 -381c0 -213 -143 -389 -362 -389zM428 76c144 0 257 117 257 306c0 169 -104 279 -257 279s-257 -112 -257 -278
c0 -190 112 -307 257 -307z" />
    <glyph glyph-name="Oslash" unicode="&#xd8;" horiz-adv-x="855" 
d="M428 -10c-82 0 -154 24 -211 65l-46 -55h-103l90 109c-59 70 -93 164 -93 270c0 234 157 381 363 381c81 0 155 -23 214 -65l46 55h103l-90 -109c56 -65 89 -154 89 -262c0 -213 -143 -389 -362 -389zM171 383c0 -79 19 -145 52 -195l355 429c-41 28 -92 44 -150 44
c-153 0 -257 -112 -257 -278zM428 76c144 0 257 117 257 306c0 71 -18 132 -51 178l-357 -432c42 -34 94 -52 151 -52z" />
    <glyph glyph-name="Oslashacute" unicode="&#x1fe;" horiz-adv-x="855" 
d="M502 954h127v-2l-111 -132h-84zM428 -10c-82 0 -154 24 -211 65l-46 -55h-103l90 109c-59 70 -93 164 -93 270c0 234 157 381 363 381c81 0 155 -23 214 -65l46 55h103l-90 -109c56 -65 89 -154 89 -262c0 -213 -143 -389 -362 -389zM171 383c0 -79 19 -145 52 -195
l355 429c-41 28 -92 44 -150 44c-153 0 -257 -112 -257 -278zM428 76c144 0 257 117 257 306c0 71 -18 132 -51 178l-357 -432c42 -34 94 -52 151 -52z" />
    <glyph glyph-name="OE" unicode="&#x152;" horiz-adv-x="1001" 
d="M541 394l-10 266h-104c-146 0 -256 -100 -257 -269c0 -198 102 -307 284 -307h76zM445 0c-251 0 -381 160 -381 389c0 239 160 361 364 361h488l20 -104h-2l-287 42l-12 -262l264 9l-10 -93l-254 28l13 -311l296 56h2l-21 -115h-480z" />
    <glyph glyph-name="Racute" unicode="&#x154;" horiz-adv-x="631" 
d="M321 954h127v-2l-111 -132h-84zM201 394l15 -394h-121l15 394l-15 356h202c143 0 225 -77 225 -185c0 -95 -48 -169 -157 -199l241 -364v-2h-144l-179 353v56c85 10 136 54 136 132c0 65 -46 119 -144 119h-63z" />
    <glyph glyph-name="Rcaron" unicode="&#x158;" horiz-adv-x="631" 
d="M258 820l-148 144h96l84 -59l84 59h96l-148 -144h-64zM201 394l15 -394h-121l15 394l-15 356h202c143 0 225 -77 225 -185c0 -95 -48 -169 -157 -199l241 -364v-2h-144l-179 353v56c85 10 136 54 136 132c0 65 -46 119 -144 119h-63z" />
    <glyph glyph-name="Rcommaaccent" unicode="&#x156;" horiz-adv-x="631" 
d="M201 394l15 -394h-121l15 394l-15 356h202c143 0 225 -77 225 -185c0 -95 -48 -169 -157 -199l241 -364v-2h-144l-179 353v56c85 10 136 54 136 132c0 65 -46 119 -144 119h-63zM271 -54h124l-108 -195h-58z" />
    <glyph glyph-name="germandbls.cap" unicode="&#xe0d1;" horiz-adv-x="1073" 
d="M715 372c-101 67 -126 135 -126 194c0 110 77 194 229 194c64 0 132 -11 163 -20l20 -138h-2c-66 43 -126 71 -201 71c-58 0 -103 -31 -103 -90c0 -50 22 -78 91 -125l65 -44c92 -62 157 -124 157 -218s-60 -206 -230 -206c-57 0 -128 17 -178 34l-20 136h2
c84 -57 138 -89 212 -89c71 0 108 46 108 103c0 54 -27 93 -88 133zM195 372c-101 67 -126 135 -126 194c0 110 77 194 229 194c64 0 132 -11 163 -20l20 -138h-2c-66 43 -126 71 -201 71c-58 0 -103 -31 -103 -90c0 -50 22 -78 91 -125l65 -44c92 -62 157 -124 157 -218
s-60 -206 -230 -206c-57 0 -128 17 -178 34l-20 136h2c84 -57 138 -89 212 -89c71 0 108 46 108 103c0 54 -27 93 -88 133z" />
    <glyph glyph-name="Sacute" unicode="&#x15a;" horiz-adv-x="553" 
d="M320 954h127v-2l-111 -132h-84zM195 372c-101 67 -126 135 -126 194c0 110 77 194 229 194c64 0 132 -11 163 -20l20 -138h-2c-66 43 -126 71 -201 71c-58 0 -103 -31 -103 -90c0 -50 22 -78 91 -125l65 -44c92 -62 157 -124 157 -218s-60 -206 -230 -206
c-57 0 -128 17 -178 34l-20 136h2c84 -57 138 -89 212 -89c71 0 108 46 108 103c0 54 -27 93 -88 133z" />
    <glyph glyph-name="Scircumflex" unicode="&#x15c;" horiz-adv-x="553" 
d="M202 820h-93l148 144h64l148 -144h-93l-87 61zM195 372c-101 67 -126 135 -126 194c0 110 77 194 229 194c64 0 132 -11 163 -20l20 -138h-2c-66 43 -126 71 -201 71c-58 0 -103 -31 -103 -90c0 -50 22 -78 91 -125l65 -44c92 -62 157 -124 157 -218s-60 -206 -230 -206
c-57 0 -128 17 -178 34l-20 136h2c84 -57 138 -89 212 -89c71 0 108 46 108 103c0 54 -27 93 -88 133z" />
    <glyph glyph-name="Scaron" unicode="&#x160;" horiz-adv-x="553" 
d="M257 820l-148 144h96l84 -59l84 59h96l-148 -144h-64zM195 372c-101 67 -126 135 -126 194c0 110 77 194 229 194c64 0 132 -11 163 -20l20 -138h-2c-66 43 -126 71 -201 71c-58 0 -103 -31 -103 -90c0 -50 22 -78 91 -125l65 -44c92 -62 157 -124 157 -218
s-60 -206 -230 -206c-57 0 -128 17 -178 34l-20 136h2c84 -57 138 -89 212 -89c71 0 108 46 108 103c0 54 -27 93 -88 133z" />
    <glyph glyph-name="Scedilla" unicode="&#x15e;" horiz-adv-x="553" 
d="M244 -268c-48 0 -92 21 -113 42l-10 66h2c29 -18 63 -37 101 -37c43 0 66 23 66 56c0 32 -24 47 -79 78v56c-46 6 -94 18 -131 31l-20 136h2c84 -57 138 -89 212 -89c71 0 108 46 108 103c0 54 -27 93 -88 133l-99 65c-101 67 -126 135 -126 194c0 110 77 194 229 194
c64 0 132 -11 163 -20l20 -138h-2c-66 43 -126 71 -201 71c-58 0 -103 -31 -103 -90c0 -50 22 -78 91 -125l65 -44c92 -62 157 -124 157 -218c0 -88 -52 -191 -198 -205v-25c63 -27 89 -67 89 -113c0 -67 -55 -121 -135 -121z" />
    <glyph glyph-name="Scommaaccent" unicode="&#x218;" horiz-adv-x="553" 
d="M195 372c-101 67 -126 135 -126 194c0 110 77 194 229 194c64 0 132 -11 163 -20l20 -138h-2c-66 43 -126 71 -201 71c-58 0 -103 -31 -103 -90c0 -50 22 -78 91 -125l65 -44c92 -62 157 -124 157 -218s-60 -206 -230 -206c-57 0 -128 17 -178 34l-20 136h2
c84 -57 138 -89 212 -89c71 0 108 46 108 103c0 54 -27 93 -88 133zM197 -54h124l-108 -195h-58z" />
    <glyph glyph-name="Tcaron" unicode="&#x164;" horiz-adv-x="663" 
d="M302 820l-148 144h96l84 -59l84 59h96l-148 -144h-64zM651 629l-278 49l18 -678h-120l18 678l-277 -49h-2l21 121h601l21 -121h-2z" />
    <glyph glyph-name="Tcommaaccent" unicode="&#x162;" horiz-adv-x="663" 
d="M651 629l-278 49l18 -678h-120l18 678l-277 -49h-2l21 121h601l21 -121h-2zM267 -54h124l-108 -195h-58z" />
    <glyph glyph-name="uni021A" unicode="&#x21a;" horiz-adv-x="663" 
d="M651 629l-278 49l18 -678h-120l18 678l-277 -49h-2l21 121h601l21 -121h-2zM267 -54h124l-108 -195h-58z" />
    <glyph glyph-name="Tbar" unicode="&#x166;" horiz-adv-x="663" 
d="M574 341l-193 37l10 -378h-120l10 378l-192 -37h-2l11 101h185l6 236l-277 -49h-2l21 121h601l21 -121h-2l-278 49l6 -236h186l11 -101h-2z" />
    <glyph glyph-name="Ugrave" unicode="&#xd9;" horiz-adv-x="780" 
d="M239 952v2h127l68 -134h-84zM391 76c118 0 196 80 196 242l-18 432h121l-12 -432c0 -203 -102 -328 -287 -328c-184 0 -289 125 -289 328l-12 432h121l-18 -432c0 -162 82 -242 198 -242z" />
    <glyph glyph-name="Uacute" unicode="&#xda;" horiz-adv-x="780" 
d="M423 954h127v-2l-111 -132h-84zM391 76c118 0 196 80 196 242l-18 432h121l-12 -432c0 -203 -102 -328 -287 -328c-184 0 -289 125 -289 328l-12 432h121l-18 -432c0 -162 82 -242 198 -242z" />
    <glyph glyph-name="Ucircumflex" unicode="&#xdb;" horiz-adv-x="780" 
d="M305 820h-93l148 144h64l148 -144h-93l-87 61zM391 76c118 0 196 80 196 242l-18 432h121l-12 -432c0 -203 -102 -328 -287 -328c-184 0 -289 125 -289 328l-12 432h121l-18 -432c0 -162 82 -242 198 -242z" />
    <glyph glyph-name="Utilde" unicode="&#x168;" horiz-adv-x="780" 
d="M270 820h-49c1 54 15 150 106 150c77 0 92 -69 148 -69c23 0 40 19 42 69h48c1 -51 -11 -150 -98 -150c-81 0 -106 69 -152 69c-27 0 -40 -20 -45 -69zM391 76c118 0 196 80 196 242l-18 432h121l-12 -432c0 -203 -102 -328 -287 -328c-184 0 -289 125 -289 328l-12 432
h121l-18 -432c0 -162 82 -242 198 -242z" />
    <glyph glyph-name="Udieresis" unicode="&#xdc;" horiz-adv-x="780" 
d="M273 949c35 0 63 -21 63 -57c0 -38 -28 -61 -63 -61c-33 0 -62 23 -62 61c0 36 29 57 62 57zM509 949c35 0 63 -21 63 -57c0 -38 -28 -61 -63 -61c-33 0 -62 23 -62 61c0 36 29 57 62 57zM391 76c118 0 196 80 196 242l-18 432h121l-12 -432c0 -203 -102 -328 -287 -328
c-184 0 -289 125 -289 328l-12 432h121l-18 -432c0 -162 82 -242 198 -242z" />
    <glyph glyph-name="Umacron" unicode="&#x16a;" horiz-adv-x="780" 
d="M243 848v82h297v-82h-297zM391 76c118 0 196 80 196 242l-18 432h121l-12 -432c0 -203 -102 -328 -287 -328c-184 0 -289 125 -289 328l-12 432h121l-18 -432c0 -162 82 -242 198 -242z" />
    <glyph glyph-name="Ubreve" unicode="&#x16c;" horiz-adv-x="780" 
d="M391 820c-101 0 -148 76 -148 150h49c0 -30 28 -59 99 -59c72 0 99 29 99 59h49c0 -74 -47 -150 -148 -150zM391 76c118 0 196 80 196 242l-18 432h121l-12 -432c0 -203 -102 -328 -287 -328c-184 0 -289 125 -289 328l-12 432h121l-18 -432c0 -162 82 -242 198 -242z
" />
    <glyph glyph-name="Uring" unicode="&#x16e;" horiz-adv-x="780" 
d="M391 763c-78 0 -121 50 -121 104c0 64 54 103 121 103s122 -39 122 -103c0 -54 -45 -104 -122 -104zM391 811c37 0 60 23 60 51c0 34 -26 54 -60 54c-33 0 -60 -20 -60 -54c0 -28 24 -51 60 -51zM391 76c118 0 196 80 196 242l-18 432h121l-12 -432
c0 -203 -102 -328 -287 -328c-184 0 -289 125 -289 328l-12 432h121l-18 -432c0 -162 82 -242 198 -242z" />
    <glyph glyph-name="Uhungarumlaut" unicode="&#x170;" horiz-adv-x="780" 
d="M312 954h111v-2l-82 -132h-66zM482 954h116v-2l-93 -132h-71zM391 76c118 0 196 80 196 242l-18 432h121l-12 -432c0 -203 -102 -328 -287 -328c-184 0 -289 125 -289 328l-12 432h121l-18 -432c0 -162 82 -242 198 -242z" />
    <glyph glyph-name="Uogonek" unicode="&#x172;" horiz-adv-x="780" 
d="M418 -258c-80 0 -142 52 -142 131c0 53 26 92 60 121c-150 23 -234 142 -234 324l-12 432h121l-18 -432c0 -162 82 -242 198 -242c118 0 196 80 196 242l-18 432h121l-12 -432c0 -192 -92 -315 -258 -327c-40 -40 -56 -65 -56 -106c0 -46 37 -72 81 -72c21 0 44 7 70 26
h2l-10 -66c-18 -17 -54 -31 -89 -31z" />
    <glyph glyph-name="Wgrave" unicode="&#x1e80;" horiz-adv-x="1010" 
d="M347 952v2h127l68 -134h-84zM655 -25l-157 494l-163 -494h-37l-283 773v2h126l182 -583l163 583h28l170 -595l185 595h126v-2l-303 -773h-37z" />
    <glyph glyph-name="Wacute" unicode="&#x1e82;" horiz-adv-x="1010" 
d="M531 954h127v-2l-111 -132h-84zM655 -25l-157 494l-163 -494h-37l-283 773v2h126l182 -583l163 583h28l170 -595l185 595h126v-2l-303 -773h-37z" />
    <glyph glyph-name="Wcircumflex" unicode="&#x174;" horiz-adv-x="1010" 
d="M407 820h-93l148 144h64l148 -144h-93l-87 61zM655 -25l-157 494l-163 -494h-37l-283 773v2h126l182 -583l163 583h28l170 -595l185 595h126v-2l-303 -773h-37z" />
    <glyph glyph-name="Wdieresis" unicode="&#x1e84;" horiz-adv-x="1010" 
d="M381 949c35 0 63 -21 63 -57c0 -38 -28 -61 -63 -61c-33 0 -62 23 -62 61c0 36 29 57 62 57zM617 949c35 0 63 -21 63 -57c0 -38 -28 -61 -63 -61c-33 0 -62 23 -62 61c0 36 29 57 62 57zM655 -25l-157 494l-163 -494h-37l-283 773v2h126l182 -583l163 583h28l170 -595
l185 595h126v-2l-303 -773h-37z" />
    <glyph glyph-name="Ygrave" unicode="&#x1ef2;" horiz-adv-x="643" 
d="M171 952v2h127l68 -134h-84zM387 0h-127l15 338l-265 410v2h136l186 -348l177 348h124v-2l-262 -408z" />
    <glyph glyph-name="Yacute" unicode="&#xdd;" horiz-adv-x="643" 
d="M355 954h127v-2l-111 -132h-84zM387 0h-127l15 338l-265 410v2h136l186 -348l177 348h124v-2l-262 -408z" />
    <glyph glyph-name="Ycircumflex" unicode="&#x176;" horiz-adv-x="643" 
d="M237 820h-93l148 144h64l148 -144h-93l-87 61zM387 0h-127l15 338l-265 410v2h136l186 -348l177 348h124v-2l-262 -408z" />
    <glyph glyph-name="Ydieresis" unicode="&#x178;" horiz-adv-x="643" 
d="M205 949c35 0 63 -21 63 -57c0 -38 -28 -61 -63 -61c-33 0 -62 23 -62 61c0 36 29 57 62 57zM441 949c35 0 63 -21 63 -57c0 -38 -28 -61 -63 -61c-33 0 -62 23 -62 61c0 36 29 57 62 57zM387 0h-127l15 338l-265 410v2h136l186 -348l177 348h124v-2l-262 -408z" />
    <glyph glyph-name="Zacute" unicode="&#x179;" horiz-adv-x="657" 
d="M377 954h127v-2l-111 -132h-84zM586 0h-536v10l406 672l-382 -48h-2l20 116h515v-10l-407 -673l404 49h2z" />
    <glyph glyph-name="Zcaron" unicode="&#x17d;" horiz-adv-x="657" 
d="M314 820l-148 144h96l84 -59l84 59h96l-148 -144h-64zM586 0h-536v10l406 672l-382 -48h-2l20 116h515v-10l-407 -673l404 49h2z" />
    <glyph glyph-name="Zdotaccent" unicode="&#x17b;" horiz-adv-x="657" 
d="M345 949c38 0 69 -23 69 -63c0 -42 -31 -67 -69 -67c-36 0 -68 25 -68 67c0 40 32 63 68 63zM586 0h-536v10l406 672l-382 -48h-2l20 116h515v-10l-407 -673l404 49h2z" />
    <glyph glyph-name="Schwa" unicode="&#x18f;" horiz-adv-x="855" 
d="M425 760c253 0 365 -189 365 -380c0 -237 -171 -390 -359 -390c-259 0 -376 219 -363 416h616c-15 149 -94 255 -272 255c-102 0 -204 -42 -297 -108h-3l14 79c87 85 195 128 299 128zM434 78c121 0 227 85 249 259l-505 -33c14 -88 82 -226 256 -226z" />
    <glyph glyph-name="Eng" unicode="&#x14a;" horiz-adv-x="791" 
d="M684 -46c0 -106 -16 -207 -171 -204l-50 82v2c96 -10 118 29 122 106l6 120l-415 497l25 -557h-116l26 750h31l468 -563l-20 563h116l-23 -575z" />
    <glyph glyph-name="Eth" unicode="&#xd0;" horiz-adv-x="775" 
d="M411 344h-208l10 -260h116c161 0 275 110 275 310c-1 167 -111 266 -257 266h-135l-10 -251l209 14v-79zM95 0l13 344h-98v79l99 -12l-14 339h251c204 0 364 -122 364 -361c0 -221 -150 -389 -381 -389h-234z" />
    <glyph glyph-name="Thorn" unicode="&#xde;" horiz-adv-x="593" 
d="M205 394l13 -394h-123l15 394l-15 356h123l-5 -138h83c162 0 252 -86 252 -205c0 -138 -78 -238 -265 -244v62c93 6 162 52 162 155c0 88 -47 143 -176 143h-59z" />
    <glyph glyph-name="a" unicode="a" horiz-adv-x="513" 
d="M235 63c34 0 67 19 99 44l3 87c-24 13 -59 20 -84 20c-61 0 -99 -28 -99 -76c0 -45 32 -75 81 -75zM331 0l1 47c-37 -28 -83 -57 -128 -57c-96 0 -149 64 -149 141c0 126 120 155 232 155c14 0 33 -1 52 -2l1 26c3 97 -44 114 -101 114c-53 0 -105 -17 -160 -42h-2
l19 117c37 4 108 11 157 11c117 0 175 -72 179 -184l11 -326h-112z" />
    <glyph glyph-name="b" unicode="b" horiz-adv-x="565" 
d="M279 -10c-71 0 -150 26 -202 58l12 376l-14 346h111l-13 -344c43 37 99 84 160 84c128 0 182 -129 182 -245c0 -102 -39 -275 -236 -275zM288 66c86 0 127 78 127 190c-2 98 -46 152 -127 152c-35 0 -73 -12 -113 -37l8 -268c26 -22 59 -37 105 -37z" />
    <glyph glyph-name="c" unicode="c" horiz-adv-x="475" 
d="M293 510c53 0 94 -10 121 -24l20 -117h-2c-46 34 -93 50 -142 50c-76 0 -141 -50 -141 -165c0 -127 62 -188 151 -188c53 0 95 22 133 46h2l-10 -70c-24 -24 -78 -52 -137 -52c-142 0 -238 113 -238 266c0 170 115 254 243 254z" />
    <glyph glyph-name="d" unicode="d" horiz-adv-x="568" 
d="M293 66c36 0 66 13 92 30l10 297c-31 17 -68 26 -101 26c-100 0 -144 -82 -144 -168c0 -119 50 -185 143 -185zM385 0l-1 38c-34 -25 -76 -48 -123 -48c-135 0 -211 122 -211 262c0 165 110 258 240 258c39 0 74 -8 103 -20l-11 280h111l-13 -346l13 -424h-108z" />
    <glyph glyph-name="e" unicode="e" horiz-adv-x="529" 
d="M442 41c-35 -33 -93 -51 -159 -51c-158 0 -233 129 -233 261c0 173 104 259 219 259c144 0 221 -107 202 -290h-321c9 -90 50 -154 160 -154c56 0 101 22 140 45h2zM150 270l231 30c6 68 -30 120 -114 120c-56 0 -117 -40 -117 -150z" />
    <glyph glyph-name="f" unicode="f" horiz-adv-x="335" 
d="M192 433l13 -433h-111l14 433h-83v77l80 -10l-2 63c-3 81 22 207 166 207c19 0 45 -1 61 -6l20 -96h-2c-20 8 -45 17 -71 17c-68 0 -81 -56 -84 -142v-44l140 11v-77h-141z" />
    <glyph glyph-name="g" unicode="g" horiz-adv-x="570" 
d="M293 66c40 0 73 16 101 35l3 290c-31 19 -69 28 -103 28c-100 0 -144 -82 -144 -168c0 -119 50 -185 143 -185zM269 -260c-46 0 -108 9 -153 19l-30 117h4c72 -32 127 -57 181 -57c82 0 119 51 121 163l1 63c-35 -28 -81 -55 -132 -55c-135 0 -211 122 -211 262
c0 165 110 258 240 258c41 0 77 -8 107 -21l96 11h2l-11 -122l7 -354c2 -97 -14 -284 -222 -284z" />
    <glyph glyph-name="h" unicode="h" horiz-adv-x="565" 
d="M287 410c-38 1 -80 -19 -113 -42l11 -368h-111l14 424l-14 346h111l-13 -346v-2l20 17c45 37 96 72 149 71c93 1 139 -72 143 -184l11 -326h-111l8 293c3 97 -43 118 -105 117z" />
    <glyph glyph-name="i" unicode="i" horiz-adv-x="264" 
d="M130 709c35 0 63 -21 63 -57c0 -38 -28 -61 -63 -61c-33 0 -62 23 -62 61c0 36 29 57 62 57zM70 500h104v-2l14 -498h-112l12 369l-18 129v2z" />
    <glyph glyph-name="j" unicode="j" horiz-adv-x="259" 
d="M125 709c35 0 63 -21 63 -57c0 -38 -28 -61 -63 -61c-33 0 -62 23 -62 61c0 36 29 57 62 57zM70 500h106c1 0 4 -546 3 -546c3 -104 -15 -184 -141 -204l-50 77v2c72 0 90 29 92 110l8 430l-18 129v2z" />
    <glyph glyph-name="k" unicode="k" horiz-adv-x="534" 
d="M79 0l12 278l-11 492h110l-16 -483l16 -287h-111zM519 0h-130l-214 287l197 213h131v-2l-226 -211l242 -285v-2z" />
    <glyph glyph-name="l" unicode="l" horiz-adv-x="261" 
d="M75 0l14 424l-14 346h111l-13 -346l13 -424h-111z" />
    <glyph glyph-name="m" unicode="m" horiz-adv-x="844" 
d="M278 409c-33 0 -70 -15 -100 -38l10 -371h-112l12 370l-18 128v2h104l2 -76l16 14c43 37 90 72 142 72c63 0 103 -36 123 -96l27 24c43 37 90 72 142 72c89 0 133 -73 137 -183l11 -327h-112l9 294c3 95 -38 115 -101 115c-34 0 -72 -16 -103 -39c2 -14 3 -28 4 -43
l10 -327h-112l10 294c3 95 -38 115 -101 115z" />
    <glyph glyph-name="n" unicode="n" horiz-adv-x="573" 
d="M289 410c-37 1 -78 -18 -111 -41l10 -369h-112l12 369l-18 129v2h104l2 -77l19 16c44 37 96 71 149 71c93 0 139 -72 143 -184l11 -326h-112l9 293c3 97 -44 118 -106 117z" />
    <glyph glyph-name="o" unicode="o" horiz-adv-x="568" 
d="M284 510c150 0 234 -115 234 -252c0 -147 -83 -268 -234 -268s-234 122 -234 268c0 138 84 252 234 252zM284 66c92 0 135 83 135 190c0 87 -47 163 -135 163s-135 -75 -135 -163c0 -106 43 -190 135 -190z" />
    <glyph glyph-name="p" unicode="p" horiz-adv-x="569" 
d="M290 66c89 0 131 78 131 190c-2 98 -47 152 -129 152c-34 0 -69 -12 -110 -36l4 -269c26 -22 58 -37 104 -37zM281 -10c-33 0 -64 5 -93 13l4 -253h-109l10 629l-18 119v2h103l3 -72c42 37 98 82 157 82c129 0 181 -130 181 -246c0 -102 -39 -274 -238 -274z" />
    <glyph glyph-name="q" unicode="q" horiz-adv-x="572" 
d="M497 -250h-109l4 294c-35 -28 -80 -54 -131 -54c-135 0 -211 122 -211 262c0 165 105 258 240 258c40 0 76 -8 105 -20l98 10h2l-11 -122zM293 66c40 0 73 16 100 35l4 290c-31 19 -69 28 -103 28c-105 0 -144 -82 -144 -168c0 -119 50 -185 143 -185z" />
    <glyph glyph-name="r" unicode="r" horiz-adv-x="408" 
d="M292 404c-37 0 -82 -19 -114 -41l10 -363h-112l12 369l-18 129v2h104l2 -82l25 21c41 34 80 71 127 71c11 0 26 0 40 -2l20 -124h-2c-29 14 -57 20 -94 20z" />
    <glyph glyph-name="s" unicode="s" horiz-adv-x="458" 
d="M232 422c-48 0 -75 -20 -75 -49s18 -51 74 -76l51 -23c81 -37 116 -75 116 -137c0 -80 -56 -147 -172 -147c-60 0 -108 15 -142 35l-19 109h2c54 -40 106 -70 167 -70c44 0 68 24 68 60c0 35 -25 57 -68 75l-66 28c-87 37 -108 90 -108 142c0 86 71 141 175 141
c33 0 82 -4 137 -27l18 -114h-2c-48 35 -106 53 -156 53z" />
    <glyph glyph-name="t" unicode="t" horiz-adv-x="385" 
d="M174 616h13l1 -119l150 13v-92l-150 12l1 -247c0 -92 45 -117 88 -117c24 0 43 5 61 14h2l-10 -55c-17 -19 -55 -35 -94 -35c-84 0 -146 56 -144 162l5 286l-77 6v12z" />
    <glyph glyph-name="u" unicode="u" horiz-adv-x="562" 
d="M363 58c-44 -37 -94 -68 -148 -68c-85 0 -129 73 -131 183l-3 196l-21 129v2h122l-6 -294c-2 -91 35 -116 92 -116c40 0 83 18 116 41l-10 369h112l-12 -369l18 -129v-2h-104l-2 78z" />
    <glyph glyph-name="v" unicode="v" horiz-adv-x="502" 
d="M269 -10h-51l-213 508v2h117l138 -393l118 393h119v-2z" />
    <glyph glyph-name="w" unicode="w" horiz-adv-x="720" 
d="M468 -10l-112 312l-115 -312h-48l-188 508v2h115l108 -366l109 366h48l121 -374l95 374h114v-2l-198 -508h-49z" />
    <glyph glyph-name="x" unicode="x" horiz-adv-x="479" 
d="M135 0h-130v2l196 251l-177 245v2h128l99 -181l94 181h125v-2l-188 -228l192 -268v-2h-126l-115 200z" />
    <glyph glyph-name="y" unicode="y" horiz-adv-x="518" 
d="M165 -250h-129v2l181 258l-212 488v2h121l140 -396l123 396h124v-2z" />
    <glyph glyph-name="z" unicode="z" horiz-adv-x="481" 
d="M420 0h-385v2l275 448l-250 -42h-2l20 92h368v-2l-274 -447l265 43h2z" />
    <glyph glyph-name="agrave" unicode="&#xe0;" horiz-adv-x="513" 
d="M87 758v2h124l68 -194h-66zM235 63c34 0 67 19 99 44l3 87c-24 13 -59 20 -84 20c-61 0 -99 -28 -99 -76c0 -45 32 -75 81 -75zM331 0l1 47c-37 -28 -83 -57 -128 -57c-96 0 -149 64 -149 141c0 126 120 155 232 155c14 0 33 -1 52 -2l1 26c3 97 -44 114 -101 114
c-53 0 -105 -17 -160 -42h-2l19 117c37 4 108 11 157 11c117 0 175 -72 179 -184l11 -326h-112z" />
    <glyph glyph-name="aacute" unicode="&#xe1;" horiz-adv-x="513" 
d="M268 760h124v-2l-126 -192h-66zM235 63c34 0 67 19 99 44l3 87c-24 13 -59 20 -84 20c-61 0 -99 -28 -99 -76c0 -45 32 -75 81 -75zM331 0l1 47c-37 -28 -83 -57 -128 -57c-96 0 -149 64 -149 141c0 126 120 155 232 155c14 0 33 -1 52 -2l1 26c3 97 -44 114 -101 114
c-53 0 -105 -17 -160 -42h-2l19 117c37 4 108 11 157 11c117 0 175 -72 179 -184l11 -326h-112z" />
    <glyph glyph-name="acircumflex" unicode="&#xe2;" horiz-adv-x="513" 
d="M136 566h-61l128 194h64l128 -194h-61l-99 96zM235 63c34 0 67 19 99 44l3 87c-24 13 -59 20 -84 20c-61 0 -99 -28 -99 -76c0 -45 32 -75 81 -75zM331 0l1 47c-37 -28 -83 -57 -128 -57c-96 0 -149 64 -149 141c0 126 120 155 232 155c14 0 33 -1 52 -2l1 26
c3 97 -44 114 -101 114c-53 0 -105 -17 -160 -42h-2l19 117c37 4 108 11 157 11c117 0 175 -72 179 -184l11 -326h-112z" />
    <glyph glyph-name="atilde" unicode="&#xe3;" horiz-adv-x="513" 
d="M115 590h-45c1 56 14 155 97 155c85 0 96 -89 155 -89c24 0 41 19 44 74h44c1 -53 -10 -155 -89 -155c-90 0 -111 89 -159 89c-28 0 -42 -22 -47 -74zM235 63c34 0 67 19 99 44l3 87c-24 13 -59 20 -84 20c-61 0 -99 -28 -99 -76c0 -45 32 -75 81 -75zM331 0l1 47
c-37 -28 -83 -57 -128 -57c-96 0 -149 64 -149 141c0 126 120 155 232 155c14 0 33 -1 52 -2l1 26c3 97 -44 114 -101 114c-53 0 -105 -17 -160 -42h-2l19 117c37 4 108 11 157 11c117 0 175 -72 179 -184l11 -326h-112z" />
    <glyph glyph-name="adieresis" unicode="&#xe4;" horiz-adv-x="513" 
d="M123 719c35 0 63 -21 63 -57c0 -38 -28 -61 -63 -61c-33 0 -62 23 -62 61c0 36 29 57 62 57zM341 719c35 0 63 -21 63 -57c0 -38 -28 -61 -63 -61c-33 0 -62 23 -62 61c0 36 29 57 62 57zM235 63c34 0 67 19 99 44l3 87c-24 13 -59 20 -84 20c-61 0 -99 -28 -99 -76
c0 -45 32 -75 81 -75zM331 0l1 47c-37 -28 -83 -57 -128 -57c-96 0 -149 64 -149 141c0 126 120 155 232 155c14 0 33 -1 52 -2l1 26c3 97 -44 114 -101 114c-53 0 -105 -17 -160 -42h-2l19 117c37 4 108 11 157 11c117 0 175 -72 179 -184l11 -326h-112z" />
    <glyph glyph-name="amacron" unicode="&#x101;" horiz-adv-x="513" 
d="M83 606v82h297v-82h-297zM235 63c34 0 67 19 99 44l3 87c-24 13 -59 20 -84 20c-61 0 -99 -28 -99 -76c0 -45 32 -75 81 -75zM331 0l1 47c-37 -28 -83 -57 -128 -57c-96 0 -149 64 -149 141c0 126 120 155 232 155c14 0 33 -1 52 -2l1 26c3 97 -44 114 -101 114
c-53 0 -105 -17 -160 -42h-2l19 117c37 4 108 11 157 11c117 0 175 -72 179 -184l11 -326h-112z" />
    <glyph glyph-name="abreve" unicode="&#x103;" horiz-adv-x="513" 
d="M233 575c-94 0 -138 76 -138 150h49c0 -31 25 -60 89 -60c65 0 89 29 89 60h49c0 -74 -44 -150 -138 -150zM235 63c34 0 67 19 99 44l3 87c-24 13 -59 20 -84 20c-61 0 -99 -28 -99 -76c0 -45 32 -75 81 -75zM331 0l1 47c-37 -28 -83 -57 -128 -57
c-96 0 -149 64 -149 141c0 126 120 155 232 155c14 0 33 -1 52 -2l1 26c3 97 -44 114 -101 114c-53 0 -105 -17 -160 -42h-2l19 117c37 4 108 11 157 11c117 0 175 -72 179 -184l11 -326h-112z" />
    <glyph glyph-name="aring" unicode="&#xe5;" horiz-adv-x="513" 
d="M235 573c-78 0 -121 50 -121 104c0 64 54 103 121 103s122 -39 122 -103c0 -54 -45 -104 -122 -104zM235 621c37 0 60 23 60 51c0 34 -26 54 -60 54c-33 0 -60 -20 -60 -54c0 -28 24 -51 60 -51zM235 63c34 0 67 19 99 44l3 87c-24 13 -59 20 -84 20
c-61 0 -99 -28 -99 -76c0 -45 32 -75 81 -75zM331 0l1 47c-37 -28 -83 -57 -128 -57c-96 0 -149 64 -149 141c0 126 120 155 232 155c14 0 33 -1 52 -2l1 26c3 97 -44 114 -101 114c-53 0 -105 -17 -160 -42h-2l19 117c37 4 108 11 157 11c117 0 175 -72 179 -184l11 -326
h-112z" />
    <glyph glyph-name="aringacute" unicode="&#x1fb;" horiz-adv-x="513" 
d="M267 1024h124v-2l-126 -192h-66zM235 573c-78 0 -121 50 -121 104c0 64 54 103 121 103s122 -39 122 -103c0 -54 -45 -104 -122 -104zM235 621c37 0 60 23 60 51c0 34 -26 54 -60 54c-33 0 -60 -20 -60 -54c0 -28 24 -51 60 -51zM235 63c34 0 67 19 99 44l3 87
c-24 13 -59 20 -84 20c-61 0 -99 -28 -99 -76c0 -45 32 -75 81 -75zM331 0l1 47c-37 -28 -83 -57 -128 -57c-96 0 -149 64 -149 141c0 126 120 155 232 155c14 0 33 -1 52 -2l1 26c3 97 -44 114 -101 114c-53 0 -105 -17 -160 -42h-2l19 117c37 4 108 11 157 11
c117 0 175 -72 179 -184l11 -326h-112z" />
    <glyph glyph-name="aogonek" unicode="&#x105;" horiz-adv-x="513" 
d="M235 63c34 0 67 19 99 44l3 87c-24 13 -59 20 -84 20c-61 0 -99 -28 -99 -76c0 -45 32 -75 81 -75zM495 -227c-18 -17 -54 -31 -89 -31c-80 0 -142 52 -142 131c0 57 30 98 67 127l1 47c-37 -28 -83 -57 -128 -57c-96 0 -149 64 -149 141c0 126 120 155 232 155
c14 0 33 -1 52 -2l1 26c3 97 -44 114 -101 114c-53 0 -105 -17 -160 -42h-2l19 117c37 4 108 11 157 11c117 0 175 -72 179 -184l11 -326h-26c-46 -46 -65 -71 -65 -115c0 -46 37 -72 81 -72c21 0 44 7 70 26h2z" />
    <glyph glyph-name="ae" unicode="&#xe6;" horiz-adv-x="813" 
d="M551 420c-56 0 -117 -40 -117 -150l231 30c6 68 -30 120 -114 120zM567 -10c-47 0 -122 11 -176 83c-60 -59 -114 -83 -187 -83c-96 0 -149 64 -149 141c0 126 120 155 232 155c14 0 33 -1 52 -2c13 123 -43 140 -100 140c-53 0 -105 -17 -160 -42h-2l19 117
c37 4 108 11 157 11c68 0 116 -24 145 -67c41 45 97 67 155 67c144 0 221 -107 202 -290h-319c5 -96 55 -154 158 -154c56 0 101 22 140 45h2l-10 -70c-35 -33 -93 -51 -159 -51zM235 63c34 0 68 20 100 45l2 86c-24 13 -59 20 -84 20c-61 0 -99 -28 -99 -76
c0 -45 32 -75 81 -75z" />
    <glyph glyph-name="aeacute" unicode="&#x1fd;" horiz-adv-x="813" 
d="M433 760h124v-2l-126 -192h-66zM551 420c-56 0 -117 -40 -117 -150l231 30c6 68 -30 120 -114 120zM567 -10c-47 0 -122 11 -176 83c-60 -59 -114 -83 -187 -83c-96 0 -149 64 -149 141c0 126 120 155 232 155c14 0 33 -1 52 -2c13 123 -43 140 -100 140
c-53 0 -105 -17 -160 -42h-2l19 117c37 4 108 11 157 11c68 0 116 -24 145 -67c41 45 97 67 155 67c144 0 221 -107 202 -290h-319c5 -96 55 -154 158 -154c56 0 101 22 140 45h2l-10 -70c-35 -33 -93 -51 -159 -51zM235 63c34 0 68 20 100 45l2 86c-24 13 -59 20 -84 20
c-61 0 -99 -28 -99 -76c0 -45 32 -75 81 -75z" />
    <glyph glyph-name="cacute" unicode="&#x107;" horiz-adv-x="475" 
d="M313 760h124v-2l-126 -192h-66zM293 510c53 0 94 -10 121 -24l20 -117h-2c-46 34 -93 50 -142 50c-76 0 -141 -50 -141 -165c0 -127 62 -188 151 -188c53 0 95 22 133 46h2l-10 -70c-24 -24 -78 -52 -137 -52c-142 0 -238 113 -238 266c0 170 115 254 243 254z" />
    <glyph glyph-name="ccircumflex" unicode="&#x109;" horiz-adv-x="475" 
d="M175 566h-61l128 194h64l128 -194h-61l-99 96zM293 510c53 0 94 -10 121 -24l20 -117h-2c-46 34 -93 50 -142 50c-76 0 -141 -50 -141 -165c0 -127 62 -188 151 -188c53 0 95 22 133 46h2l-10 -70c-24 -24 -78 -52 -137 -52c-142 0 -238 113 -238 266
c0 170 115 254 243 254z" />
    <glyph glyph-name="ccaron" unicode="&#x10d;" horiz-adv-x="475" 
d="M248 566l-128 194h66l94 -85l94 85h66l-128 -194h-64zM293 510c53 0 94 -10 121 -24l20 -117h-2c-46 34 -93 50 -142 50c-76 0 -141 -50 -141 -165c0 -127 62 -188 151 -188c53 0 95 22 133 46h2l-10 -70c-24 -24 -78 -52 -137 -52c-142 0 -238 113 -238 266
c0 170 115 254 243 254z" />
    <glyph glyph-name="cdotaccent" unicode="&#x10b;" horiz-adv-x="475" 
d="M281 719c38 0 69 -23 69 -63c0 -42 -31 -67 -69 -67c-36 0 -68 25 -68 67c0 40 32 63 68 63zM293 510c53 0 94 -10 121 -24l20 -117h-2c-46 34 -93 50 -142 50c-76 0 -141 -50 -141 -165c0 -127 62 -188 151 -188c53 0 95 22 133 46h2l-10 -70c-24 -24 -78 -52 -137 -52
c-142 0 -238 113 -238 266c0 170 115 254 243 254z" />
    <glyph glyph-name="ccedilla" unicode="&#xe7;" horiz-adv-x="475" 
d="M255 -268c-48 0 -92 21 -113 42l-10 66h2c29 -18 63 -37 101 -37c43 0 66 23 66 56c0 32 -24 47 -79 78v62c-105 29 -172 129 -172 257c0 170 115 254 243 254c53 0 94 -10 121 -24l20 -117h-2c-46 34 -93 50 -142 50c-76 0 -141 -50 -141 -165c0 -127 62 -188 151 -188
c53 0 95 22 133 46h2l-10 -70c-22 -22 -70 -48 -124 -52v-24c63 -27 89 -67 89 -113c0 -67 -55 -121 -135 -121z" />
    <glyph glyph-name="dcaron" unicode="&#x10f;" horiz-adv-x="568" 
d="M581 770h110l-73 -184h-58zM293 66c36 0 66 13 92 30l10 297c-31 17 -68 26 -101 26c-100 0 -144 -82 -144 -168c0 -119 50 -185 143 -185zM385 0l-1 38c-34 -25 -76 -48 -123 -48c-135 0 -211 122 -211 262c0 165 110 258 240 258c39 0 74 -8 103 -20l-11 280h111
l-13 -346l13 -424h-108z" />
    <glyph glyph-name="dcroat" unicode="&#x111;" horiz-adv-x="568" 
d="M293 66c36 0 66 13 92 30l10 297c-31 17 -68 26 -101 26c-100 0 -144 -82 -144 -168c0 -119 50 -185 143 -185zM385 0l-1 38c-34 -25 -76 -48 -123 -48c-135 0 -211 122 -211 262c0 165 110 258 240 258c39 0 74 -8 103 -20l-3 88h-157v77l154 -11l-5 126h111l-5 -124
l80 9v-77h-82l-6 -154l13 -424h-108z" />
    <glyph glyph-name="egrave" unicode="&#xe8;" horiz-adv-x="529" 
d="M120 758v2h124l68 -194h-66zM442 41c-35 -33 -93 -51 -159 -51c-158 0 -233 129 -233 261c0 173 104 259 219 259c144 0 221 -107 202 -290h-321c9 -90 50 -154 160 -154c56 0 101 22 140 45h2zM150 270l231 30c6 68 -30 120 -114 120c-56 0 -117 -40 -117 -150z" />
    <glyph glyph-name="eacute" unicode="&#xe9;" horiz-adv-x="529" 
d="M301 760h124v-2l-126 -192h-66zM442 41c-35 -33 -93 -51 -159 -51c-158 0 -233 129 -233 261c0 173 104 259 219 259c144 0 221 -107 202 -290h-321c9 -90 50 -154 160 -154c56 0 101 22 140 45h2zM150 270l231 30c6 68 -30 120 -114 120c-56 0 -117 -40 -117 -150z" />
    <glyph glyph-name="ecircumflex" unicode="&#xea;" horiz-adv-x="529" 
d="M163 566h-61l128 194h64l128 -194h-61l-99 96zM442 41c-35 -33 -93 -51 -159 -51c-158 0 -233 129 -233 261c0 173 104 259 219 259c144 0 221 -107 202 -290h-321c9 -90 50 -154 160 -154c56 0 101 22 140 45h2zM150 270l231 30c6 68 -30 120 -114 120
c-56 0 -117 -40 -117 -150z" />
    <glyph glyph-name="ecaron" unicode="&#x11b;" horiz-adv-x="529" 
d="M236 566l-128 194h66l94 -85l94 85h66l-128 -194h-64zM442 41c-35 -33 -93 -51 -159 -51c-158 0 -233 129 -233 261c0 173 104 259 219 259c144 0 221 -107 202 -290h-321c9 -90 50 -154 160 -154c56 0 101 22 140 45h2zM150 270l231 30c6 68 -30 120 -114 120
c-56 0 -117 -40 -117 -150z" />
    <glyph glyph-name="edieresis" unicode="&#xeb;" horiz-adv-x="529" 
d="M156 719c35 0 63 -21 63 -57c0 -38 -28 -61 -63 -61c-33 0 -62 23 -62 61c0 36 29 57 62 57zM374 719c35 0 63 -21 63 -57c0 -38 -28 -61 -63 -61c-33 0 -62 23 -62 61c0 36 29 57 62 57zM442 41c-35 -33 -93 -51 -159 -51c-158 0 -233 129 -233 261
c0 173 104 259 219 259c144 0 221 -107 202 -290h-321c9 -90 50 -154 160 -154c56 0 101 22 140 45h2zM150 270l231 30c6 68 -30 120 -114 120c-56 0 -117 -40 -117 -150z" />
    <glyph glyph-name="emacron" unicode="&#x113;" horiz-adv-x="529" 
d="M116 606v82h297v-82h-297zM442 41c-35 -33 -93 -51 -159 -51c-158 0 -233 129 -233 261c0 173 104 259 219 259c144 0 221 -107 202 -290h-321c9 -90 50 -154 160 -154c56 0 101 22 140 45h2zM150 270l231 30c6 68 -30 120 -114 120c-56 0 -117 -40 -117 -150z" />
    <glyph glyph-name="ebreve" unicode="&#x115;" horiz-adv-x="529" 
d="M266 575c-94 0 -138 76 -138 150h49c0 -31 25 -60 89 -60c65 0 89 29 89 60h49c0 -74 -44 -150 -138 -150zM442 41c-35 -33 -93 -51 -159 -51c-158 0 -233 129 -233 261c0 173 104 259 219 259c144 0 221 -107 202 -290h-321c9 -90 50 -154 160 -154c56 0 101 22 140 45
h2zM150 270l231 30c6 68 -30 120 -114 120c-56 0 -117 -40 -117 -150z" />
    <glyph glyph-name="edotaccent" unicode="&#x117;" horiz-adv-x="529" 
d="M269 719c38 0 69 -23 69 -63c0 -42 -31 -67 -69 -67c-36 0 -68 25 -68 67c0 40 32 63 68 63zM442 41c-35 -33 -93 -51 -159 -51c-158 0 -233 129 -233 261c0 173 104 259 219 259c144 0 221 -107 202 -290h-321c9 -90 50 -154 160 -154c56 0 101 22 140 45h2zM150 270
l231 30c6 68 -30 120 -114 120c-56 0 -117 -40 -117 -150z" />
    <glyph glyph-name="eogonek" unicode="&#x119;" horiz-adv-x="529" 
d="M378 -258c-80 0 -142 52 -142 131c0 51 23 89 55 117h-8c-158 0 -233 129 -233 261c0 173 104 259 219 259c144 0 221 -107 202 -290h-321c9 -90 50 -154 160 -154c56 0 101 22 140 45h2l-10 -70c-11 -10 -24 -19 -38 -26c-57 -55 -80 -81 -80 -130c0 -46 37 -72 81 -72
c21 0 44 7 70 26h2l-10 -66c-18 -17 -54 -31 -89 -31zM150 270l231 30c6 68 -30 120 -114 120c-56 0 -117 -40 -117 -150z" />
    <glyph glyph-name="gcircumflex" unicode="&#x11d;" horiz-adv-x="570" 
d="M189 566h-61l128 194h64l128 -194h-61l-99 96zM293 66c40 0 73 16 101 35l3 290c-31 19 -69 28 -103 28c-100 0 -144 -82 -144 -168c0 -119 50 -185 143 -185zM269 -260c-46 0 -108 9 -153 19l-30 117h4c72 -32 127 -57 181 -57c82 0 119 51 121 163l1 63
c-35 -28 -81 -55 -132 -55c-135 0 -211 122 -211 262c0 165 110 258 240 258c41 0 77 -8 107 -21l96 11h2l-11 -122l7 -354c2 -97 -14 -284 -222 -284z" />
    <glyph glyph-name="gbreve" unicode="&#x11f;" horiz-adv-x="570" 
d="M286 575c-94 0 -138 76 -138 150h49c0 -31 25 -60 89 -60c65 0 89 29 89 60h49c0 -74 -44 -150 -138 -150zM293 66c40 0 73 16 101 35l3 290c-31 19 -69 28 -103 28c-100 0 -144 -82 -144 -168c0 -119 50 -185 143 -185zM269 -260c-46 0 -108 9 -153 19l-30 117h4
c72 -32 127 -57 181 -57c82 0 119 51 121 163l1 63c-35 -28 -81 -55 -132 -55c-135 0 -211 122 -211 262c0 165 110 258 240 258c41 0 77 -8 107 -21l96 11h2l-11 -122l7 -354c2 -97 -14 -284 -222 -284z" />
    <glyph glyph-name="gdotaccent" unicode="&#x121;" horiz-adv-x="570" 
d="M289 719c38 0 69 -23 69 -63c0 -42 -31 -67 -69 -67c-36 0 -68 25 -68 67c0 40 32 63 68 63zM293 66c40 0 73 16 101 35l3 290c-31 19 -69 28 -103 28c-100 0 -144 -82 -144 -168c0 -119 50 -185 143 -185zM269 -260c-46 0 -108 9 -153 19l-30 117h4
c72 -32 127 -57 181 -57c82 0 119 51 121 163l1 63c-35 -28 -81 -55 -132 -55c-135 0 -211 122 -211 262c0 165 110 258 240 258c41 0 77 -8 107 -21l96 11h2l-11 -122l7 -354c2 -97 -14 -284 -222 -284z" />
    <glyph glyph-name="gcommaaccent" unicode="&#x123;" horiz-adv-x="570" 
d="M345 577h-124l111 210h58zM293 66c40 0 73 16 101 35l3 290c-31 19 -69 28 -103 28c-100 0 -144 -82 -144 -168c0 -119 50 -185 143 -185zM269 -260c-46 0 -108 9 -153 19l-30 117h4c72 -32 127 -57 181 -57c82 0 119 51 121 163l1 63c-35 -28 -81 -55 -132 -55
c-135 0 -211 122 -211 262c0 165 110 258 240 258c41 0 77 -8 107 -21l96 11h2l-11 -122l7 -354c2 -97 -14 -284 -222 -284z" />
    <glyph glyph-name="hcircumflex" unicode="&#x125;" horiz-adv-x="565" 
d="M31 796h-61l128 194h64l128 -194h-61l-99 96zM287 410c-38 1 -80 -19 -113 -42l11 -368h-111l14 424l-14 346h111l-13 -346v-2l20 17c45 37 96 72 149 71c93 1 139 -72 143 -184l11 -326h-111l8 293c3 97 -43 118 -105 117z" />
    <glyph glyph-name="hbar" unicode="&#x127;" horiz-adv-x="565" 
d="M287 410c-38 1 -80 -19 -113 -42l11 -368h-111l14 424l-6 154h-83v77l80 -9l-5 124h111l-5 -126l154 11v-77h-156l-6 -154v-2l20 17c45 37 96 72 149 71c93 1 139 -72 143 -184l11 -326h-111l8 293c3 97 -43 118 -105 117z" />
    <glyph glyph-name="igrave" unicode="&#xec;" horiz-adv-x="264" 
d="M-23 758v2h124l68 -194h-66zM70 500h104v-2l14 -498h-112l12 369l-18 129v2z" />
    <glyph glyph-name="iacute" unicode="&#xed;" horiz-adv-x="264" 
d="M158 760h124v-2l-126 -192h-66zM70 500h104v-2l14 -498h-112l12 369l-18 129v2z" />
    <glyph glyph-name="icircumflex" unicode="&#xee;" horiz-adv-x="264" 
d="M26 566h-61l128 194h64l128 -194h-61l-99 96zM70 500h104v-2l14 -498h-112l12 369l-18 129v2z" />
    <glyph glyph-name="itilde" unicode="&#x129;" horiz-adv-x="264" 
d="M5 590h-45c1 56 14 155 97 155c85 0 96 -89 155 -89c24 0 41 19 44 74h44c1 -53 -10 -155 -89 -155c-90 0 -111 89 -159 89c-28 0 -42 -22 -47 -74zM70 500h104v-2l14 -498h-112l12 369l-18 129v2z" />
    <glyph glyph-name="idieresis" unicode="&#xef;" horiz-adv-x="264" 
d="M13 719c35 0 63 -21 63 -57c0 -38 -28 -61 -63 -61c-33 0 -62 23 -62 61c0 36 29 57 62 57zM231 719c35 0 63 -21 63 -57c0 -38 -28 -61 -63 -61c-33 0 -62 23 -62 61c0 36 29 57 62 57zM70 500h104v-2l14 -498h-112l12 369l-18 129v2z" />
    <glyph glyph-name="imacron" unicode="&#x12b;" horiz-adv-x="264" 
d="M-27 606v82h297v-82h-297zM70 500h104v-2l14 -498h-112l12 369l-18 129v2z" />
    <glyph glyph-name="ibreve" unicode="&#x12d;" horiz-adv-x="264" 
d="M123 575c-94 0 -138 76 -138 150h49c0 -31 25 -60 89 -60c65 0 89 29 89 60h49c0 -74 -44 -150 -138 -150zM70 500h104v-2l14 -498h-112l12 369l-18 129v2z" />
    <glyph glyph-name="idotaccent" unicode="&#xe0dc;" horiz-adv-x="264" 
d="M126 719c38 0 69 -23 69 -63c0 -42 -31 -67 -69 -67c-36 0 -68 25 -68 67c0 40 32 63 68 63zM70 500h104v-2l14 -498h-112l12 369l-18 129v2z" />
    <glyph glyph-name="iogonek" unicode="&#x12f;" horiz-adv-x="264" 
d="M130 709c35 0 63 -21 63 -57c0 -38 -28 -61 -63 -61c-33 0 -62 23 -62 61c0 36 29 57 62 57zM240 -227c-18 -17 -54 -31 -89 -31c-80 0 -142 52 -142 131c0 57 30 98 67 127l12 369l-18 129v2h104v-2l14 -498h-26c-46 -46 -65 -71 -65 -115c0 -46 37 -72 81 -72
c21 0 44 7 70 26h2z" />
    <glyph glyph-name="dotlessi" unicode="&#x131;" horiz-adv-x="264" 
d="M70 500h104v-2l14 -498h-112l12 369l-18 129v2z" />
    <glyph glyph-name="ij" unicode="&#x133;" horiz-adv-x="484" 
d="M130 709c35 0 63 -21 63 -57c0 -38 -28 -61 -63 -61c-33 0 -62 23 -62 61c0 36 29 57 62 57zM350 708c35 0 63 -21 63 -57c0 -38 -28 -61 -63 -61c-33 0 -62 23 -62 61c0 36 29 57 62 57zM70 500h104v-2l14 -498h-112l12 369l-18 129v2zM295 499h106c1 0 4 -546 3 -546
c3 -104 -15 -184 -141 -204l-50 77v2c72 0 90 29 92 110l8 430l-18 129v2z" />
    <glyph glyph-name="jcircumflex" unicode="&#x135;" horiz-adv-x="259" 
d="M24 566h-61l128 194h64l128 -194h-61l-99 96zM70 500h106c1 0 4 -546 3 -546c3 -104 -15 -184 -141 -204l-50 77v2c72 0 90 29 92 110l8 430l-18 129v2z" />
    <glyph glyph-name="dotlessj" unicode="&#x237;" horiz-adv-x="259" 
d="M70 500h106c1 0 4 -546 3 -546c3 -104 -15 -184 -141 -204l-50 77v2c72 0 90 29 92 110l8 430l-18 129v2z" />
    <glyph glyph-name="kcommaaccent" unicode="&#x137;" horiz-adv-x="534" 
d="M79 0l12 278l-11 492h110l-16 -483l16 -287h-111zM519 0h-130l-214 287l197 213h131v-2l-226 -211l242 -285v-2zM223 -81h124l-108 -195h-58z" />
    <glyph glyph-name="lacute" unicode="&#x13a;" horiz-adv-x="261" 
d="M164 995h124v-2l-126 -192h-66zM75 0l14 424l-14 346h111l-13 -346l13 -424h-111z" />
    <glyph glyph-name="lcaron" unicode="&#x13e;" horiz-adv-x="261" 
d="M272 770h110l-73 -184h-58zM75 0l14 424l-14 346h111l-13 -346l13 -424h-111z" />
    <glyph glyph-name="lcommaaccent" unicode="&#x13c;" horiz-adv-x="261" 
d="M75 0l14 424l-14 346h111l-13 -346l13 -424h-111zM71 -81h124l-108 -195h-58z" />
    <glyph glyph-name="lslash" unicode="&#x142;" horiz-adv-x="285" 
d="M199 0h-111l7 225l-88 -77h-2v102l94 81l3 93l-14 346h111l-13 -346l1 -17l118 102l2 1v-102l-117 -102z" />
    <glyph glyph-name="ldot" unicode="&#x140;" horiz-adv-x="399" 
d="M75 0l14 424l-14 346h111l-13 -346l13 -424h-111zM330 474c38 0 69 -23 69 -63c0 -42 -31 -67 -69 -67c-36 0 -68 25 -68 67c0 40 32 63 68 63z" />
    <glyph glyph-name="nacute" unicode="&#x144;" horiz-adv-x="573" 
d="M321 760h124v-2l-126 -192h-66zM289 410c-37 1 -78 -18 -111 -41l10 -369h-112l12 369l-18 129v2h104l2 -77l19 16c44 37 96 71 149 71c93 0 139 -72 143 -184l11 -326h-112l9 293c3 97 -44 118 -106 117z" />
    <glyph glyph-name="ncaron" unicode="&#x148;" horiz-adv-x="573" 
d="M256 566l-128 194h66l94 -85l94 85h66l-128 -194h-64zM289 410c-37 1 -78 -18 -111 -41l10 -369h-112l12 369l-18 129v2h104l2 -77l19 16c44 37 96 71 149 71c93 0 139 -72 143 -184l11 -326h-112l9 293c3 97 -44 118 -106 117z" />
    <glyph glyph-name="ntilde" unicode="&#xf1;" horiz-adv-x="573" 
d="M168 590h-45c1 56 14 155 97 155c85 0 96 -89 155 -89c24 0 41 19 44 74h44c1 -53 -10 -155 -89 -155c-90 0 -111 89 -159 89c-28 0 -42 -22 -47 -74zM289 410c-37 1 -78 -18 -111 -41l10 -369h-112l12 369l-18 129v2h104l2 -77l19 16c44 37 96 71 149 71
c93 0 139 -72 143 -184l11 -326h-112l9 293c3 97 -44 118 -106 117z" />
    <glyph glyph-name="ncommaaccent" unicode="&#x146;" horiz-adv-x="573" 
d="M289 410c-37 1 -78 -18 -111 -41l10 -369h-112l12 369l-18 129v2h104l2 -77l19 16c44 37 96 71 149 71c93 0 139 -72 143 -184l11 -326h-112l9 293c3 97 -44 118 -106 117zM222 -54h124l-108 -195h-58z" />
    <glyph glyph-name="ograve" unicode="&#xf2;" horiz-adv-x="568" 
d="M136 758v2h124l68 -194h-66zM284 510c150 0 234 -115 234 -252c0 -147 -83 -268 -234 -268s-234 122 -234 268c0 138 84 252 234 252zM284 66c92 0 135 83 135 190c0 87 -47 163 -135 163s-135 -75 -135 -163c0 -106 43 -190 135 -190z" />
    <glyph glyph-name="oacute" unicode="&#xf3;" horiz-adv-x="568" 
d="M317 760h124v-2l-126 -192h-66zM284 510c150 0 234 -115 234 -252c0 -147 -83 -268 -234 -268s-234 122 -234 268c0 138 84 252 234 252zM284 66c92 0 135 83 135 190c0 87 -47 163 -135 163s-135 -75 -135 -163c0 -106 43 -190 135 -190z" />
    <glyph glyph-name="ocircumflex" unicode="&#xf4;" horiz-adv-x="568" 
d="M185 566h-61l128 194h64l128 -194h-61l-99 96zM284 510c150 0 234 -115 234 -252c0 -147 -83 -268 -234 -268s-234 122 -234 268c0 138 84 252 234 252zM284 66c92 0 135 83 135 190c0 87 -47 163 -135 163s-135 -75 -135 -163c0 -106 43 -190 135 -190z" />
    <glyph glyph-name="otilde" unicode="&#xf5;" horiz-adv-x="568" 
d="M164 590h-45c1 56 14 155 97 155c85 0 96 -89 155 -89c24 0 41 19 44 74h44c1 -53 -10 -155 -89 -155c-90 0 -111 89 -159 89c-28 0 -42 -22 -47 -74zM284 510c150 0 234 -115 234 -252c0 -147 -83 -268 -234 -268s-234 122 -234 268c0 138 84 252 234 252zM284 66
c92 0 135 83 135 190c0 87 -47 163 -135 163s-135 -75 -135 -163c0 -106 43 -190 135 -190z" />
    <glyph glyph-name="odieresis" unicode="&#xf6;" horiz-adv-x="568" 
d="M172 719c35 0 63 -21 63 -57c0 -38 -28 -61 -63 -61c-33 0 -62 23 -62 61c0 36 29 57 62 57zM390 719c35 0 63 -21 63 -57c0 -38 -28 -61 -63 -61c-33 0 -62 23 -62 61c0 36 29 57 62 57zM284 510c150 0 234 -115 234 -252c0 -147 -83 -268 -234 -268s-234 122 -234 268
c0 138 84 252 234 252zM284 66c92 0 135 83 135 190c0 87 -47 163 -135 163s-135 -75 -135 -163c0 -106 43 -190 135 -190z" />
    <glyph glyph-name="omacron" unicode="&#x14d;" horiz-adv-x="568" 
d="M132 606v82h297v-82h-297zM284 510c150 0 234 -115 234 -252c0 -147 -83 -268 -234 -268s-234 122 -234 268c0 138 84 252 234 252zM284 66c92 0 135 83 135 190c0 87 -47 163 -135 163s-135 -75 -135 -163c0 -106 43 -190 135 -190z" />
    <glyph glyph-name="obreve" unicode="&#x14f;" horiz-adv-x="568" 
d="M282 575c-94 0 -138 76 -138 150h49c0 -31 25 -60 89 -60c65 0 89 29 89 60h49c0 -74 -44 -150 -138 -150zM284 510c150 0 234 -115 234 -252c0 -147 -83 -268 -234 -268s-234 122 -234 268c0 138 84 252 234 252zM284 66c92 0 135 83 135 190c0 87 -47 163 -135 163
s-135 -75 -135 -163c0 -106 43 -190 135 -190z" />
    <glyph glyph-name="ohungarumlaut" unicode="&#x151;" horiz-adv-x="568" 
d="M209 770h111v-2l-95 -192h-54zM384 770h114v-2l-102 -192h-58zM284 510c150 0 234 -115 234 -252c0 -147 -83 -268 -234 -268s-234 122 -234 268c0 138 84 252 234 252zM284 66c92 0 135 83 135 190c0 87 -47 163 -135 163s-135 -75 -135 -163c0 -106 43 -190 135 -190z
" />
    <glyph glyph-name="oslash" unicode="&#xf8;" horiz-adv-x="568" 
d="M284 -10c-55 0 -100 16 -136 43l-29 -33h-88v2l69 81c-33 47 -50 108 -50 175c0 138 84 252 234 252c58 0 106 -17 144 -46l31 36h88v-2l-73 -85c29 -43 44 -97 44 -155c0 -147 -83 -268 -234 -268zM149 256c0 -36 5 -70 15 -99l201 234c-21 17 -48 28 -81 28
c-88 0 -135 -75 -135 -163zM284 66c92 0 135 83 135 190c0 27 -5 54 -14 77l-203 -236c21 -20 48 -31 82 -31z" />
    <glyph glyph-name="oslashacute" unicode="&#x1ff;" horiz-adv-x="568" 
d="M307 760h124v-2l-126 -192h-66zM284 -10c-55 0 -100 16 -136 43l-29 -33h-88v2l69 81c-33 47 -50 108 -50 175c0 138 84 252 234 252c58 0 106 -17 144 -46l31 36h88v-2l-73 -85c29 -43 44 -97 44 -155c0 -147 -83 -268 -234 -268zM149 256c0 -36 5 -70 15 -99l201 234
c-21 17 -48 28 -81 28c-88 0 -135 -75 -135 -163zM284 66c92 0 135 83 135 190c0 27 -5 54 -14 77l-203 -236c21 -20 48 -31 82 -31z" />
    <glyph glyph-name="oe" unicode="&#x153;" horiz-adv-x="898" 
d="M652 -10c-85 0 -146 37 -184 92c-40 -56 -102 -92 -184 -92c-151 0 -234 122 -234 268c0 138 84 252 234 252c82 0 144 -34 183 -87c41 58 104 87 171 87c144 0 221 -107 202 -290h-321c9 -90 50 -154 160 -154c56 0 101 22 140 45h2l-10 -70c-35 -33 -93 -51 -159 -51z
M519 270l231 30c6 68 -30 120 -114 120c-56 0 -117 -40 -117 -150zM284 66c92 0 135 83 135 190c0 87 -47 163 -135 163s-135 -75 -135 -163c0 -106 43 -190 135 -190z" />
    <glyph glyph-name="racute" unicode="&#x155;" horiz-adv-x="408" 
d="M260 760h124v-2l-126 -192h-66zM292 404c-37 0 -82 -19 -114 -41l10 -363h-112l12 369l-18 129v2h104l2 -82l25 21c41 34 80 71 127 71c11 0 26 0 40 -2l20 -124h-2c-29 14 -57 20 -94 20z" />
    <glyph glyph-name="rcaron" unicode="&#x159;" horiz-adv-x="408" 
d="M195 566l-128 194h66l94 -85l94 85h66l-128 -194h-64zM292 404c-37 0 -82 -19 -114 -41l10 -363h-112l12 369l-18 129v2h104l2 -82l25 21c41 34 80 71 127 71c11 0 26 0 40 -2l20 -124h-2c-29 14 -57 20 -94 20z" />
    <glyph glyph-name="rcommaaccent" unicode="&#x157;" horiz-adv-x="408" 
d="M292 404c-37 0 -82 -19 -114 -41l10 -363h-112l12 369l-18 129v2h104l2 -82l25 21c41 34 80 71 127 71c11 0 26 0 40 -2l20 -124h-2c-29 14 -57 20 -94 20zM69 -54h124l-108 -195h-58z" />
    <glyph glyph-name="sacute" unicode="&#x15b;" horiz-adv-x="458" 
d="M268 760h124v-2l-126 -192h-66zM232 422c-48 0 -75 -20 -75 -49s18 -51 74 -76l51 -23c81 -37 116 -75 116 -137c0 -80 -56 -147 -172 -147c-60 0 -108 15 -142 35l-19 109h2c54 -40 106 -70 167 -70c44 0 68 24 68 60c0 35 -25 57 -68 75l-66 28
c-87 37 -108 90 -108 142c0 86 71 141 175 141c33 0 82 -4 137 -27l18 -114h-2c-48 35 -106 53 -156 53z" />
    <glyph glyph-name="scircumflex" unicode="&#x15d;" horiz-adv-x="458" 
d="M136 566h-61l128 194h64l128 -194h-61l-99 96zM232 422c-48 0 -75 -20 -75 -49s18 -51 74 -76l51 -23c81 -37 116 -75 116 -137c0 -80 -56 -147 -172 -147c-60 0 -108 15 -142 35l-19 109h2c54 -40 106 -70 167 -70c44 0 68 24 68 60c0 35 -25 57 -68 75l-66 28
c-87 37 -108 90 -108 142c0 86 71 141 175 141c33 0 82 -4 137 -27l18 -114h-2c-48 35 -106 53 -156 53z" />
    <glyph glyph-name="scaron" unicode="&#x161;" horiz-adv-x="458" 
d="M203 566l-128 194h66l94 -85l94 85h66l-128 -194h-64zM232 422c-48 0 -75 -20 -75 -49s18 -51 74 -76l51 -23c81 -37 116 -75 116 -137c0 -80 -56 -147 -172 -147c-60 0 -108 15 -142 35l-19 109h2c54 -40 106 -70 167 -70c44 0 68 24 68 60c0 35 -25 57 -68 75l-66 28
c-87 37 -108 90 -108 142c0 86 71 141 175 141c33 0 82 -4 137 -27l18 -114h-2c-48 35 -106 53 -156 53z" />
    <glyph glyph-name="scedilla" unicode="&#x15f;" horiz-adv-x="458" 
d="M206 -268c-48 0 -92 21 -113 42l-10 66h2c29 -18 63 -37 101 -37c43 0 66 23 66 56c0 32 -24 47 -79 78v57c-36 6 -66 17 -89 31l-19 109h2c54 -40 106 -70 167 -70c44 0 68 24 68 60c0 35 -25 57 -68 75l-66 28c-87 37 -108 90 -108 142c0 86 71 141 175 141
c33 0 82 -4 137 -27l18 -114h-2c-48 35 -106 53 -156 53c-48 0 -75 -20 -75 -49s18 -51 74 -76l51 -23c81 -37 116 -75 116 -137c0 -74 -48 -136 -146 -146v-25c63 -27 89 -67 89 -113c0 -67 -55 -121 -135 -121z" />
    <glyph glyph-name="scommaaccent" unicode="&#x219;" horiz-adv-x="458" 
d="M232 422c-48 0 -75 -20 -75 -49s18 -51 74 -76l51 -23c81 -37 116 -75 116 -137c0 -80 -56 -147 -172 -147c-60 0 -108 15 -142 35l-19 109h2c54 -40 106 -70 167 -70c44 0 68 24 68 60c0 35 -25 57 -68 75l-66 28c-87 37 -108 90 -108 142c0 86 71 141 175 141
c33 0 82 -4 137 -27l18 -114h-2c-48 35 -106 53 -156 53zM159 -54h124l-108 -195h-58z" />
    <glyph glyph-name="germandbls" unicode="&#xdf;" horiz-adv-x="631" 
d="M410 -10c-53 0 -95 18 -126 35l-17 111h2c32 -28 87 -63 140 -63s78 38 78 93c0 59 -33 105 -88 160l-100 100l120 261h-238l-9 -263l12 -424h-109l13 424l-13 346h500v-2l-175 -318l72 -71c62 -61 111 -133 111 -207c0 -107 -72 -182 -173 -182z" />
    <glyph glyph-name="tcaron" unicode="&#x165;" horiz-adv-x="385" 
d="M254 740h110l-73 -184h-58zM174 616h13l1 -119l150 13v-92l-150 12l1 -247c0 -92 45 -117 88 -117c24 0 43 5 61 14h2l-10 -55c-17 -19 -55 -35 -94 -35c-84 0 -146 56 -144 162l5 286l-77 6v12z" />
    <glyph glyph-name="tcommaaccent" unicode="&#x163;" horiz-adv-x="385" 
d="M174 616h13l1 -119l150 13v-92l-150 12l1 -247c0 -92 45 -117 88 -117c24 0 43 5 61 14h2l-10 -55c-17 -19 -55 -35 -94 -35c-84 0 -146 56 -144 162l5 286l-77 6v12zM169 -54h124l-108 -195h-58z" />
    <glyph glyph-name="tbar" unicode="&#x167;" horiz-adv-x="385" 
d="M330 25c-17 -19 -55 -35 -94 -35c-84 0 -146 56 -144 162l1 69h-62v76l63 -8l3 149l-77 6v12l154 160h13l1 -119l150 13v-92l-150 12l1 -143l119 9v-75h-119v-38c0 -92 45 -117 88 -117c24 0 43 5 61 14h2z" />
    <glyph glyph-name="ugrave" unicode="&#xf9;" horiz-adv-x="562" 
d="M127 758v2h124l68 -194h-66zM363 58c-44 -37 -94 -68 -148 -68c-85 0 -129 73 -131 183l-3 196l-21 129v2h122l-6 -294c-2 -91 35 -116 92 -116c40 0 83 18 116 41l-10 369h112l-12 -369l18 -129v-2h-104l-2 78z" />
    <glyph glyph-name="uacute" unicode="&#xfa;" horiz-adv-x="562" 
d="M308 760h124v-2l-126 -192h-66zM363 58c-44 -37 -94 -68 -148 -68c-85 0 -129 73 -131 183l-3 196l-21 129v2h122l-6 -294c-2 -91 35 -116 92 -116c40 0 83 18 116 41l-10 369h112l-12 -369l18 -129v-2h-104l-2 78z" />
    <glyph glyph-name="ucircumflex" unicode="&#xfb;" horiz-adv-x="562" 
d="M176 566h-61l128 194h64l128 -194h-61l-99 96zM363 58c-44 -37 -94 -68 -148 -68c-85 0 -129 73 -131 183l-3 196l-21 129v2h122l-6 -294c-2 -91 35 -116 92 -116c40 0 83 18 116 41l-10 369h112l-12 -369l18 -129v-2h-104l-2 78z" />
    <glyph glyph-name="utilde" unicode="&#x169;" horiz-adv-x="562" 
d="M155 590h-45c1 56 14 155 97 155c85 0 96 -89 155 -89c24 0 41 19 44 74h44c1 -53 -10 -155 -89 -155c-90 0 -111 89 -159 89c-28 0 -42 -22 -47 -74zM363 58c-44 -37 -94 -68 -148 -68c-85 0 -129 73 -131 183l-3 196l-21 129v2h122l-6 -294c-2 -91 35 -116 92 -116
c40 0 83 18 116 41l-10 369h112l-12 -369l18 -129v-2h-104l-2 78z" />
    <glyph glyph-name="udieresis" unicode="&#xfc;" horiz-adv-x="562" 
d="M163 719c35 0 63 -21 63 -57c0 -38 -28 -61 -63 -61c-33 0 -62 23 -62 61c0 36 29 57 62 57zM381 719c35 0 63 -21 63 -57c0 -38 -28 -61 -63 -61c-33 0 -62 23 -62 61c0 36 29 57 62 57zM363 58c-44 -37 -94 -68 -148 -68c-85 0 -129 73 -131 183l-3 196l-21 129v2h122
l-6 -294c-2 -91 35 -116 92 -116c40 0 83 18 116 41l-10 369h112l-12 -369l18 -129v-2h-104l-2 78z" />
    <glyph glyph-name="umacron" unicode="&#x16b;" horiz-adv-x="562" 
d="M123 606v82h297v-82h-297zM363 58c-44 -37 -94 -68 -148 -68c-85 0 -129 73 -131 183l-3 196l-21 129v2h122l-6 -294c-2 -91 35 -116 92 -116c40 0 83 18 116 41l-10 369h112l-12 -369l18 -129v-2h-104l-2 78z" />
    <glyph glyph-name="ubreve" unicode="&#x16d;" horiz-adv-x="562" 
d="M273 575c-94 0 -138 76 -138 150h49c0 -31 25 -60 89 -60c65 0 89 29 89 60h49c0 -74 -44 -150 -138 -150zM363 58c-44 -37 -94 -68 -148 -68c-85 0 -129 73 -131 183l-3 196l-21 129v2h122l-6 -294c-2 -91 35 -116 92 -116c40 0 83 18 116 41l-10 369h112l-12 -369
l18 -129v-2h-104l-2 78z" />
    <glyph glyph-name="uring" unicode="&#x16f;" horiz-adv-x="562" 
d="M275 573c-78 0 -121 50 -121 104c0 64 54 103 121 103s122 -39 122 -103c0 -54 -45 -104 -122 -104zM275 621c37 0 60 23 60 51c0 34 -26 54 -60 54c-33 0 -60 -20 -60 -54c0 -28 24 -51 60 -51zM363 58c-44 -37 -94 -68 -148 -68c-85 0 -129 73 -131 183l-3 196l-21 129
v2h122l-6 -294c-2 -91 35 -116 92 -116c40 0 83 18 116 41l-10 369h112l-12 -369l18 -129v-2h-104l-2 78z" />
    <glyph glyph-name="uhungarumlaut" unicode="&#x171;" horiz-adv-x="562" 
d="M200 770h111v-2l-95 -192h-54zM375 770h114v-2l-102 -192h-58zM363 58c-44 -37 -94 -68 -148 -68c-85 0 -129 73 -131 183l-3 196l-21 129v2h122l-6 -294c-2 -91 35 -116 92 -116c40 0 83 18 116 41l-10 369h112l-12 -369l18 -129v-2h-104l-2 78z" />
    <glyph glyph-name="uogonek" unicode="&#x173;" horiz-adv-x="562" 
d="M543 -227c-18 -17 -54 -31 -89 -31c-80 0 -142 52 -142 131c0 61 34 104 76 134l-2 71l-23 -20c-44 -37 -94 -68 -148 -68c-85 0 -129 73 -131 183l-3 196l-21 129v2h122l-6 -294c-2 -91 35 -116 92 -116c40 0 83 18 116 41l-10 369h112l-12 -369l18 -129v-2h-27
c-46 -46 -65 -71 -65 -115c0 -46 37 -72 81 -72c21 0 44 7 70 26h2z" />
    <glyph glyph-name="wgrave" unicode="&#x1e81;" horiz-adv-x="720" 
d="M212 758v2h124l68 -194h-66zM468 -10l-112 312l-115 -312h-48l-188 508v2h115l108 -366l109 366h48l121 -374l95 374h114v-2l-198 -508h-49z" />
    <glyph glyph-name="wacute" unicode="&#x1e83;" horiz-adv-x="720" 
d="M393 760h124v-2l-126 -192h-66zM468 -10l-112 312l-115 -312h-48l-188 508v2h115l108 -366l109 366h48l121 -374l95 374h114v-2l-198 -508h-49z" />
    <glyph glyph-name="wcircumflex" unicode="&#x175;" horiz-adv-x="720" 
d="M255 566h-61l128 194h64l128 -194h-61l-99 96zM468 -10l-112 312l-115 -312h-48l-188 508v2h115l108 -366l109 366h48l121 -374l95 374h114v-2l-198 -508h-49z" />
    <glyph glyph-name="wdieresis" unicode="&#x1e85;" horiz-adv-x="720" 
d="M248 719c35 0 63 -21 63 -57c0 -38 -28 -61 -63 -61c-33 0 -62 23 -62 61c0 36 29 57 62 57zM466 719c35 0 63 -21 63 -57c0 -38 -28 -61 -63 -61c-33 0 -62 23 -62 61c0 36 29 57 62 57zM468 -10l-112 312l-115 -312h-48l-188 508v2h115l108 -366l109 366h48l121 -374
l95 374h114v-2l-198 -508h-49z" />
    <glyph glyph-name="ygrave" unicode="&#x1ef3;" horiz-adv-x="518" 
d="M108 758v2h124l68 -194h-66zM165 -250h-129v2l181 258l-212 488v2h121l140 -396l123 396h124v-2z" />
    <glyph glyph-name="yacute" unicode="&#xfd;" horiz-adv-x="518" 
d="M289 760h124v-2l-126 -192h-66zM165 -250h-129v2l181 258l-212 488v2h121l140 -396l123 396h124v-2z" />
    <glyph glyph-name="ycircumflex" unicode="&#x177;" horiz-adv-x="518" 
d="M151 566h-61l128 194h64l128 -194h-61l-99 96zM165 -250h-129v2l181 258l-212 488v2h121l140 -396l123 396h124v-2z" />
    <glyph glyph-name="ydieresis" unicode="&#xff;" horiz-adv-x="518" 
d="M144 719c35 0 63 -21 63 -57c0 -38 -28 -61 -63 -61c-33 0 -62 23 -62 61c0 36 29 57 62 57zM362 719c35 0 63 -21 63 -57c0 -38 -28 -61 -63 -61c-33 0 -62 23 -62 61c0 36 29 57 62 57zM165 -250h-129v2l181 258l-212 488v2h121l140 -396l123 396h124v-2z" />
    <glyph glyph-name="zacute" unicode="&#x17a;" horiz-adv-x="481" 
d="M284 760h124v-2l-126 -192h-66zM420 0h-385v2l275 448l-250 -42h-2l20 92h368v-2l-274 -447l265 43h2z" />
    <glyph glyph-name="zcaron" unicode="&#x17e;" horiz-adv-x="481" 
d="M219 566l-128 194h66l94 -85l94 85h66l-128 -194h-64zM420 0h-385v2l275 448l-250 -42h-2l20 92h368v-2l-274 -447l265 43h2z" />
    <glyph glyph-name="zdotaccent" unicode="&#x17c;" horiz-adv-x="481" 
d="M252 719c38 0 69 -23 69 -63c0 -42 -31 -67 -69 -67c-36 0 -68 25 -68 67c0 40 32 63 68 63zM420 0h-385v2l275 448l-250 -42h-2l20 92h368v-2l-274 -447l265 43h2z" />
    <glyph glyph-name="schwa" unicode="&#x259;" horiz-adv-x="529" 
d="M87 459c35 33 93 51 159 51c158 0 233 -129 233 -261c0 -173 -104 -259 -219 -259c-144 0 -221 107 -202 290h321c-9 90 -50 154 -160 154c-56 0 -101 -22 -140 -45h-2zM379 230l-231 -30c-6 -68 30 -120 114 -120c56 0 117 40 117 150z" />
    <glyph glyph-name="eng" unicode="&#x14b;" horiz-adv-x="568" 
d="M349 -250l-50 77v2c72 0 91 30 92 111l4 353c1 97 -44 118 -106 117c-37 1 -78 -18 -111 -41l10 -369h-112l12 369l-18 129v2h104l2 -77c63 55 115 87 168 87c93 0 142 -72 143 -184l3 -372c1 -106 -13 -182 -141 -204z" />
    <glyph glyph-name="eth" unicode="&#xf0;" horiz-adv-x="569" 
d="M284 66c92 0 135 83 135 190c0 87 -47 163 -135 163s-135 -75 -135 -163c0 -106 43 -190 135 -190zM518 258c0 -147 -83 -268 -234 -268s-234 122 -234 268c0 138 84 252 234 252c23 0 45 -3 65 -8c-21 33 -47 65 -79 98l-102 -50l-73 36v10l118 57
c-34 29 -72 58 -114 87v10h103c31 -20 60 -40 85 -60l98 47l73 -36v-10l-109 -53c137 -128 170 -251 170 -380h-1z" />
    <glyph glyph-name="thorn" unicode="&#xfe;" horiz-adv-x="560" 
d="M281 66c89 0 131 78 131 190c-2 98 -47 152 -129 152c-35 0 -70 -12 -113 -38l6 -265c26 -23 58 -39 105 -39zM272 -10c-33 0 -65 5 -94 13l5 -253h-109l13 687l-16 333h109l-11 -344c43 37 99 84 160 84c129 0 181 -130 181 -246c0 -102 -39 -274 -238 -274z" />
    <glyph glyph-name="A.small" unicode="&#xe000;" horiz-adv-x="593" 
d="M385 225l-88 260l-91 -260h179zM462 0l-55 162h-223l-57 -162h-117v4l276 617h46l251 -617v-4h-121z" />
    <glyph glyph-name="B.small" unicode="&#xe00d;" horiz-adv-x="506" 
d="M80 606h170c131 0 199 -59 199 -142c0 -67 -42 -119 -111 -136v-4c93 -19 128 -80 128 -143c0 -90 -62 -181 -232 -181h-154l14 318zM183 318l12 -238h48c78 0 123 34 123 113c0 63 -49 96 -112 103v53c59 9 98 34 98 91c0 45 -33 82 -118 82h-40z" />
    <glyph glyph-name="C.small" unicode="&#xe00e;" horiz-adv-x="595" 
d="M538 35c-28 -18 -104 -45 -180 -45c-186 0 -308 120 -308 321c0 189 126 303 323 303c64 0 131 -15 170 -25l17 -130h-5c-51 37 -108 63 -195 63c-91 0 -211 -57 -211 -209c0 -140 72 -242 217 -242c65 0 127 23 184 62h5z" />
    <glyph glyph-name="D.small" unicode="&#xe014;" horiz-adv-x="643" 
d="M184 318l11 -238h88c121 0 210 82 210 238c-1 129 -69 204 -205 204h-93zM80 0l14 318l-14 288h224c171 0 289 -99 289 -291c0 -179 -120 -315 -305 -315h-208z" />
    <glyph glyph-name="E.small" unicode="&#xe017;" horiz-adv-x="469" 
d="M80 0l14 318l-14 288h327l17 -100h-4l-225 43l-10 -202l209 7l-8 -88l-202 29l11 -239l230 54h4l-16 -110h-333z" />
    <glyph glyph-name="F.small" unicode="&#xe027;" horiz-adv-x="468" 
d="M394 250l-208 29l11 -279h-117l15 318l-15 288h336l17 -98h-4l-235 42l-9 -220l217 7z" />
    <glyph glyph-name="G.small" unicode="&#xe028;" horiz-adv-x="624" 
d="M378 614c66 0 142 -13 178 -25l17 -130h-4c-48 34 -110 63 -208 63c-99 0 -212 -60 -212 -210c0 -141 76 -241 229 -241c40 0 90 13 119 30l-43 193v5h135l-15 -246c-47 -34 -124 -63 -210 -63c-189 0 -314 120 -314 321c0 186 120 303 328 303z" />
    <glyph glyph-name="H.small" unicode="&#xe02d;" horiz-adv-x="677" 
d="M479 0l15 279h-309l13 -279h-118l14 318l-14 288h118l-14 -260h310l-15 260h118l-13 -288l13 -318h-118z" />
    <glyph glyph-name="I.small" unicode="&#xe030;" horiz-adv-x="277" 
d="M80 0l15 318l-15 288h117l-13 -288l13 -318h-117z" />
    <glyph glyph-name="J.small" unicode="&#xe03b;" horiz-adv-x="392" 
d="M24 110c43 -17 84 -31 122 -31c59 0 79 47 73 162l-20 365h118l-9 -434c-2 -112 -47 -180 -158 -180c-32 0 -71 6 -102 15l-28 103h4z" />
    <glyph glyph-name="K.small" unicode="&#xe03d;" horiz-adv-x="583" 
d="M573 0h-137l-216 320v31l156 255h135v-4l-208 -253l270 -345v-4zM80 0l14 318l-14 288h119l-15 -288l15 -318h-119z" />
    <glyph glyph-name="L.small" unicode="&#xe03f;" horiz-adv-x="465" 
d="M80 0l14 318l-14 288h117l-17 -546l251 58h4l-16 -118h-339z" />
    <glyph glyph-name="M.small" unicode="&#xe045;" horiz-adv-x="772" 
d="M378 0l-173 393l-61 -393h-114l130 606h50l177 -422l187 422h43l125 -606h-114l-59 399l-186 -399h-5z" />
    <glyph glyph-name="N.small" unicode="&#xe046;" horiz-adv-x="648" 
d="M526 0l-369 425l24 -425h-111l19 606h25l371 -428l-18 428h111l-27 -606h-25z" />
    <glyph glyph-name="O.small" unicode="&#xe04b;" horiz-adv-x="694" 
d="M347 -10c-180 0 -297 141 -297 316c0 190 128 308 297 308c168 0 297 -118 297 -308c0 -171 -117 -316 -297 -316zM347 71c112 0 198 90 198 235c-1 131 -79 217 -198 216c-118 1 -198 -86 -198 -215c0 -146 86 -236 198 -236z" />
    <glyph glyph-name="P.small" unicode="&#xe057;" horiz-adv-x="501" 
d="M185 318l13 -318h-118l15 318l-15 288h190c130 0 201 -72 201 -169c0 -112 -67 -196 -226 -201v59c77 3 128 40 128 119c0 67 -38 108 -134 108h-45z" />
    <glyph glyph-name="Q.small" unicode="&#xe058;" horiz-adv-x="694" 
d="M669 -122h-5l-359 115c-156 21 -255 151 -255 313c0 190 128 308 297 308c168 0 297 -118 297 -308c0 -140 -78 -260 -218 -300h226zM347 71c112 0 198 90 198 235c-1 131 -79 217 -198 216c-118 1 -198 -86 -198 -215c0 -146 86 -236 198 -236z" />
    <glyph glyph-name="R.small" unicode="&#xe059;" horiz-adv-x="531" 
d="M185 318l14 -318h-119l15 318l-15 288h179c123 0 190 -63 190 -152c0 -73 -38 -133 -128 -158l200 -292v-4h-135l-142 283v46c66 9 107 41 107 103c0 52 -38 90 -114 90h-42z" />
    <glyph glyph-name="S.small" unicode="&#xe05d;" horiz-adv-x="451" 
d="M152 296c-79 52 -102 109 -102 160c0 88 63 158 184 158c54 0 112 -8 144 -16l17 -123h-5c-53 39 -100 61 -154 61c-50 0 -83 -23 -83 -67c0 -34 17 -60 69 -96l58 -40c74 -51 121 -97 121 -175s-51 -168 -187 -168c-48 0 -112 11 -152 24l-17 124h5
c72 -48 117 -75 169 -75c56 0 81 36 81 79c0 42 -22 71 -75 106z" />
    <glyph glyph-name="T.small" unicode="&#xe065;" horiz-adv-x="551" 
d="M537 492l-223 47l20 -539h-119l21 539l-222 -47h-4l17 114h497l17 -114h-4z" />
    <glyph glyph-name="U.small" unicode="&#xe06a;" horiz-adv-x="654" 
d="M328 73c91 0 153 61 153 189l-19 344h117l-10 -344c0 -161 -81 -270 -241 -270c-161 0 -242 108 -242 270l-11 344h118l-19 -344c0 -129 64 -189 154 -189z" />
    <glyph glyph-name="V.small" unicode="&#xe075;" horiz-adv-x="574" 
d="M301 -15h-45l-251 617v4h120l166 -486l162 486h116v-4z" />
    <glyph glyph-name="W.small" unicode="&#xe076;" horiz-adv-x="804" 
d="M517 -15l-121 381l-133 -381h-40l-218 617v4h121l126 -453l126 453h38l130 -468l133 468h120v-4l-242 -617h-40z" />
    <glyph glyph-name="X.small" unicode="&#xe07b;" horiz-adv-x="547" 
d="M409 0l-148 257l-125 -257h-131v4l218 319l-180 279v4h126l110 -206l104 206h123v-4l-190 -266l226 -332v-4h-133z" />
    <glyph glyph-name="Y.small" unicode="&#xe07c;" horiz-adv-x="529" 
d="M324 0h-120l15 279l-214 323v4h130l138 -275l129 275h122v-4l-215 -321z" />
    <glyph glyph-name="Z.small" unicode="&#xe081;" horiz-adv-x="542" 
d="M482 0h-442v11l316 531l-293 -45h-4l16 109h419v-11l-317 -532l320 46h5z" />
    <glyph glyph-name="Agrave.small" unicode="&#xe007;" horiz-adv-x="593" 
d="M161 868v2h124l68 -194h-66zM385 225l-88 260l-91 -260h179zM462 0l-55 162h-223l-57 -162h-117v4l276 617h46l251 -617v-4h-121z" />
    <glyph glyph-name="Aacute.small" unicode="&#xe003;" horiz-adv-x="593" 
d="M342 870h124v-2l-126 -192h-66zM385 225l-88 260l-91 -260h179zM462 0l-55 162h-223l-57 -162h-117v4l276 617h46l251 -617v-4h-121z" />
    <glyph glyph-name="Acircumflex.small" unicode="&#xe005;" horiz-adv-x="593" 
d="M210 676h-61l128 194h64l128 -194h-61l-99 96zM385 225l-88 260l-91 -260h179zM462 0l-55 162h-223l-57 -162h-117v4l276 617h46l251 -617v-4h-121z" />
    <glyph glyph-name="Atilde.small" unicode="&#xe00c;" horiz-adv-x="593" 
d="M189 700h-45c1 56 14 155 97 155c85 0 96 -89 155 -89c24 0 41 19 44 74h44c1 -53 -10 -155 -89 -155c-90 0 -111 89 -159 89c-28 0 -42 -22 -47 -74zM385 225l-88 260l-91 -260h179zM462 0l-55 162h-223l-57 -162h-117v4l276 617h46l251 -617v-4h-121z" />
    <glyph glyph-name="Adieresis.small" unicode="&#xe006;" horiz-adv-x="593" 
d="M197 829c35 0 63 -21 63 -57c0 -38 -28 -61 -63 -61c-33 0 -62 23 -62 61c0 36 29 57 62 57zM415 829c35 0 63 -21 63 -57c0 -38 -28 -61 -63 -61c-33 0 -62 23 -62 61c0 36 29 57 62 57zM385 225l-88 260l-91 -260h179zM462 0l-55 162h-223l-57 -162h-117v4l276 617h46
l251 -617v-4h-121z" />
    <glyph glyph-name="Amacron.small" unicode="&#xe008;" horiz-adv-x="593" 
d="M157 716v82h297v-82h-297zM385 225l-88 260l-91 -260h179zM462 0l-55 162h-223l-57 -162h-117v4l276 617h46l251 -617v-4h-121z" />
    <glyph glyph-name="Abreve.small" unicode="&#xe004;" horiz-adv-x="593" 
d="M307 685c-94 0 -138 76 -138 150h49c0 -31 25 -60 89 -60c65 0 89 29 89 60h49c0 -74 -44 -150 -138 -150zM385 225l-88 260l-91 -260h179zM462 0l-55 162h-223l-57 -162h-117v4l276 617h46l251 -617v-4h-121z" />
    <glyph glyph-name="Aring.small" unicode="&#xe00a;" horiz-adv-x="593" 
d="M309 683c-78 0 -121 50 -121 104c0 64 54 103 121 103s122 -39 122 -103c0 -54 -45 -104 -122 -104zM309 731c37 0 60 23 60 51c0 34 -26 54 -60 54c-33 0 -60 -20 -60 -54c0 -28 24 -51 60 -51zM385 225l-88 260l-91 -260h179zM462 0l-55 162h-223l-57 -162h-117v4
l276 617h46l251 -617v-4h-121z" />
    <glyph glyph-name="Aringacute.small" unicode="&#xe00b;" horiz-adv-x="593" 
d="M352 1120h124v-2l-126 -192h-66zM308 673c-78 0 -121 50 -121 104c0 64 54 103 121 103s122 -39 122 -103c0 -54 -45 -104 -122 -104zM308 721c37 0 60 23 60 51c0 34 -26 54 -60 54c-33 0 -60 -20 -60 -54c0 -28 24 -51 60 -51zM385 225l-88 260l-91 -260h179zM462 0
l-55 162h-223l-57 -162h-117v4l276 617h46l251 -617v-4h-121z" />
    <glyph glyph-name="Aogonek.small" unicode="&#xe009;" horiz-adv-x="593" 
d="M385 225l-88 260l-91 -260h179zM627 -227c-18 -17 -54 -31 -89 -31c-80 0 -142 52 -142 131c0 57 29 98 67 127h-1l-55 162h-223l-57 -162h-117v4l276 617h46l251 -617v-4h-34c-46 -46 -65 -71 -65 -115c0 -46 37 -72 81 -72c21 0 44 7 70 26h2z" />
    <glyph glyph-name="AE.small" unicode="&#xe001;" horiz-adv-x="789" 
d="M414 318l-10 200l-157 -293h163zM400 0l7 162h-193l-87 -162h-122v4l382 602h340l17 -100h-4l-225 43l-10 -202l209 7l-8 -88l-202 29l11 -239l230 54h4l-16 -110h-333z" />
    <glyph glyph-name="AEacute.small" unicode="&#xe002;" horiz-adv-x="789" 
d="M491 870h124v-2l-126 -192h-66zM414 318l-10 200l-157 -293h163zM400 0l7 162h-193l-87 -162h-122v4l382 602h340l17 -100h-4l-225 43l-10 -202l209 7l-8 -88l-202 29l11 -239l230 54h4l-16 -110h-333z" />
    <glyph glyph-name="Cacute.small" unicode="&#xe00f;" horiz-adv-x="595" 
d="M374 871h124v-2l-126 -192h-66zM538 35c-28 -18 -104 -45 -180 -45c-186 0 -308 120 -308 321c0 189 126 303 323 303c64 0 131 -15 170 -25l17 -130h-5c-51 37 -108 63 -195 63c-91 0 -211 -57 -211 -209c0 -140 72 -242 217 -242c65 0 127 23 184 62h5z" />
    <glyph glyph-name="Ccircumflex.small" unicode="&#xe012;" horiz-adv-x="595" 
d="M242 677h-61l128 194h64l128 -194h-61l-99 96zM538 35c-28 -18 -104 -45 -180 -45c-186 0 -308 120 -308 321c0 189 126 303 323 303c64 0 131 -15 170 -25l17 -130h-5c-51 37 -108 63 -195 63c-91 0 -211 -57 -211 -209c0 -140 72 -242 217 -242c65 0 127 23 184 62h5z
" />
    <glyph glyph-name="Ccaron.small" unicode="&#xe010;" horiz-adv-x="595" 
d="M309 677l-128 194h66l94 -85l94 85h66l-128 -194h-64zM538 35c-28 -18 -104 -45 -180 -45c-186 0 -308 120 -308 321c0 189 126 303 323 303c64 0 131 -15 170 -25l17 -130h-5c-51 37 -108 63 -195 63c-91 0 -211 -57 -211 -209c0 -140 72 -242 217 -242
c65 0 127 23 184 62h5z" />
    <glyph glyph-name="Cdotaccent.small" unicode="&#xe013;" horiz-adv-x="595" 
d="M342 830c38 0 69 -23 69 -63c0 -42 -31 -67 -69 -67c-36 0 -68 25 -68 67c0 40 32 63 68 63zM538 35c-28 -18 -104 -45 -180 -45c-186 0 -308 120 -308 321c0 189 126 303 323 303c64 0 131 -15 170 -25l17 -130h-5c-51 37 -108 63 -195 63c-91 0 -211 -57 -211 -209
c0 -140 72 -242 217 -242c65 0 127 23 184 62h5z" />
    <glyph glyph-name="Ccedilla.small" unicode="&#xe011;" horiz-adv-x="595" 
d="M331 -268c-48 0 -92 21 -113 42l-10 66h2c29 -18 63 -37 101 -37c43 0 66 23 66 56c0 32 -24 47 -79 78v57c-152 24 -248 139 -248 317c0 189 126 303 323 303c64 0 131 -15 170 -25l17 -130h-5c-51 37 -108 63 -195 63c-91 0 -211 -57 -211 -209
c0 -140 72 -242 217 -242c65 0 127 23 184 62h5l-17 -98c-26 -16 -92 -41 -161 -44v-25c63 -27 89 -67 89 -113c0 -67 -55 -121 -135 -121z" />
    <glyph glyph-name="Dcaron.small" unicode="&#xe015;" horiz-adv-x="643" 
d="M259 677l-128 194h66l94 -85l94 85h66l-128 -194h-64zM184 318l11 -238h88c121 0 210 82 210 238c-1 129 -69 204 -205 204h-93zM80 0l14 318l-14 288h224c171 0 289 -99 289 -291c0 -179 -120 -315 -305 -315h-208z" />
    <glyph glyph-name="Dcroat.small" unicode="&#xe016;" horiz-adv-x="643" 
d="M336 288h-151l10 -208h88c121 0 210 82 210 238c-1 129 -69 204 -205 204h-93l-9 -170l150 10v-74zM80 0l13 288h-93v74l92 -10l-12 254h224c171 0 289 -99 289 -291c0 -179 -120 -315 -305 -315h-208z" />
    <glyph glyph-name="Egrave.small" unicode="&#xe01e;" horiz-adv-x="469" 
d="M99 869v2h124l68 -194h-66zM80 0l14 318l-14 288h327l17 -100h-4l-225 43l-10 -202l209 7l-8 -88l-202 29l11 -239l230 54h4l-16 -110h-333z" />
    <glyph glyph-name="Eacute.small" unicode="&#xe018;" horiz-adv-x="469" 
d="M280 871h124v-2l-126 -192h-66zM80 0l14 318l-14 288h327l17 -100h-4l-225 43l-10 -202l209 7l-8 -88l-202 29l11 -239l230 54h4l-16 -110h-333z" />
    <glyph glyph-name="Ecircumflex.small" unicode="&#xe01b;" horiz-adv-x="469" 
d="M148 677h-61l128 194h64l128 -194h-61l-99 96zM80 0l14 318l-14 288h327l17 -100h-4l-225 43l-10 -202l209 7l-8 -88l-202 29l11 -239l230 54h4l-16 -110h-333z" />
    <glyph glyph-name="Ecaron.small" unicode="&#xe01a;" horiz-adv-x="469" 
d="M215 677l-128 194h66l94 -85l94 85h66l-128 -194h-64zM80 0l14 318l-14 288h327l17 -100h-4l-225 43l-10 -202l209 7l-8 -88l-202 29l11 -239l230 54h4l-16 -110h-333z" />
    <glyph glyph-name="Edieresis.small" unicode="&#xe01c;" horiz-adv-x="469" 
d="M135 830c35 0 63 -21 63 -57c0 -38 -28 -61 -63 -61c-33 0 -62 23 -62 61c0 36 29 57 62 57zM353 830c35 0 63 -21 63 -57c0 -38 -28 -61 -63 -61c-33 0 -62 23 -62 61c0 36 29 57 62 57zM80 0l14 318l-14 288h327l17 -100h-4l-225 43l-10 -202l209 7l-8 -88l-202 29
l11 -239l230 54h4l-16 -110h-333z" />
    <glyph glyph-name="Emacron.small" unicode="&#xe01f;" horiz-adv-x="469" 
d="M95 717v82h297v-82h-297zM80 0l14 318l-14 288h327l17 -100h-4l-225 43l-10 -202l209 7l-8 -88l-202 29l11 -239l230 54h4l-16 -110h-333z" />
    <glyph glyph-name="Ebreve.small" unicode="&#xe019;" horiz-adv-x="469" 
d="M245 686c-94 0 -138 76 -138 150h49c0 -31 25 -60 89 -60c65 0 89 29 89 60h49c0 -74 -44 -150 -138 -150zM80 0l14 318l-14 288h327l17 -100h-4l-225 43l-10 -202l209 7l-8 -88l-202 29l11 -239l230 54h4l-16 -110h-333z" />
    <glyph glyph-name="Edotaccent.small" unicode="&#xe01d;" horiz-adv-x="469" 
d="M248 830c38 0 69 -23 69 -63c0 -42 -31 -67 -69 -67c-36 0 -68 25 -68 67c0 40 32 63 68 63zM80 0l14 318l-14 288h327l17 -100h-4l-225 43l-10 -202l209 7l-8 -88l-202 29l11 -239l230 54h4l-16 -110h-333z" />
    <glyph glyph-name="Eogonek.small" unicode="&#xe021;" horiz-adv-x="469" 
d="M474 -227c-18 -17 -54 -31 -89 -31c-80 0 -142 52 -142 131c0 57 29 98 67 127h-230l14 318l-14 288h327l17 -100h-4l-225 43l-10 -202l209 7l-8 -88l-202 29l11 -239l230 54h4l-13 -90l-3 -20h-17c-46 -46 -65 -71 -65 -115c0 -46 37 -72 81 -72c21 0 44 7 70 26h2z" />
    <glyph glyph-name="Gcircumflex.small" unicode="&#xe02a;" horiz-adv-x="624" 
d="M254 677h-61l128 194h64l128 -194h-61l-99 96zM378 614c66 0 142 -13 178 -25l17 -130h-4c-48 34 -110 63 -208 63c-99 0 -212 -60 -212 -210c0 -141 76 -241 229 -241c40 0 90 13 119 30l-43 193v5h135l-15 -246c-47 -34 -124 -63 -210 -63c-189 0 -314 120 -314 321
c0 186 120 303 328 303z" />
    <glyph glyph-name="Gbreve.small" unicode="&#xe029;" horiz-adv-x="624" 
d="M351 686c-94 0 -138 76 -138 150h49c0 -31 25 -60 89 -60c65 0 89 29 89 60h49c0 -74 -44 -150 -138 -150zM378 614c66 0 142 -13 178 -25l17 -130h-4c-48 34 -110 63 -208 63c-99 0 -212 -60 -212 -210c0 -141 76 -241 229 -241c40 0 90 13 119 30l-43 193v5h135
l-15 -246c-47 -34 -124 -63 -210 -63c-189 0 -314 120 -314 321c0 186 120 303 328 303z" />
    <glyph glyph-name="Gdotaccent.small" unicode="&#xe02c;" horiz-adv-x="624" 
d="M354 830c38 0 69 -23 69 -63c0 -42 -31 -67 -69 -67c-36 0 -68 25 -68 67c0 40 32 63 68 63zM378 614c66 0 142 -13 178 -25l17 -130h-4c-48 34 -110 63 -208 63c-99 0 -212 -60 -212 -210c0 -141 76 -241 229 -241c40 0 90 13 119 30l-43 193v5h135l-15 -246
c-47 -34 -124 -63 -210 -63c-189 0 -314 120 -314 321c0 186 120 303 328 303z" />
    <glyph glyph-name="Gcommaaccent.small" unicode="&#xe02b;" horiz-adv-x="624" 
d="M378 614c66 0 142 -13 178 -25l17 -130h-4c-48 34 -110 63 -208 63c-99 0 -212 -60 -212 -210c0 -141 76 -241 229 -241c40 0 90 13 119 30l-43 193v5h135l-15 -246c-47 -34 -124 -63 -210 -63c-189 0 -314 120 -314 321c0 186 120 303 328 303zM303 -54h124l-108 -195
h-58z" />
    <glyph glyph-name="Hcircumflex.small" unicode="&#xe02f;" horiz-adv-x="677" 
d="M240 677h-61l128 194h64l128 -194h-61l-99 96zM479 0l15 279h-309l13 -279h-118l14 318l-14 288h118l-14 -260h310l-15 260h118l-13 -288l13 -318h-118z" />
    <glyph glyph-name="Hbar.small" unicode="&#xe02e;" horiz-adv-x="677" 
d="M494 346l-5 92h-300l-5 -92h310zM479 0l15 279h-309l13 -279h-118l14 318l-6 120h-75v67h72l-5 101h118l-5 -101h292l-6 101h118l-5 -101h72v-67h-75l-5 -120l13 -318h-118z" />
    <glyph glyph-name="Igrave.small" unicode="&#xe037;" horiz-adv-x="277" 
d="M-10 868v2h124l68 -194h-66zM80 0l15 318l-15 288h117l-13 -288l13 -318h-117z" />
    <glyph glyph-name="Iacute.small" unicode="&#xe032;" horiz-adv-x="277" 
d="M171 870h124v-2l-126 -192h-66zM80 0l15 318l-15 288h117l-13 -288l13 -318h-117z" />
    <glyph glyph-name="Icircumflex.small" unicode="&#xe034;" horiz-adv-x="277" 
d="M39 676h-61l128 194h64l128 -194h-61l-99 96zM80 0l15 318l-15 288h117l-13 -288l13 -318h-117z" />
    <glyph glyph-name="Itilde.small" unicode="&#xe03a;" horiz-adv-x="277" 
d="M18 700h-45c1 56 14 155 97 155c85 0 96 -89 155 -89c24 0 41 19 44 74h44c1 -53 -10 -155 -89 -155c-90 0 -111 89 -159 89c-28 0 -42 -22 -47 -74zM80 0l15 318l-15 288h117l-13 -288l13 -318h-117z" />
    <glyph glyph-name="Idieresis.small" unicode="&#xe035;" horiz-adv-x="277" 
d="M26 829c35 0 63 -21 63 -57c0 -38 -28 -61 -63 -61c-33 0 -62 23 -62 61c0 36 29 57 62 57zM244 829c35 0 63 -21 63 -57c0 -38 -28 -61 -63 -61c-33 0 -62 23 -62 61c0 36 29 57 62 57zM80 0l15 318l-15 288h117l-13 -288l13 -318h-117z" />
    <glyph glyph-name="Imacron.small" unicode="&#xe038;" horiz-adv-x="277" 
d="M-14 716v82h297v-82h-297zM80 0l15 318l-15 288h117l-13 -288l13 -318h-117z" />
    <glyph glyph-name="Ibreve.small" unicode="&#xe033;" horiz-adv-x="277" 
d="M136 685c-94 0 -138 76 -138 150h49c0 -31 25 -60 89 -60c65 0 89 29 89 60h49c0 -74 -44 -150 -138 -150zM80 0l15 318l-15 288h117l-13 -288l13 -318h-117z" />
    <glyph glyph-name="Idotaccent.small" unicode="&#xe036;" horiz-adv-x="277" 
d="M139 829c38 0 69 -23 69 -63c0 -42 -31 -67 -69 -67c-36 0 -68 25 -68 67c0 40 32 63 68 63zM80 0l15 318l-15 288h117l-13 -288l13 -318h-117z" />
    <glyph glyph-name="Iogonek.small" unicode="&#xe039;" horiz-adv-x="277" 
d="M242 -227c-18 -17 -54 -31 -89 -31c-80 0 -142 52 -142 131c0 58 31 99 69 129l15 316l-15 288h117l-13 -288l13 -318h-33c-46 -46 -65 -71 -65 -115c0 -46 37 -72 81 -72c21 0 44 7 70 26h2z" />
    <glyph glyph-name="IJ.small" unicode="&#xe031;" horiz-adv-x="652" 
d="M80 0l15 318l-15 288h117l-13 -288l13 -318h-117zM284 110c43 -17 84 -31 122 -31c59 0 79 47 73 162l-20 365h118l-9 -434c-2 -112 -47 -180 -158 -180c-32 0 -71 6 -102 15l-28 103h4z" />
    <glyph glyph-name="Jcircumflex.small" unicode="&#xe03c;" horiz-adv-x="392" 
d="M159 676h-61l128 194h64l128 -194h-61l-99 96zM24 110c43 -17 84 -31 122 -31c59 0 79 47 73 162l-20 365h118l-9 -434c-2 -112 -47 -180 -158 -180c-32 0 -71 6 -102 15l-28 103h4z" />
    <glyph glyph-name="Kcommaaccent.small" unicode="&#xe03e;" horiz-adv-x="583" 
d="M573 0h-137l-216 320v31l156 255h135v-4l-208 -253l270 -345v-4zM80 0l14 318l-14 288h119l-15 -288l15 -318h-119zM243 -54h124l-108 -195h-58z" />
    <glyph glyph-name="Lacute.small" unicode="&#xe040;" horiz-adv-x="465" 
d="M172 870h124v-2l-126 -192h-66zM80 0l14 318l-14 288h117l-17 -546l251 58h4l-16 -118h-339z" />
    <glyph glyph-name="Lcaron.small" unicode="&#xe041;" horiz-adv-x="465" 
d="M310 606h110l-73 -184h-58zM80 0l14 318l-14 288h117l-17 -546l251 58h4l-16 -118h-339z" />
    <glyph glyph-name="Lcommaaccent.small" unicode="&#xe042;" horiz-adv-x="465" 
d="M80 0l14 318l-14 288h117l-17 -546l251 58h4l-16 -118h-339zM200 -54h124l-108 -195h-58z" />
    <glyph glyph-name="Lslash.small" unicode="&#xe044;" horiz-adv-x="465" 
d="M80 0l8 182l-92 -65v88l96 68l2 45l-14 288h117l-8 -264l151 107v-88l-154 -109l-6 -192l251 58h4l-16 -118h-339z" />
    <glyph glyph-name="Ldot.small" unicode="&#xe043;" horiz-adv-x="465" 
d="M352 385c38 0 69 -23 69 -63c0 -42 -31 -67 -69 -67c-36 0 -68 25 -68 67c0 40 32 63 68 63zM80 0l14 318l-14 288h117l-17 -546l251 58h4l-16 -118h-339z" />
    <glyph glyph-name="Nacute.small" unicode="&#xe047;" horiz-adv-x="648" 
d="M353 870h124v-2l-126 -192h-66zM526 0l-369 425l24 -425h-111l19 606h25l371 -428l-18 428h111l-27 -606h-25z" />
    <glyph glyph-name="Ncaron.small" unicode="&#xe048;" horiz-adv-x="648" 
d="M288 676l-128 194h66l94 -85l94 85h66l-128 -194h-64zM526 0l-369 425l24 -425h-111l19 606h25l371 -428l-18 428h111l-27 -606h-25z" />
    <glyph glyph-name="Ntilde.small" unicode="&#xe04a;" horiz-adv-x="648" 
d="M200 700h-45c1 56 14 155 97 155c85 0 96 -89 155 -89c24 0 41 19 44 74h44c1 -53 -10 -155 -89 -155c-90 0 -111 89 -159 89c-28 0 -42 -22 -47 -74zM526 0l-369 425l24 -425h-111l19 606h25l371 -428l-18 428h111l-27 -606h-25z" />
    <glyph glyph-name="Ncommaaccent.small" unicode="&#xe049;" horiz-adv-x="648" 
d="M526 0l-369 425l24 -425h-111l19 606h25l371 -428l-18 428h111l-27 -606h-25zM265 -54h124l-108 -195h-58z" />
    <glyph glyph-name="Ograve.small" unicode="&#xe051;" horiz-adv-x="694" 
d="M199 868v2h124l68 -194h-66zM347 -10c-180 0 -297 141 -297 316c0 190 128 308 297 308c168 0 297 -118 297 -308c0 -171 -117 -316 -297 -316zM347 71c112 0 198 90 198 235c-1 131 -79 217 -198 216c-118 1 -198 -86 -198 -215c0 -146 86 -236 198 -236z" />
    <glyph glyph-name="Oacute.small" unicode="&#xe04d;" horiz-adv-x="694" 
d="M380 870h124v-2l-126 -192h-66zM347 -10c-180 0 -297 141 -297 316c0 190 128 308 297 308c168 0 297 -118 297 -308c0 -171 -117 -316 -297 -316zM347 71c112 0 198 90 198 235c-1 131 -79 217 -198 216c-118 1 -198 -86 -198 -215c0 -146 86 -236 198 -236z" />
    <glyph glyph-name="Ocircumflex.small" unicode="&#xe04f;" horiz-adv-x="694" 
d="M248 676h-61l128 194h64l128 -194h-61l-99 96zM347 -10c-180 0 -297 141 -297 316c0 190 128 308 297 308c168 0 297 -118 297 -308c0 -171 -117 -316 -297 -316zM347 71c112 0 198 90 198 235c-1 131 -79 217 -198 216c-118 1 -198 -86 -198 -215
c0 -146 86 -236 198 -236z" />
    <glyph glyph-name="Otilde.small" unicode="&#xe056;" horiz-adv-x="694" 
d="M227 700h-45c1 56 14 155 97 155c85 0 96 -89 155 -89c24 0 41 19 44 74h44c1 -53 -10 -155 -89 -155c-90 0 -111 89 -159 89c-28 0 -42 -22 -47 -74zM347 -10c-180 0 -297 141 -297 316c0 190 128 308 297 308c168 0 297 -118 297 -308c0 -171 -117 -316 -297 -316z
M347 71c112 0 198 90 198 235c-1 131 -79 217 -198 216c-118 1 -198 -86 -198 -215c0 -146 86 -236 198 -236z" />
    <glyph glyph-name="Odieresis.small" unicode="&#xe050;" horiz-adv-x="694" 
d="M235 829c35 0 63 -21 63 -57c0 -38 -28 -61 -63 -61c-33 0 -62 23 -62 61c0 36 29 57 62 57zM453 829c35 0 63 -21 63 -57c0 -38 -28 -61 -63 -61c-33 0 -62 23 -62 61c0 36 29 57 62 57zM347 -10c-180 0 -297 141 -297 316c0 190 128 308 297 308
c168 0 297 -118 297 -308c0 -171 -117 -316 -297 -316zM347 71c112 0 198 90 198 235c-1 131 -79 217 -198 216c-118 1 -198 -86 -198 -215c0 -146 86 -236 198 -236z" />
    <glyph glyph-name="Omacron.small" unicode="&#xe053;" horiz-adv-x="694" 
d="M195 716v82h297v-82h-297zM347 -10c-180 0 -297 141 -297 316c0 190 128 308 297 308c168 0 297 -118 297 -308c0 -171 -117 -316 -297 -316zM347 71c112 0 198 90 198 235c-1 131 -79 217 -198 216c-118 1 -198 -86 -198 -215c0 -146 86 -236 198 -236z" />
    <glyph glyph-name="Obreve.small" unicode="&#xe04e;" horiz-adv-x="694" 
d="M345 685c-94 0 -138 76 -138 150h49c0 -31 25 -60 89 -60c65 0 89 29 89 60h49c0 -74 -44 -150 -138 -150zM347 -10c-180 0 -297 141 -297 316c0 190 128 308 297 308c168 0 297 -118 297 -308c0 -171 -117 -316 -297 -316zM347 71c112 0 198 90 198 235
c-1 131 -79 217 -198 216c-118 1 -198 -86 -198 -215c0 -146 86 -236 198 -236z" />
    <glyph glyph-name="Ohungarumlaut.small" unicode="&#xe052;" horiz-adv-x="694" 
d="M272 880h111v-2l-95 -192h-54zM447 880h114v-2l-102 -192h-58zM347 -10c-180 0 -297 141 -297 316c0 190 128 308 297 308c168 0 297 -118 297 -308c0 -171 -117 -316 -297 -316zM347 71c112 0 198 90 198 235c-1 131 -79 217 -198 216c-118 1 -198 -86 -198 -215
c0 -146 86 -236 198 -236z" />
    <glyph glyph-name="Oslash.small" unicode="&#xe054;" horiz-adv-x="694" 
d="M347 -10c-65 0 -122 19 -168 51l-34 -41h-97l75 91c-47 56 -73 132 -73 215c0 190 128 308 297 308c63 0 121 -17 169 -48l33 40h97l-74 -89c45 -53 72 -124 72 -211c0 -171 -117 -316 -297 -316zM149 307c0 -56 13 -105 35 -142l271 328c-30 19 -66 29 -108 29
c-118 1 -198 -86 -198 -215zM347 71c112 0 198 90 198 235c0 53 -13 98 -36 134l-275 -332c32 -24 71 -37 113 -37z" />
    <glyph glyph-name="Oslashacute.small" unicode="&#xe055;" horiz-adv-x="694" 
d="M379 870h124v-2l-126 -192h-66zM347 -10c-65 0 -122 19 -168 51l-34 -41h-97l75 91c-47 56 -73 132 -73 215c0 190 128 308 297 308c63 0 121 -17 169 -48l33 40h97l-74 -89c45 -53 72 -124 72 -211c0 -171 -117 -316 -297 -316zM149 307c0 -56 13 -105 35 -142l271 328
c-30 19 -66 29 -108 29c-118 1 -198 -86 -198 -215zM347 71c112 0 198 90 198 235c0 53 -13 98 -36 134l-275 -332c32 -24 71 -37 113 -37z" />
    <glyph glyph-name="OE.small" unicode="&#xe04c;" horiz-adv-x="811" 
d="M436 318l-11 204h-70c-121 0 -204 -75 -205 -206c0 -154 83 -236 214 -236h61zM353 0c-194 0 -303 132 -303 315c0 192 129 291 299 291h400l16 -100h-4l-224 42l-10 -201l208 7l-8 -88l-201 29l11 -239l230 54h4l-17 -110h-401z" />
    <glyph glyph-name="Racute.small" unicode="&#xe05a;" horiz-adv-x="531" 
d="M279 870h124v-2l-126 -192h-66zM185 318l14 -318h-119l15 318l-15 288h179c123 0 190 -63 190 -152c0 -73 -38 -133 -128 -158l200 -292v-4h-135l-142 283v46c66 9 107 41 107 103c0 52 -38 90 -114 90h-42z" />
    <glyph glyph-name="Rcaron.small" unicode="&#xe05b;" horiz-adv-x="531" 
d="M214 676l-128 194h66l94 -85l94 85h66l-128 -194h-64zM185 318l14 -318h-119l15 318l-15 288h179c123 0 190 -63 190 -152c0 -73 -38 -133 -128 -158l200 -292v-4h-135l-142 283v46c66 9 107 41 107 103c0 52 -38 90 -114 90h-42z" />
    <glyph glyph-name="Rcommaaccent.small" unicode="&#xe05c;" horiz-adv-x="531" 
d="M185 318l14 -318h-119l15 318l-15 288h179c123 0 190 -63 190 -152c0 -73 -38 -133 -128 -158l200 -292v-4h-135l-142 283v46c66 9 107 41 107 103c0 52 -38 90 -114 90h-42zM219 -54h124l-108 -195h-58z" />
    <glyph glyph-name="germandbls.small" unicode="&#xe0d2;" horiz-adv-x="576" 
d="M380 -10c-38 0 -73 9 -106 22l-18 109h2c34 -30 74 -50 116 -50c45 0 63 29 63 61s-19 57 -50 92l-95 105l85 194h-184l-9 -205l13 -318h-117l15 318l-15 288h456v-2l-141 -247l72 -79c38 -42 69 -87 69 -141c0 -90 -65 -147 -156 -147z" />
    <glyph glyph-name="Sacute.small" unicode="&#xe05e;" horiz-adv-x="451" 
d="M262 870h124v-2l-126 -192h-66zM152 296c-79 52 -102 109 -102 160c0 88 63 158 184 158c54 0 112 -8 144 -16l17 -123h-5c-53 39 -100 61 -154 61c-50 0 -83 -23 -83 -67c0 -34 17 -60 69 -96l58 -40c74 -51 121 -97 121 -175s-51 -168 -187 -168c-48 0 -112 11 -152 24
l-17 124h5c72 -48 117 -75 169 -75c56 0 81 36 81 79c0 42 -22 71 -75 106z" />
    <glyph glyph-name="Scircumflex.small" unicode="&#xe063;" horiz-adv-x="451" 
d="M130 676h-61l128 194h64l128 -194h-61l-99 96zM152 296c-79 52 -102 109 -102 160c0 88 63 158 184 158c54 0 112 -8 144 -16l17 -123h-5c-53 39 -100 61 -154 61c-50 0 -83 -23 -83 -67c0 -34 17 -60 69 -96l58 -40c74 -51 121 -97 121 -175s-51 -168 -187 -168
c-48 0 -112 11 -152 24l-17 124h5c72 -48 117 -75 169 -75c56 0 81 36 81 79c0 42 -22 71 -75 106z" />
    <glyph glyph-name="Scaron.small" unicode="&#xe05f;" horiz-adv-x="451" 
d="M197 676l-128 194h66l94 -85l94 85h66l-128 -194h-64zM152 296c-79 52 -102 109 -102 160c0 88 63 158 184 158c54 0 112 -8 144 -16l17 -123h-5c-53 39 -100 61 -154 61c-50 0 -83 -23 -83 -67c0 -34 17 -60 69 -96l58 -40c74 -51 121 -97 121 -175s-51 -168 -187 -168
c-48 0 -112 11 -152 24l-17 124h5c72 -48 117 -75 169 -75c56 0 81 36 81 79c0 42 -22 71 -75 106z" />
    <glyph glyph-name="Scedilla.small" unicode="&#xe060;" horiz-adv-x="451" 
d="M199 -268c-48 0 -92 21 -113 42l-10 66h2c29 -18 63 -37 101 -37c43 0 66 23 66 56c0 32 -24 47 -79 78v56c-37 4 -76 12 -104 21l-17 124h5c72 -48 117 -75 169 -75c56 0 81 36 81 79c0 42 -22 71 -75 106l-73 48c-79 52 -102 109 -102 160c0 88 63 158 184 158
c54 0 112 -8 144 -16l17 -123h-5c-53 39 -100 61 -154 61c-50 0 -83 -23 -83 -67c0 -34 17 -60 69 -96l58 -40c74 -51 121 -97 121 -175c0 -72 -43 -154 -156 -166v-26c63 -27 89 -67 89 -113c0 -67 -55 -121 -135 -121z" />
    <glyph glyph-name="Scommaaccent.small" unicode="&#xe064;" horiz-adv-x="451" 
d="M152 296c-79 52 -102 109 -102 160c0 88 63 158 184 158c54 0 112 -8 144 -16l17 -123h-5c-53 39 -100 61 -154 61c-50 0 -83 -23 -83 -67c0 -34 17 -60 69 -96l58 -40c74 -51 121 -97 121 -175s-51 -168 -187 -168c-48 0 -112 11 -152 24l-17 124h5
c72 -48 117 -75 169 -75c56 0 81 36 81 79c0 42 -22 71 -75 106zM152 -54h124l-108 -195h-58z" />
    <glyph glyph-name="Tcaron.small" unicode="&#xe067;" horiz-adv-x="551" 
d="M244 676l-128 194h66l94 -85l94 85h66l-128 -194h-64zM537 492l-223 47l20 -539h-119l21 539l-222 -47h-4l17 114h497l17 -114h-4z" />
    <glyph glyph-name="Tcommaaccent.small" unicode="&#xe068;" horiz-adv-x="551" 
d="M537 492l-223 47l20 -539h-119l21 539l-222 -47h-4l17 114h497l17 -114h-4zM210 -54h124l-108 -195h-58z" />
    <glyph glyph-name="Tbar.small" unicode="&#xe066;" horiz-adv-x="551" 
d="M499 229l-175 32l10 -261h-119l10 255l-146 -26h-4l15 97h138l8 213l-222 -47h-4l17 114h497l17 -114h-4l-223 47l8 -213h167l14 -97h-4z" />
    <glyph glyph-name="Ugrave.small" unicode="&#xe06f;" horiz-adv-x="654" 
d="M180 868v2h124l68 -194h-66zM328 73c91 0 153 61 153 189l-19 344h117l-10 -344c0 -161 -81 -270 -241 -270c-161 0 -242 108 -242 270l-11 344h118l-19 -344c0 -129 64 -189 154 -189z" />
    <glyph glyph-name="Uacute.small" unicode="&#xe06b;" horiz-adv-x="654" 
d="M361 870h124v-2l-126 -192h-66zM328 73c91 0 153 61 153 189l-19 344h117l-10 -344c0 -161 -81 -270 -241 -270c-161 0 -242 108 -242 270l-11 344h118l-19 -344c0 -129 64 -189 154 -189z" />
    <glyph glyph-name="Ucircumflex.small" unicode="&#xe06d;" horiz-adv-x="654" 
d="M229 676h-61l128 194h64l128 -194h-61l-99 96zM328 73c91 0 153 61 153 189l-19 344h117l-10 -344c0 -161 -81 -270 -241 -270c-161 0 -242 108 -242 270l-11 344h118l-19 -344c0 -129 64 -189 154 -189z" />
    <glyph glyph-name="Utilde.small" unicode="&#xe074;" horiz-adv-x="654" 
d="M208 700h-45c1 56 14 155 97 155c85 0 96 -89 155 -89c24 0 41 19 44 74h44c1 -53 -10 -155 -89 -155c-90 0 -111 89 -159 89c-28 0 -42 -22 -47 -74zM328 73c91 0 153 61 153 189l-19 344h117l-10 -344c0 -161 -81 -270 -241 -270c-161 0 -242 108 -242 270l-11 344h118
l-19 -344c0 -129 64 -189 154 -189z" />
    <glyph glyph-name="Udieresis.small" unicode="&#xe06e;" horiz-adv-x="654" 
d="M216 829c35 0 63 -21 63 -57c0 -38 -28 -61 -63 -61c-33 0 -62 23 -62 61c0 36 29 57 62 57zM434 829c35 0 63 -21 63 -57c0 -38 -28 -61 -63 -61c-33 0 -62 23 -62 61c0 36 29 57 62 57zM328 73c91 0 153 61 153 189l-19 344h117l-10 -344c0 -161 -81 -270 -241 -270
c-161 0 -242 108 -242 270l-11 344h118l-19 -344c0 -129 64 -189 154 -189z" />
    <glyph glyph-name="Umacron.small" unicode="&#xe071;" horiz-adv-x="654" 
d="M176 716v82h297v-82h-297zM328 73c91 0 153 61 153 189l-19 344h117l-10 -344c0 -161 -81 -270 -241 -270c-161 0 -242 108 -242 270l-11 344h118l-19 -344c0 -129 64 -189 154 -189z" />
    <glyph glyph-name="Ubreve.small" unicode="&#xe06c;" horiz-adv-x="654" 
d="M326 685c-94 0 -138 76 -138 150h49c0 -31 25 -60 89 -60c65 0 89 29 89 60h49c0 -74 -44 -150 -138 -150zM328 73c91 0 153 61 153 189l-19 344h117l-10 -344c0 -161 -81 -270 -241 -270c-161 0 -242 108 -242 270l-11 344h118l-19 -344c0 -129 64 -189 154 -189z" />
    <glyph glyph-name="Uring.small" unicode="&#xe073;" horiz-adv-x="654" 
d="M328 683c-78 0 -121 50 -121 104c0 64 54 103 121 103s122 -39 122 -103c0 -54 -45 -104 -122 -104zM328 731c37 0 60 23 60 51c0 34 -26 54 -60 54c-33 0 -60 -20 -60 -54c0 -28 24 -51 60 -51zM328 73c91 0 153 61 153 189l-19 344h117l-10 -344
c0 -161 -81 -270 -241 -270c-161 0 -242 108 -242 270l-11 344h118l-19 -344c0 -129 64 -189 154 -189z" />
    <glyph glyph-name="Uhungarumlaut.small" unicode="&#xe070;" horiz-adv-x="654" 
d="M253 880h111v-2l-95 -192h-54zM428 880h114v-2l-102 -192h-58zM328 73c91 0 153 61 153 189l-19 344h117l-10 -344c0 -161 -81 -270 -241 -270c-161 0 -242 108 -242 270l-11 344h118l-19 -344c0 -129 64 -189 154 -189z" />
    <glyph glyph-name="Uogonek.small" unicode="&#xe072;" horiz-adv-x="654" 
d="M370 -258c-80 0 -142 52 -142 131c0 53 26 92 60 121c-134 17 -202 120 -202 268l-11 344h118l-19 -344c0 -129 64 -189 154 -189c91 0 153 61 153 189l-19 344h117l-10 -344c0 -144 -65 -246 -193 -266c-43 -43 -60 -68 -60 -111c0 -46 37 -72 81 -72c21 0 44 7 70 26h2
l-10 -66c-18 -17 -54 -31 -89 -31z" />
    <glyph glyph-name="Wgrave.small" unicode="&#xe07a;" horiz-adv-x="804" 
d="M249 868v2h124l68 -194h-66zM517 -15l-121 381l-133 -381h-40l-218 617v4h121l126 -453l126 453h38l130 -468l133 468h120v-4l-242 -617h-40z" />
    <glyph glyph-name="Wacute.small" unicode="&#xe077;" horiz-adv-x="804" 
d="M430 870h124v-2l-126 -192h-66zM517 -15l-121 381l-133 -381h-40l-218 617v4h121l126 -453l126 453h38l130 -468l133 468h120v-4l-242 -617h-40z" />
    <glyph glyph-name="Wcircumflex.small" unicode="&#xe078;" horiz-adv-x="804" 
d="M298 676h-61l128 194h64l128 -194h-61l-99 96zM517 -15l-121 381l-133 -381h-40l-218 617v4h121l126 -453l126 453h38l130 -468l133 468h120v-4l-242 -617h-40z" />
    <glyph glyph-name="Wdieresis.small" unicode="&#xe079;" horiz-adv-x="804" 
d="M285 829c35 0 63 -21 63 -57c0 -38 -28 -61 -63 -61c-33 0 -62 23 -62 61c0 36 29 57 62 57zM503 829c35 0 63 -21 63 -57c0 -38 -28 -61 -63 -61c-33 0 -62 23 -62 61c0 36 29 57 62 57zM517 -15l-121 381l-133 -381h-40l-218 617v4h121l126 -453l126 453h38l130 -468
l133 468h120v-4l-242 -617h-40z" />
    <glyph glyph-name="Ygrave.small" unicode="&#xe080;" horiz-adv-x="529" 
d="M116 868v2h124l68 -194h-66zM324 0h-120l15 279l-214 323v4h130l138 -275l129 275h122v-4l-215 -321z" />
    <glyph glyph-name="Yacute.small" unicode="&#xe07d;" horiz-adv-x="529" 
d="M297 870h124v-2l-126 -192h-66zM324 0h-120l15 279l-214 323v4h130l138 -275l129 275h122v-4l-215 -321z" />
    <glyph glyph-name="Ycircumflex.small" unicode="&#xe07e;" horiz-adv-x="529" 
d="M165 676h-61l128 194h64l128 -194h-61l-99 96zM324 0h-120l15 279l-214 323v4h130l138 -275l129 275h122v-4l-215 -321z" />
    <glyph glyph-name="Ydieresis.small" unicode="&#xe07f;" horiz-adv-x="529" 
d="M152 829c35 0 63 -21 63 -57c0 -38 -28 -61 -63 -61c-33 0 -62 23 -62 61c0 36 29 57 62 57zM370 829c35 0 63 -21 63 -57c0 -38 -28 -61 -63 -61c-33 0 -62 23 -62 61c0 36 29 57 62 57zM324 0h-120l15 279l-214 323v4h130l138 -275l129 275h122v-4l-215 -321z" />
    <glyph glyph-name="Zacute.small" unicode="&#xe082;" horiz-adv-x="542" 
d="M310 870h124v-2l-126 -192h-66zM482 0h-442v11l316 531l-293 -45h-4l16 109h419v-11l-317 -532l320 46h5z" />
    <glyph glyph-name="Zcaron.small" unicode="&#xe083;" horiz-adv-x="542" 
d="M245 676l-128 194h66l94 -85l94 85h66l-128 -194h-64zM482 0h-442v11l316 531l-293 -45h-4l16 109h419v-11l-317 -532l320 46h5z" />
    <glyph glyph-name="Zdotaccent.small" unicode="&#xe084;" horiz-adv-x="542" 
d="M278 829c38 0 69 -23 69 -63c0 -42 -31 -67 -69 -67c-36 0 -68 25 -68 67c0 40 32 63 68 63zM482 0h-442v11l316 531l-293 -45h-4l16 109h419v-11l-317 -532l320 46h5z" />
    <glyph glyph-name="Schwa.small" unicode="&#xe062;" horiz-adv-x="694" 
d="M97 505c67 71 148 109 249 109c202 0 298 -137 298 -296c0 -216 -138 -328 -291 -328c-216 0 -307 162 -303 339h494c-11 114 -63 194 -212 194c-96 0 -171 -37 -243 -88h-2zM543 259l-387 -25c18 -81 74 -163 193 -163c93 0 178 64 194 188z" />
    <glyph glyph-name="Eng.small" unicode="&#xe020;" horiz-adv-x="648" 
d="M431 -250l-50 77v2c72 0 91 30 92 111l2 119l-318 366l24 -425h-111l19 606h25l363 -418l2 140l-12 278h111l-11 -245l5 -407c1 -106 -13 -182 -141 -204z" />
    <glyph glyph-name="Eth.small" unicode="&#xe022;" horiz-adv-x="643" 
d="M336 288h-151l10 -208h88c121 0 210 82 210 238c-1 129 -69 204 -205 204h-93l-9 -170l150 10v-74zM80 0l13 288h-93v74l92 -10l-12 254h224c171 0 289 -99 289 -291c0 -179 -120 -315 -305 -315h-208z" />
    <glyph glyph-name="Thorn.small" unicode="&#xe069;" horiz-adv-x="501" 
d="M185 318l13 -318h-118l15 318l-15 288h118l-5 -106h67c136 0 211 -73 211 -170c0 -111 -67 -195 -226 -200v58c77 3 128 40 128 120c0 66 -40 108 -142 108h-42z" />
    <glyph glyph-name="a.superior" unicode="&#xe085;" horiz-adv-x="376" 
d="M171 426c23 0 44 11 65 27l1 40c-18 11 -41 18 -59 18c-32 0 -54 -14 -54 -44c0 -23 17 -41 47 -41zM234 372l1 33c-28 -20 -63 -40 -97 -40c-66 0 -103 45 -103 99c0 87 81 109 158 109c12 0 31 -1 46 -2v5c2 58 -33 69 -71 69c-36 0 -75 -15 -108 -30h-5l13 98
c32 4 80 9 118 9c86 0 136 -50 138 -127l7 -223h-97z" />
    <glyph glyph-name="b.superior" unicode="&#xe08e;" horiz-adv-x="411" 
d="M207 365c-54 0 -116 20 -154 46l9 253l-12 234h102l-11 -231c32 27 69 55 111 55c91 0 129 -89 129 -169c0 -74 -37 -188 -174 -188zM211 431c51 0 80 47 80 116c-1 56 -31 88 -86 88c-20 0 -40 -4 -62 -15l6 -166c17 -15 36 -23 62 -23z" />
    <glyph glyph-name="c.superior" unicode="&#xe098;" horiz-adv-x="342" 
d="M212 722c38 0 68 -8 86 -15l14 -98h-6c-31 20 -60 29 -95 29c-49 0 -91 -33 -91 -96c0 -69 38 -111 97 -111c35 0 65 13 85 25h5l-6 -50c-20 -23 -59 -41 -101 -41c-96 0 -170 66 -170 183c0 114 86 174 182 174z" />
    <glyph glyph-name="d.superior" unicode="&#xe0a6;" horiz-adv-x="416" 
d="M212 431c20 0 38 6 56 16l6 174c-19 12 -42 17 -65 17c-58 0 -90 -44 -90 -101c1 -68 33 -106 93 -106zM267 372v28c-24 -19 -51 -35 -83 -35c-104 0 -154 86 -154 177c0 90 53 180 178 180c23 0 46 -4 66 -12l-9 188h101l-11 -236l11 -290h-99z" />
    <glyph glyph-name="e.superior" unicode="&#xe0ae;" horiz-adv-x="376" 
d="M321 408c-21 -22 -64 -43 -118 -43c-118 0 -173 84 -173 179c0 117 76 178 160 178c112 0 163 -79 149 -209h-218c7 -59 46 -82 103 -82c38 0 67 12 99 28h5zM120 553l141 25c-1 45 -29 66 -69 66c-35 0 -72 -24 -72 -91z" />
    <glyph glyph-name="f.superior" unicode="&#xe0b8;" horiz-adv-x="276" 
d="M256 657h-95l8 -285h-101l9 285h-57v59l57 -7l-2 47c-3 79 26 142 124 142c16 0 35 -1 53 -4l14 -89h-5c-13 7 -33 13 -48 13c-47 0 -53 -34 -53 -86v-24l96 8v-59z" />
    <glyph glyph-name="g.superior" unicode="&#xe0d0;" horiz-adv-x="405" 
d="M212 431c22 0 40 7 60 18l4 171c-19 12 -43 18 -67 18c-58 0 -90 -44 -90 -101c1 -68 33 -106 93 -106zM185 194c-34 0 -75 8 -106 18l-23 92h6c44 -21 91 -38 122 -38c55 0 84 28 86 92l1 44c-25 -20 -54 -37 -87 -37c-104 0 -154 86 -154 177c0 90 53 180 178 180
c26 0 50 -5 72 -14l70 6h6l-1 -88l5 -233c1 -63 -6 -199 -175 -199z" />
    <glyph glyph-name="h.superior" unicode="&#xe0d8;" horiz-adv-x="407" 
d="M201 636c-19 1 -40 -6 -58 -16l9 -248h-102l12 290l-12 236h102l-11 -232c35 30 75 56 113 55c65 1 99 -49 101 -127l7 -222h-102l9 185c4 66 -28 80 -68 79z" />
    <glyph glyph-name="i.superior" unicode="&#xe0db;" horiz-adv-x="200" 
d="M99 863c30 0 54 -18 54 -49s-24 -50 -54 -50c-29 0 -54 19 -54 50s25 49 54 49zM50 714h94l11 -342h-102l13 247l-16 89v6z" />
    <glyph glyph-name="j.superior" unicode="&#xe0dd;" horiz-adv-x="209" 
d="M106 863c30 0 54 -18 54 -49s-24 -50 -54 -50c-29 0 -54 19 -54 50s25 49 54 49zM56 714h97l8 -349c2 -84 -14 -151 -122 -164l-39 67v5c54 0 68 23 70 86l4 260l-18 89v6z" />
    <glyph glyph-name="k.superior" unicode="&#xe0de;" horiz-adv-x="389" 
d="M50 372l12 198l-11 328h102l-12 -326l11 -200h-102zM384 372h-111l-130 200l115 142h112v-6l-142 -137l156 -194v-5z" />
    <glyph glyph-name="l.superior" unicode="&#xe0df;" horiz-adv-x="202" 
d="M50 372l12 290l-12 236h102l-11 -236l11 -290h-102z" />
    <glyph glyph-name="m.superior" unicode="&#xe0e1;" horiz-adv-x="591" 
d="M188 636c-15 0 -31 -5 -46 -13l7 -251h-101l13 247l-16 89v6h94l1 -45c34 28 69 53 104 53c42 0 70 -23 85 -61c37 31 75 61 113 61c63 0 95 -51 97 -128l7 -222h-102l10 185c3 65 -27 80 -68 79c-16 1 -32 -5 -47 -13c1 -9 2 -19 2 -29l7 -222h-102l10 185
c3 65 -27 80 -68 79z" />
    <glyph glyph-name="n.superior" unicode="&#x207f;" horiz-adv-x="407" 
d="M202 636c-20 1 -41 -7 -60 -16l7 -248h-102l13 247l-15 89v6h94l1 -49c36 31 77 57 115 57c65 0 98 -50 100 -128l7 -222h-101l9 185c3 66 -28 80 -68 79z" />
    <glyph glyph-name="o.superior" unicode="&#xe0ef;" horiz-adv-x="406" 
d="M203 722c111 0 173 -79 173 -174c0 -100 -61 -183 -173 -183s-173 83 -173 183c0 95 62 174 173 174zM203 431c57 0 83 51 83 116c0 49 -29 91 -83 91s-83 -42 -83 -91c0 -64 26 -116 83 -116z" />
    <glyph glyph-name="p.superior" unicode="&#xe0f6;" horiz-adv-x="414" 
d="M213 431c53 0 82 47 82 116c-1 56 -32 88 -87 88c-19 0 -40 -4 -62 -15l5 -168c17 -13 37 -21 62 -21zM207 365c-18 0 -36 3 -54 7l5 -171h-100l8 425l-16 82v6h94l1 -47c32 27 69 55 111 55c91 0 128 -89 128 -169c0 -73 -34 -188 -177 -188z" />
    <glyph glyph-name="q.superior" unicode="&#xe0fc;" horiz-adv-x="415" 
d="M365 201h-100l5 200c-24 -19 -53 -36 -86 -36c-104 0 -154 86 -154 177c0 90 52 180 178 180c26 0 50 -5 72 -15l70 7h6l-1 -84zM212 431c22 0 40 7 59 18l5 171c-20 12 -43 18 -67 18c-60 0 -90 -44 -90 -101c1 -68 33 -106 93 -106z" />
    <glyph glyph-name="r.superior" unicode="&#xe0fe;" horiz-adv-x="305" 
d="M209 635c-20 0 -45 -7 -67 -17l7 -246h-101l12 247l-15 89v6h94l1 -50l5 4c28 24 62 54 98 54c12 0 23 -3 29 -6l13 -96h-5c-20 8 -45 15 -71 15z" />
    <glyph glyph-name="s.superior" unicode="&#xe100;" horiz-adv-x="347" 
d="M176 640c-26 0 -39 -9 -39 -25c0 -17 14 -27 52 -44l39 -19c45 -21 69 -46 69 -87c0 -51 -38 -100 -123 -100c-50 0 -87 11 -113 25l-13 82h5c35 -22 78 -45 119 -45c23 0 35 13 35 31c0 19 -14 30 -40 42l-42 18c-62 28 -80 62 -80 99c0 66 50 105 128 105
c26 0 74 -6 106 -17l13 -96h-5c-42 23 -80 31 -111 31z" />
    <glyph glyph-name="t.superior" unicode="&#xe112;" horiz-adv-x="302" 
d="M143 797h12l1 -89l101 14v-81l-102 8v-151c0 -51 29 -67 56 -67c15 0 30 4 40 10h5l-6 -44c-15 -17 -43 -32 -76 -32c-62 0 -107 37 -105 115l5 176l-54 4v12z" />
    <glyph glyph-name="u.superior" unicode="&#xe120;" horiz-adv-x="410" 
d="M271 372c0 0 -1 18 -1 45c-35 -28 -74 -52 -112 -52c-63 0 -97 50 -97 127v127l-16 89v6h110l-9 -186c-3 -64 26 -79 65 -79c19 0 39 6 57 15c-3 101 -7 249 -7 250h101l-13 -248l16 -89v-5h-94z" />
    <glyph glyph-name="v.superior" unicode="&#xe122;" horiz-adv-x="378" 
d="M207 365h-50l-152 343v6h111l79 -265l71 265h107v-6z" />
    <glyph glyph-name="w.superior" unicode="&#xe123;" horiz-adv-x="513" 
d="M319 365l-66 177l-72 -177h-49l-127 343v6h109l52 -252l71 252h42l74 -258l51 258h104v-6l-140 -343h-49z" />
    <glyph glyph-name="x.superior" unicode="&#xe124;" horiz-adv-x="362" 
d="M122 372h-117v5l134 166l-121 165v6h112l62 -110l45 110h110v-6l-129 -145l139 -186v-5h-112l-75 121z" />
    <glyph glyph-name="y.superior" unicode="&#xe125;" horiz-adv-x="378" 
d="M138 201h-110v5l126 175l-149 327v6h106l84 -259l72 259h106v-6z" />
    <glyph glyph-name="z.superior" unicode="&#xe12a;" horiz-adv-x="353" 
d="M309 372h-279v5l174 293l-162 -41h-5l14 85h269v-6l-173 -292l171 42h5z" />
    <glyph glyph-name="grave" unicode="`" horiz-adv-x="500" 
d="M154 758v2h124l68 -194h-66z" />
    <glyph glyph-name="grave.cap" unicode="&#xe0d3;" horiz-adv-x="500" 
d="M153 952v2h127l68 -134h-84z" />
    <glyph glyph-name="acute" unicode="&#xb4;" horiz-adv-x="500" 
d="M222 760h124v-2l-126 -192h-66z" />
    <glyph glyph-name="acute.cap" unicode="&#xe086;" horiz-adv-x="500" 
d="M221 954h127v-2l-111 -132h-84z" />
    <glyph glyph-name="circumflex" unicode="&#x2c6;" horiz-adv-x="500" 
d="M151 566h-61l128 194h64l128 -194h-61l-99 96z" />
    <glyph glyph-name="circumflex.cap" unicode="&#xe0a3;" horiz-adv-x="500" 
d="M163 820h-93l148 144h64l148 -144h-93l-87 61z" />
    <glyph glyph-name="caron" unicode="&#x2c7;" horiz-adv-x="500" 
d="M218 566l-128 194h66l94 -85l94 85h66l-128 -194h-64z" />
    <glyph glyph-name="caron.cap" unicode="&#xe099;" horiz-adv-x="500" 
d="M218 820l-148 144h96l84 -59l84 59h96l-148 -144h-64z" />
    <glyph glyph-name="caronSlovak" unicode="&#xe09a;" horiz-adv-x="500" 
d="M206 760h110l-73 -184h-58z" />
    <glyph glyph-name="tilde" unicode="&#x2dc;" horiz-adv-x="500" 
d="M125 590h-45c1 56 14 155 97 155c85 0 96 -89 155 -89c24 0 41 19 44 74h44c1 -53 -10 -155 -89 -155c-90 0 -111 89 -159 89c-28 0 -42 -22 -47 -74z" />
    <glyph glyph-name="tilde.cap" unicode="&#xe119;" horiz-adv-x="500" 
d="M127 820h-49c1 54 15 150 106 150c77 0 92 -69 148 -69c23 0 40 19 42 69h48c1 -51 -11 -150 -98 -150c-81 0 -106 69 -152 69c-27 0 -40 -20 -45 -69z" />
    <glyph glyph-name="dieresis" unicode="&#xa8;" horiz-adv-x="500" 
d="M141 709c35 0 63 -21 63 -57c0 -38 -28 -61 -63 -61c-33 0 -62 23 -62 61c0 36 29 57 62 57zM359 709c35 0 63 -21 63 -57c0 -38 -28 -61 -63 -61c-33 0 -62 23 -62 61c0 36 29 57 62 57z" />
    <glyph glyph-name="dieresis.cap" unicode="&#xe0a7;" horiz-adv-x="500" 
d="M132 949c35 0 63 -21 63 -57c0 -38 -28 -61 -63 -61c-33 0 -62 23 -62 61c0 36 29 57 62 57zM368 949c35 0 63 -21 63 -57c0 -38 -28 -61 -63 -61c-33 0 -62 23 -62 61c0 36 29 57 62 57z" />
    <glyph glyph-name="macron" unicode="&#xaf;" horiz-adv-x="500" 
d="M102 596v82h297v-82h-297z" />
    <glyph glyph-name="macron.cap" unicode="&#xe0e2;" horiz-adv-x="500" 
d="M102 848v82h297v-82h-297z" />
    <glyph glyph-name="breve" unicode="&#x2d8;" horiz-adv-x="500" 
d="M250 565c-94 0 -138 76 -138 150h49c0 -31 25 -60 89 -60c65 0 89 29 89 60h49c0 -74 -44 -150 -138 -150z" />
    <glyph glyph-name="ring" unicode="&#x2da;" horiz-adv-x="500" 
d="M250 563c-78 0 -121 50 -121 104c0 64 54 103 121 103s122 -39 122 -103c0 -54 -45 -104 -122 -104zM250 611c37 0 60 23 60 51c0 34 -26 54 -60 54c-33 0 -60 -20 -60 -54c0 -28 24 -51 60 -51z" />
    <glyph glyph-name="breve.cap" unicode="&#xe097;" horiz-adv-x="500" 
d="M250 820c-101 0 -148 76 -148 150h49c0 -30 28 -59 99 -59c72 0 99 29 99 59h49c0 -74 -47 -150 -148 -150z" />
    <glyph glyph-name="ring.cap" unicode="&#xe0ff;" horiz-adv-x="500" 
d="M250 763c-78 0 -121 50 -121 104c0 64 54 103 121 103s122 -39 122 -103c0 -54 -45 -104 -122 -104zM250 811c37 0 60 23 60 51c0 34 -26 54 -60 54c-33 0 -60 -20 -60 -54c0 -28 24 -51 60 -51z" />
    <glyph glyph-name="hungarumlaut" unicode="&#x2dd;" horiz-adv-x="500" 
d="M125 760h111v-2l-95 -192h-54zM300 760h114v-2l-102 -192h-58z" />
    <glyph glyph-name="hungarumlaut.cap" unicode="&#xe0d9;" horiz-adv-x="500" 
d="M126 954h111v-2l-82 -132h-66zM296 954h116v-2l-93 -132h-71z" />
    <glyph glyph-name="dotaccent" unicode="&#x2d9;" horiz-adv-x="500" 
d="M250 709c38 0 69 -23 69 -63c0 -42 -31 -67 -69 -67c-36 0 -68 25 -68 67c0 40 32 63 68 63z" />
    <glyph glyph-name="dotaccent.cap" unicode="&#xe0ac;" horiz-adv-x="500" 
d="M250 949c38 0 69 -23 69 -63c0 -42 -31 -67 -69 -67c-36 0 -68 25 -68 67c0 40 32 63 68 63z" />
    <glyph glyph-name="cedilla" unicode="&#xb8;" horiz-adv-x="500" 
d="M290 -131c0 32 -24 47 -79 78v73h79v-44c63 -27 89 -67 89 -113c0 -67 -55 -121 -135 -121c-48 0 -92 21 -113 42l-10 66h2c29 -18 63 -37 101 -37c43 0 66 23 66 56z" />
    <glyph glyph-name="ogonek" unicode="&#x2db;" horiz-adv-x="500" 
d="M303 20c-61 -59 -85 -85 -85 -135c0 -46 37 -72 81 -72c21 0 44 7 70 26h2l-10 -66c-18 -17 -54 -31 -89 -31c-80 0 -142 52 -142 131c0 71 46 117 96 147h77z" />
    <glyph glyph-name="commaaccent" unicode="&#xe0a4;" horiz-adv-x="500" 
d="M209 -44h124l-108 -195h-58z" />
    <glyph glyph-name="commaaccent.alt" unicode="&#xe0a5;" horiz-adv-x="500" 
d="M290 567h-124l111 210h58z" />
    <glyph glyph-name="comma" unicode="," horiz-adv-x="297" 
d="M110 111h127l-139 -300h-53z" />
    <glyph glyph-name="semicolon" unicode=";" horiz-adv-x="317" 
d="M176 346c-34 0 -63 24 -63 61c0 41 29 63 63 63c35 0 64 -22 64 -63c0 -37 -29 -61 -64 -61zM111 111h127l-139 -300h-53z" />
    <glyph glyph-name="colon" unicode=":" horiz-adv-x="281" 
d="M140 346c-34 0 -63 24 -63 61c0 41 29 63 63 63c35 0 64 -22 64 -63c0 -37 -29 -61 -64 -61zM140 -10c-34 0 -63 24 -63 61c0 41 29 63 63 63c35 0 64 -22 64 -63c0 -37 -29 -61 -64 -61z" />
    <glyph glyph-name="period" unicode="." horiz-adv-x="281" 
d="M140 -10c-34 0 -63 24 -63 61c0 41 29 63 63 63c35 0 64 -22 64 -63c0 -37 -29 -61 -64 -61z" />
    <glyph glyph-name="ellipsis" unicode="&#x2026;" horiz-adv-x="741" 
d="M140 -10c-34 0 -63 24 -63 61c0 41 29 63 63 63c35 0 64 -22 64 -63c0 -37 -29 -61 -64 -61zM370 -10c-34 0 -63 24 -63 61c0 41 29 63 63 63c35 0 64 -22 64 -63c0 -37 -29 -61 -64 -61zM600 -10c-34 0 -63 24 -63 61c0 41 29 63 63 63c35 0 64 -22 64 -63
c0 -37 -29 -61 -64 -61z" />
    <glyph glyph-name="hyphen" unicode="-" horiz-adv-x="427" 
d="M347 234h-277l10 85h277z" />
    <glyph glyph-name="hyphen.cap" unicode="&#xe0da;" horiz-adv-x="427" 
d="M347 343h-277l10 85h277z" />
    <glyph glyph-name="exclam" unicode="!" horiz-adv-x="327" 
d="M107 750h112l-23 -527h-66zM163 -10c-34 0 -63 24 -63 61c0 41 29 63 63 63c35 0 64 -22 64 -63c0 -37 -29 -61 -64 -61z" />
    <glyph glyph-name="exclamdown" unicode="&#xa1;" horiz-adv-x="327" 
d="M164 510c34 0 63 -24 63 -61c0 -41 -29 -63 -63 -63c-35 0 -64 22 -64 63c0 37 29 61 64 61zM220 -250h-112l23 527h66z" />
    <glyph glyph-name="exclamdown.cap" unicode="&#xe0b7;" horiz-adv-x="327" 
d="M164 760c34 0 63 -24 63 -61c0 -41 -29 -63 -63 -63c-35 0 -64 22 -64 63c0 37 29 61 64 61zM220 0h-112l23 527h66z" />
    <glyph glyph-name="question" unicode="?" horiz-adv-x="521" 
d="M173 303c110 87 191 140 191 240c0 71 -54 127 -140 127c-61 0 -107 -26 -163 -70h-1l13 129c47 20 109 31 166 31c119 0 222 -74 222 -202c0 -136 -108 -234 -286 -336h-2v81zM223 -10c-34 0 -63 24 -63 61c0 41 29 63 63 63c35 0 64 -22 64 -63c0 -37 -29 -61 -64 -61z
" />
    <glyph glyph-name="questiondown" unicode="&#xbf;" horiz-adv-x="511" 
d="M298 510c34 0 63 -24 63 -61c0 -41 -29 -63 -63 -63c-35 0 -64 22 -64 63c0 37 29 61 64 61zM348 197c-110 -87 -191 -140 -191 -240c0 -71 54 -127 140 -127c61 0 107 26 163 70h1l-13 -129c-47 -20 -109 -31 -166 -31c-119 0 -222 74 -222 202c0 136 108 234 286 336h2
v-81z" />
    <glyph glyph-name="questiondown.cap" unicode="&#xe0fd;" horiz-adv-x="511" 
d="M298 760c34 0 63 -24 63 -61c0 -41 -29 -63 -63 -63c-35 0 -64 22 -64 63c0 37 29 61 64 61zM348 447c-110 -87 -191 -140 -191 -240c0 -71 54 -127 140 -127c61 0 107 26 163 70h1l-13 -129c-47 -20 -109 -31 -166 -31c-119 0 -222 74 -222 202c0 136 108 234 286 336h2
v-81z" />
    <glyph glyph-name="quoteleft" unicode="&#x2018;" horiz-adv-x="237" 
d="M152 480h-122v2l104 268h63z" />
    <glyph glyph-name="quoteright" unicode="&#x2019;" horiz-adv-x="237" 
d="M85 750h122v-2l-104 -268h-63z" />
    <glyph glyph-name="quotedblleft" unicode="&#x201c;" horiz-adv-x="447" 
d="M152 480h-122v2l104 268h63zM362 480h-122v2l104 268h63z" />
    <glyph glyph-name="quotedblright" unicode="&#x201d;" horiz-adv-x="447" 
d="M295 750h122v-2l-104 -268h-63zM85 750h122v-2l-104 -268h-63z" />
    <glyph glyph-name="quotesinglbase" unicode="&#x201a;" horiz-adv-x="272" 
d="M80 104h122v-2l-104 -268h-63z" />
    <glyph glyph-name="quotedblbase" unicode="&#x201e;" horiz-adv-x="476" 
d="M284 104h122v-2l-104 -268h-63zM80 104h122v-2l-104 -268h-63z" />
    <glyph glyph-name="quotesingle" unicode="'" horiz-adv-x="220" 
d="M65 730h125l-94 -260h-56z" />
    <glyph glyph-name="quotedbl" unicode="&#x22;" horiz-adv-x="420" 
d="M65 730h125l-94 -260h-56zM265 730h125l-94 -260h-56z" />
    <glyph glyph-name="guilsinglleft" unicode="&#x2039;" horiz-adv-x="444" 
d="M291 46l-241 212v4l242 212h102l-194 -214l194 -214h-103z" />
    <glyph glyph-name="guilsinglright" unicode="&#x203a;" horiz-adv-x="444" 
d="M153 474l241 -212v-4l-242 -212h-102l194 214l-194 214h103z" />
    <glyph glyph-name="guilsinglleft.cap" unicode="&#xe0d6;" horiz-adv-x="444" 
d="M291 142l-241 212v4l242 212h102l-194 -214l194 -214h-103z" />
    <glyph glyph-name="guilsinglright.cap" unicode="&#xe0d7;" horiz-adv-x="444" 
d="M153 570l241 -212v-4l-242 -212h-102l194 214l-194 214h103z" />
    <glyph glyph-name="guillemotleft" unicode="&#xab;" horiz-adv-x="714" 
d="M561 36l-241 212v4l242 212h102l-194 -214l194 -214h-103zM291 36l-241 212v4l242 212h102l-194 -214l194 -214h-103z" />
    <glyph glyph-name="guillemotright" unicode="&#xbb;" horiz-adv-x="714" 
d="M428 464l236 -212v-4l-237 -212h-107l194 214l-194 214h108zM158 464l236 -212v-4l-237 -212h-107l194 214l-194 214h108z" />
    <glyph glyph-name="guillemotleft.cap" unicode="&#xe0d4;" horiz-adv-x="714" 
d="M561 142l-241 212v4l242 212h102l-194 -214l194 -214h-103zM291 142l-241 212v4l242 212h102l-194 -214l194 -214h-103z" />
    <glyph glyph-name="guillemotright.cap" unicode="&#xe0d5;" horiz-adv-x="714" 
d="M428 570l236 -212v-4l-237 -212h-107l194 214l-194 214h108zM158 570l236 -212v-4l-237 -212h-107l194 214l-194 214h108z" />
    <glyph glyph-name="slash" unicode="/" horiz-adv-x="519" 
d="M116 -85h-86v2l363 853h86v-2z" />
    <glyph glyph-name="backslash" unicode="\" horiz-adv-x="519" 
d="M479 -85h-86l-363 853v2h86l363 -853v-2z" />
    <glyph glyph-name="bar" unicode="|" horiz-adv-x="272" 
d="M177 -250h-82v1020h82v-1020z" />
    <glyph glyph-name="brokenbar" unicode="&#xa6;" horiz-adv-x="272" 
d="M177 350h-82v420h82v-420zM177 -250h-82v420h82v-420z" />
    <glyph glyph-name="endash" unicode="&#x2013;" horiz-adv-x="601" 
d="M536 240h-481l10 94h481z" />
    <glyph glyph-name="endash.cap" unicode="&#xe0b6;" horiz-adv-x="601" 
d="M536 335h-481l10 94h481z" />
    <glyph glyph-name="underscore" unicode="_" horiz-adv-x="500" 
d="M500 -171h-500v94h500v-94z" />
    <glyph glyph-name="emdash" unicode="&#x2014;" horiz-adv-x="891" 
d="M826 240h-771l10 94h771z" />
    <glyph glyph-name="emdash.cap" unicode="&#xe0b5;" horiz-adv-x="891" 
d="M826 335h-771l10 94h771z" />
    <glyph glyph-name="bullet" unicode="&#x2022;" horiz-adv-x="474" 
d="M237 144c-91 0 -153 63 -153 150c0 89 62 150 153 150s153 -61 153 -150c0 -87 -62 -150 -153 -150z" />
    <glyph glyph-name="periodcentered" unicode="&#xb7;" horiz-adv-x="281" 
d="M140 210c-34 0 -63 24 -63 61c0 41 29 63 63 63c35 0 64 -22 64 -63c0 -37 -29 -61 -64 -61z" />
    <glyph glyph-name="periodcentered.cap" unicode="&#xe0fb;" horiz-adv-x="281" 
d="M140 260c-34 0 -63 24 -63 61c0 41 29 63 63 63c35 0 64 -22 64 -63c0 -37 -29 -61 -64 -61z" />
    <glyph glyph-name="parenleft" unicode="(" horiz-adv-x="333" 
d="M65 298c0 187 60 363 188 462h70v-2c-125 -135 -156 -301 -156 -460s33 -327 156 -461v-2h-70c-128 99 -188 275 -188 463z" />
    <glyph glyph-name="parenright" unicode=")" horiz-adv-x="333" 
d="M268 297c0 -187 -60 -363 -188 -462h-70c126 135 156 303 156 462c0 160 -31 330 -156 464h70c128 -99 188 -276 188 -464z" />
    <glyph glyph-name="parenleft.cap" unicode="&#xe0f7;" horiz-adv-x="353" 
d="M50 368c0 187 60 363 188 462h70v-2c-125 -135 -156 -301 -156 -460s33 -327 156 -461v-2h-70c-128 99 -188 275 -188 463z" />
    <glyph glyph-name="parenright.cap" unicode="&#xe0f9;" horiz-adv-x="353" 
d="M293 367c0 -187 -60 -363 -188 -462h-70c126 135 156 303 156 462c0 160 -31 330 -156 464h70c128 -99 188 -276 188 -464z" />
    <glyph glyph-name="parenleft.small" unicode="&#xe0f8;" horiz-adv-x="312" 
d="M60 296c0 157 59 289 164 370h58v-2c-87 -113 -124 -241 -124 -368c0 -125 39 -256 124 -368v-2h-58c-104 81 -164 213 -164 370z" />
    <glyph glyph-name="parenright.small" unicode="&#xe0fa;" horiz-adv-x="312" 
d="M252 296c0 -157 -59 -289 -164 -370h-58v2c87 113 124 241 124 368c0 125 -39 256 -124 368v2h58c104 -81 164 -213 164 -370z" />
    <glyph glyph-name="bracketleft" unicode="[" horiz-adv-x="340" 
d="M330 -166h-245v926h245v-95h-2l-148 30v-796l148 30h2v-95z" />
    <glyph glyph-name="bracketright" unicode="]" horiz-adv-x="335" 
d="M5 760h245v-926h-245v95h2l148 -30v796l-148 -30h-2v95z" />
    <glyph glyph-name="bracketleft.cap" unicode="&#xe093;" horiz-adv-x="350" 
d="M340 -96h-245v926h245v-95h-2l-148 30v-796l148 30h2v-95z" />
    <glyph glyph-name="bracketright.cap" unicode="&#xe095;" horiz-adv-x="350" 
d="M5 830h245v-926h-245v95h2l148 -30v796l-148 -30h-2v95z" />
    <glyph glyph-name="bracketleft.small" unicode="&#xe094;" horiz-adv-x="326" 
d="M306 -74h-226v741h226v-91h-2l-134 30v-619l134 30h2v-91z" />
    <glyph glyph-name="bracketright.small" unicode="&#xe096;" horiz-adv-x="326" 
d="M20 667h226v-741h-226v91h2l134 -30v619l-134 -30h-2v91z" />
    <glyph glyph-name="braceleft" unicode="{" horiz-adv-x="318" 
d="M288 -162c-9 -1 -36 -3 -58 -3c-111 0 -116 68 -116 134v156c0 44 9 122 -55 138l-4 1v67l4 1c64 16 55 93 55 138v156c0 66 6 134 116 134c22 0 49 -2 58 -3l20 -85h-2c-9 2 -35 8 -54 8c-34 0 -51 -15 -51 -54v-181c0 -57 1 -98 -51 -147c52 -50 51 -91 51 -148v-176
c0 -43 17 -59 51 -59c19 0 45 6 54 8h2z" />
    <glyph glyph-name="braceright" unicode="}" horiz-adv-x="318" 
d="M30 756c9 1 36 3 58 3c111 0 116 -68 116 -134v-156c0 -44 -9 -122 55 -138l4 -1v-67l-4 -1c-64 -16 -55 -93 -55 -138v-156c0 -66 -6 -134 -116 -134c-22 0 -49 2 -58 3l-20 85h2c9 -2 35 -8 54 -8c34 0 51 15 51 54v181c0 57 -1 98 51 147c-52 50 -51 91 -51 148v176
c0 43 -17 59 -51 59c-19 0 -45 -6 -54 -8h-2z" />
    <glyph glyph-name="braceleft.cap" unicode="&#xe08f;" horiz-adv-x="328" 
d="M288 -92c-9 -1 -36 -3 -58 -3c-111 0 -116 68 -116 134v156c0 44 9 122 -55 138l-4 1v67l4 1c64 16 55 93 55 138v156c0 66 6 134 116 134c22 0 49 -2 58 -3l20 -85h-2c-9 2 -35 8 -54 8c-34 0 -51 -15 -51 -54v-181c0 -57 1 -98 -51 -147c52 -50 51 -91 51 -148v-176
c0 -43 17 -59 51 -59c19 0 45 6 54 8h2z" />
    <glyph glyph-name="braceright.cap" unicode="&#xe091;" horiz-adv-x="328" 
d="M40 827c9 1 36 3 58 3c111 0 116 -68 116 -134v-156c0 -44 -9 -122 55 -138l4 -1v-67l-4 -1c-64 -16 -55 -93 -55 -138v-156c0 -66 -6 -134 -116 -134c-22 0 -49 2 -58 3l-20 85h2c9 -2 35 -8 54 -8c34 0 51 15 51 54v181c0 57 -1 98 51 147c-52 50 -51 91 -51 148v176
c0 43 -17 59 -51 59c-19 0 -45 -6 -54 -8h-2z" />
    <glyph glyph-name="braceleft.small" unicode="&#xe090;" horiz-adv-x="328" 
d="M45 329l4 1c64 16 55 86 55 128v75c0 66 6 134 116 134c22 0 49 -2 58 -3l20 -85h-2c-9 2 -35 8 -54 8c-34 0 -51 -15 -51 -54v-100c0 -53 -1 -90 -51 -137c50 -47 51 -84 51 -137v-100c0 -39 17 -54 51 -54c19 0 45 6 54 8h2l-20 -85c-9 -1 -36 -3 -58 -3
c-110 0 -116 68 -116 134v75c0 42 9 112 -55 128l-4 1v66z" />
    <glyph glyph-name="braceright.small" unicode="&#xe092;" horiz-adv-x="328" 
d="M283 264l-4 -1c-64 -16 -55 -86 -55 -128v-75c0 -66 -6 -134 -116 -134c-22 0 -49 2 -58 3l-20 85h2c9 -2 35 -8 54 -8c34 0 51 15 51 54v100c0 53 1 90 51 137c-50 47 -51 84 -51 137v100c0 39 -17 54 -51 54c-19 0 -45 -6 -54 -8h-2l20 85c9 1 36 3 58 3
c110 0 116 -68 116 -134v-75c0 -42 -9 -112 55 -128l4 -1v-66z" />
    <glyph glyph-name="asterisk" unicode="*" horiz-adv-x="405" 
d="M255 421l-54 121l-53 -120l-86 62l98 89l-130 13l32 101l115 -66l-28 129h106l-27 -128l114 65l33 -101l-132 -13l98 -89z" />
    <glyph glyph-name="dagger" unicode="&#x2020;" horiz-adv-x="450" 
d="M170 0l12 503l-150 -20v108l150 -20l-11 179h107l-11 -179l151 20v-108l-151 20l12 -503h-109z" />
    <glyph glyph-name="daggerdbl" unicode="&#x2021;" horiz-adv-x="450" 
d="M268 184l11 -184h-107l11 184l-151 -20v108l151 -20l-1 251l-150 -20v108l150 -20l-11 179h107l-11 -179l151 20v-108l-151 20l1 -251l150 20v-108z" />
    <glyph glyph-name="section" unicode="&#xa7;" horiz-adv-x="475" 
d="M142 270c0 -60 39 -100 94 -100c58 0 97 40 97 100s-39 100 -94 100c-58 0 -97 -40 -97 -100zM430 270c0 -66 -42 -142 -144 -168l17 -15c60 -53 82 -103 82 -147c0 -86 -73 -160 -185 -160c-33 0 -72 4 -102 12l-20 116h3c38 -23 83 -34 123 -34c46 0 80 22 80 65
c0 37 -27 71 -72 108l-80 65c-48 39 -87 88 -87 158c0 66 42 142 144 168l-17 15c-60 53 -82 103 -82 147c0 86 73 160 185 160c33 0 72 -4 102 -12l20 -116h-3c-38 23 -83 34 -123 34c-46 0 -80 -22 -80 -65c0 -37 27 -71 72 -108l80 -65c48 -39 87 -88 87 -158z" />
    <glyph glyph-name="paragraph" unicode="&#xb6;" horiz-adv-x="574" 
d="M499 -86h-86v836h86v-836zM345 -86h-86v377c-126 0 -229 85 -229 229c0 145 103 230 229 230h86v-836z" />
    <glyph glyph-name="at" unicode="@" horiz-adv-x="825" 
d="M431 -132h-361v727h685v-565h-307l8 87l-31 -32c-32 -33 -60 -65 -97 -65c-62 0 -96 61 -96 160c0 171 109 273 238 273c25 0 59 -1 104 -5l-25 -355l118 14v407h-509v-585l284 28zM363 101c17 0 28 11 54 40l48 53l22 169c-6 2 -18 4 -29 4c-84 0 -136 -92 -136 -187
c0 -44 10 -79 41 -79z" />
    <glyph glyph-name="at.small" unicode="&#xe08d;" horiz-adv-x="776" 
d="M401 0h-331v664h636v-511h-289l8 82l-29 -32c-29 -29 -56 -58 -90 -58c-51 0 -79 70 -79 146c0 153 104 239 213 239c23 0 52 -1 94 -5l-24 -314l115 11v369h-474v-535l260 23zM336 219c14 0 30 12 48 33l50 57l22 138c-5 2 -15 4 -24 4c-78 0 -126 -78 -126 -156
c0 -45 6 -76 30 -76z" />
    <glyph glyph-name="at.cap" unicode="&#xe08c;" horiz-adv-x="825" 
d="M431 12h-361v727h685v-565h-307l8 87l-31 -32c-32 -33 -60 -65 -97 -65c-62 0 -96 61 -96 160c0 171 109 273 238 273c25 0 59 -1 104 -5l-25 -355l118 14v407h-509v-585l284 28zM363 245c17 0 28 11 54 40l48 53l22 169c-6 2 -18 4 -29 4c-84 0 -136 -92 -136 -187
c0 -44 10 -79 41 -79z" />
    <glyph glyph-name="copyright" unicode="&#xa9;" horiz-adv-x="758" 
d="M379 -10c-187 0 -334 142 -334 339c0 196 150 328 334 328s334 -132 334 -328c0 -197 -147 -339 -334 -339zM379 50c148 0 269 115 269 278s-121 268 -269 268s-270 -105 -270 -268s122 -278 270 -278zM493 162c-16 -11 -60 -28 -102 -28c-108 0 -189 73 -189 187
s75 185 192 185c24 0 66 -4 101 -9l10 -102h-7c-26 21 -63 37 -113 37s-101 -30 -101 -107c0 -64 29 -122 112 -122c38 0 69 8 100 28h7z" />
    <glyph glyph-name="registered" unicode="&#xae;" horiz-adv-x="758" 
d="M379 92c-187 0 -334 142 -334 339c0 196 150 328 334 328s334 -132 334 -328c0 -197 -147 -339 -334 -339zM379 152c148 0 269 115 269 278s-121 268 -269 268s-270 -105 -270 -268s122 -278 270 -278zM335 440l12 -190h-100l13 190l-13 172h132c85 0 126 -39 126 -95
c0 -37 -20 -71 -73 -90l107 -170v-7h-104l-70 165v20c39 7 59 23 59 60c0 32 -33 49 -64 49h-18z" />
    <glyph glyph-name="uni2117" unicode="&#x2117;" horiz-adv-x="758" 
d="M379 -10c-187 0 -334 142 -334 339c0 196 150 328 334 328s334 -132 334 -328c0 -197 -147 -339 -334 -339zM379 50c148 0 269 115 269 278s-121 268 -269 268s-270 -105 -270 -268s122 -278 270 -278zM364 148h-101l13 190l-13 172h137c88 0 136 -47 136 -107
c0 -66 -45 -121 -153 -125v49c49 -2 72 21 72 62c0 32 -28 52 -85 52h-11l-8 -103z" />
    <glyph glyph-name="trademark" unicode="&#x2122;" horiz-adv-x="680" 
d="M280 679l-98 30l13 -233h-77l14 232l-97 -29h-5l8 71h240l7 -71h-5zM469 476l-73 152l-24 -152h-69l61 274h29l81 -174l87 174h32l57 -274h-69l-24 152l-81 -152h-7z" />
    <glyph glyph-name="ordfeminine" unicode="&#xaa;" horiz-adv-x="376" 
d="M171 426c23 0 44 11 65 27l1 40c-18 11 -41 18 -59 18c-32 0 -54 -14 -54 -44c0 -23 17 -41 47 -41zM234 372l1 33c-28 -20 -63 -40 -97 -40c-66 0 -103 45 -103 99c0 87 81 109 158 109c12 0 31 -1 46 -2v5c2 58 -33 69 -71 69c-36 0 -75 -15 -108 -30h-5l13 98
c32 4 80 9 118 9c86 0 136 -50 138 -127l7 -223h-97zM336 232h-294v74h294v-74z" />
    <glyph glyph-name="ordmasculine" unicode="&#xba;" horiz-adv-x="406" 
d="M203 722c111 0 173 -79 173 -174c0 -100 -61 -183 -173 -183s-173 83 -173 183c0 95 62 174 173 174zM203 431c57 0 83 51 83 116c0 49 -29 91 -83 91s-83 -42 -83 -91c0 -64 26 -116 83 -116zM361 232h-316v74h316v-74z" />
    <glyph glyph-name="numero" unicode="&#x2116;" horiz-adv-x="1046" 
d="M843 722c111 0 173 -79 173 -174c0 -100 -61 -183 -173 -183s-173 83 -173 183c0 95 62 174 173 174zM843 431c57 0 83 51 83 116c0 49 -29 91 -83 91s-83 -42 -83 -91c0 -64 26 -116 83 -116zM526 0l-369 425l24 -425h-111l19 606h25l371 -428l-18 428h111l-27 -606h-25
zM1001 232h-316v74h316v-74z" />
    <glyph glyph-name="numbersign" unicode="#" horiz-adv-x="663" 
d="M390 201l35 98h-152l-35 -98h152zM318 2l44 123h-152l-45 -125h-79v2l44 123h-110l20 76h118l35 98h-110l20 76h118l45 125h79v-2l-44 -123h152l45 125h79v-2l-44 -123h110l-20 -76h-118l-35 -98h110l-20 -76h-118l-45 -125h-79v2z" />
    <glyph glyph-name="Euro" unicode="&#x20ac;" horiz-adv-x="612" 
d="M416 -10c-116 0 -215 46 -256 144h-125l21 74h85c-1 12 -2 24 -2 37c0 8 0 16 1 24h-105l21 74h97c36 114 136 167 249 167c53 0 110 -8 147 -16l18 -116h-2c-40 21 -101 41 -166 41c-55 0 -111 -19 -140 -76h254l-21 -74h-253c-1 -8 -1 -17 -1 -27c0 -12 1 -23 3 -34
h272l-21 -74h-222c32 -43 83 -68 143 -68c48 0 94 16 143 43h2l-18 -94c-20 -11 -73 -25 -124 -25z" />
    <glyph glyph-name="dollar" unicode="$" horiz-adv-x="458" 
d="M192 -143v135c-44 4 -81 17 -108 33l-19 109h2c54 -40 106 -70 167 -70c44 0 68 24 68 60c0 35 -25 57 -68 75l-66 28c-87 37 -108 90 -108 142c0 74 52 124 132 138v86l86 50h2v-136c27 -3 58 -10 92 -24l18 -114h-2c-48 35 -106 53 -156 53c-48 0 -75 -20 -75 -49
s18 -51 74 -76l51 -23c81 -37 116 -75 116 -137c0 -66 -39 -124 -118 -141v-89l-86 -50h-2z" />
    <glyph glyph-name="cent" unicode="&#xa2;" horiz-adv-x="485" 
d="M235 -143h-2v139c-111 25 -183 128 -183 260c0 143 81 225 183 248v89l86 50h2v-134c40 -3 71 -12 93 -23l20 -117h-2c-46 34 -93 50 -142 50c-76 0 -141 -50 -141 -165c0 -127 62 -188 151 -188c53 0 95 22 133 46h2l-10 -70c-19 -19 -59 -41 -104 -49v-86z" />
    <glyph glyph-name="sterling" unicode="&#xa3;" horiz-adv-x="595" 
d="M30 0v2l193 269h-142l20 74h129c-66 84 -114 147 -114 227c0 104 77 188 225 188c42 0 92 -8 131 -20l18 -126h-2c-38 28 -97 61 -155 61c-67 0 -114 -39 -114 -107c0 -73 53 -131 126 -223h189l-20 -74h-184l-129 -181h354v-90h-525z" />
    <glyph glyph-name="florin" unicode="&#x192;" horiz-adv-x="483" 
d="M72 -165c-19 0 -45 2 -60 6l-12 96h2c20 -8 44 -17 70 -17c49 0 75 38 82 101l42 372h-120l7 77l117 -10l9 118c6 74 39 182 182 182c19 0 45 -2 60 -6l12 -96h-2c-20 8 -44 17 -70 17c-62 0 -77 -48 -89 -123l-15 -93l141 11l-7 -77h-141l-32 -389
c-8 -97 -66 -169 -176 -169z" />
    <glyph glyph-name="yen" unicode="&#xa5;" horiz-adv-x="573" 
d="M518 114h-172l6 -114h-127l6 114h-188l20 74h172l4 80h-196l20 74h119l-157 156v2h139l133 -158l125 158h126v-2l-155 -156h145l-20 -74h-181l4 -80h197z" />
    <glyph glyph-name="zero.slash" unicode="&#xe12f;" horiz-adv-x="608" 
d="M304 -10c-172 0 -255 139 -254 263c0 155 101 257 254 257s254 -102 254 -257c-1 -121 -86 -263 -254 -263zM149 249c0 -34 6 -65 19 -91l226 232c-24 17 -55 27 -90 27c-92 0 -155 -67 -155 -168zM304 72c95 0 155 74 155 176c0 30 -6 56 -15 79l-225 -230
c23 -16 52 -25 85 -25z" />
    <glyph glyph-name="zero" unicode="0" horiz-adv-x="608" 
d="M304 -10c-172 0 -255 139 -254 263c0 155 101 257 254 257s254 -102 254 -257c-1 -121 -86 -263 -254 -263zM304 72c95 0 155 74 155 176c-1 103 -63 169 -155 169s-155 -67 -155 -168c0 -103 60 -177 155 -177z" />
    <glyph glyph-name="one" unicode="1" horiz-adv-x="353" 
d="M149 0l22 357l-131 -51v42l161 152h56l11 -500h-119z" />
    <glyph glyph-name="two" unicode="2" horiz-adv-x="471" 
d="M25 0v14l177 191c67 72 94 95 94 142s-38 70 -87 70c-53 0 -96 -26 -141 -57h-2l18 122c34 18 94 28 133 28c118 0 178 -66 178 -154c0 -70 -43 -124 -134 -208l-88 -83l261 37h2l-21 -102h-390z" />
    <glyph glyph-name="three" unicode="3" horiz-adv-x="491" 
d="M215 -260c-52 0 -112 13 -165 35l-20 117h8c74 -44 120 -70 183 -70c96 0 141 63 141 140c0 92 -77 139 -156 139c-26 0 -48 -2 -74 -9v35l173 305l-272 -26h-2l20 94h407v-10l-208 -311c136 -3 211 -98 211 -210c0 -98 -57 -229 -246 -229z" />
    <glyph glyph-name="four" unicode="4" horiz-adv-x="667" 
d="M652 0h-185l8 -250h-110l8 250h-358v18l442 494h18l-11 -433h188v-79zM375 79l-3 223l-206 -223h209z" />
    <glyph glyph-name="five" unicode="5" horiz-adv-x="541" 
d="M245 -260c-52 0 -108 12 -165 35l-20 117h8c105 -64 139 -70 186 -70c93 0 138 61 138 148c0 79 -61 131 -158 131c-40 0 -81 -13 -111 -26h-14l-13 425h379l15 -97h-2l-286 39l-11 -269c18 8 50 13 82 13c120 0 218 -86 218 -207c0 -116 -65 -239 -246 -239z" />
    <glyph glyph-name="six" unicode="6" horiz-adv-x="574" 
d="M524 227c0 -120 -83 -237 -238 -237c-160 0 -236 122 -236 243c0 95 70 199 108 271l131 246h133v-2l-238 -345c48 38 89 47 129 47c117 0 211 -92 211 -223zM149 217c0 -78 46 -145 137 -145c92 0 139 65 139 145c0 81 -48 140 -140 140c-66 0 -136 -43 -136 -140z" />
    <glyph glyph-name="seven" unicode="7" horiz-adv-x="527" 
d="M75 -250v2l323 653h-363v95h482v-8l-317 -742h-125z" />
    <glyph glyph-name="eight" unicode="8" horiz-adv-x="576" 
d="M288 -10c-154 0 -238 122 -238 231c0 81 39 152 116 187c-48 35 -82 92 -82 166c0 107 78 186 204 186s204 -79 204 -186c0 -75 -35 -131 -82 -166c76 -36 116 -107 116 -187c0 -110 -84 -231 -238 -231zM288 441c71 0 105 61 105 118c0 53 -34 108 -105 108
s-105 -55 -105 -108c0 -56 34 -118 105 -118zM288 72c94 0 139 71 139 144c0 75 -49 138 -139 138s-139 -60 -139 -138c0 -72 45 -144 139 -144z" />
    <glyph glyph-name="nine" unicode="9" horiz-adv-x="568" 
d="M50 284c0 124 82 226 235 226c158 0 233 -106 233 -232c0 -97 -64 -204 -102 -276l-134 -252h-133v2l241 351c-49 -39 -91 -47 -132 -47c-115 0 -208 104 -208 228zM419 284c0 71 -45 132 -134 132c-90 0 -136 -59 -136 -132c0 -85 47 -147 137 -147c65 0 133 45 133 147
z" />
    <glyph glyph-name="numbersign.LP" unicode="&#xe0ea;" horiz-adv-x="680" 
d="M401 298l40 137h-155l-40 -137h155zM314 2l65 220h-156l-65 -222h-79v2l65 220h-124l20 76h126l40 137h-121l20 76h124l70 239h79v-2l-70 -237h156l70 239h79v-2l-70 -237h117l-20 -76h-119l-40 -137h114l-20 -76h-117l-65 -222h-79v2z" />
    <glyph glyph-name="Euro.LP" unicode="&#xe023;" horiz-adv-x="699" 
d="M475 -10c-153 0 -281 84 -319 261h-131l21 74h99c-1 14 -1 28 -1 43c0 18 1 36 2 53h-121l21 74h112c43 180 179 265 317 265c64 0 106 -6 161 -19l18 -121h-2c-42 22 -104 43 -178 43c-70 0 -171 -40 -210 -168h344l-21 -74h-338c-1 -15 -2 -31 -2 -48s1 -33 2 -48h359
l-21 -74h-323c33 -110 113 -176 216 -176c55 0 107 19 164 49h2l-19 -111c-38 -10 -90 -23 -152 -23z" />
    <glyph glyph-name="dollar.LP" unicode="&#xe0a8;" horiz-adv-x="553" 
d="M246 -143v133c-55 2 -119 18 -166 34l-20 136h2c84 -57 138 -89 212 -89c71 0 108 46 108 103c0 54 -27 93 -88 133l-99 65c-101 67 -126 135 -126 194c0 97 59 173 177 190v87l86 50h2v-134c52 -3 102 -12 127 -19l20 -138h-2c-66 43 -126 71 -201 71
c-58 0 -103 -31 -103 -90c0 -50 22 -78 91 -125l65 -44c92 -62 157 -124 157 -218c0 -78 -42 -169 -154 -197v-92l-86 -50h-2z" />
    <glyph glyph-name="cent.LP" unicode="&#xe09b;" horiz-adv-x="485" 
d="M235 -143h-2v139c-111 25 -183 128 -183 260c0 143 81 225 183 248v89l86 50h2v-134c40 -3 71 -12 93 -23l20 -117h-2c-46 34 -93 50 -142 50c-76 0 -141 -50 -141 -165c0 -127 62 -188 151 -188c53 0 95 22 133 46h2l-10 -70c-19 -19 -59 -41 -104 -49v-86z" />
    <glyph glyph-name="sterling.LP" unicode="&#xe10e;" horiz-adv-x="595" 
d="M30 0v2l193 269h-142l20 74h129c-66 84 -114 147 -114 227c0 104 77 188 225 188c42 0 92 -8 131 -20l18 -126h-2c-38 28 -97 61 -155 61c-67 0 -114 -39 -114 -107c0 -73 53 -131 126 -223h189l-20 -74h-184l-129 -181h354v-90h-525z" />
    <glyph glyph-name="florin.LP" unicode="&#xe0c6;" horiz-adv-x="483" 
d="M72 -165c-19 0 -45 2 -60 6l-12 96h2c20 -8 44 -17 70 -17c49 0 75 38 82 101l42 372h-120l7 77l117 -10l9 118c6 74 39 182 182 182c19 0 45 -2 60 -6l12 -96h-2c-20 8 -44 17 -70 17c-62 0 -77 -48 -89 -123l-15 -93l141 11l-7 -77h-141l-32 -389
c-8 -97 -66 -169 -176 -169z" />
    <glyph glyph-name="yen.LP" unicode="&#xe126;" horiz-adv-x="633" 
d="M548 206h-174l8 -206h-127l7 206h-189l20 74h172l3 90h-195l20 74h167l-255 304v2h136l185 -251l178 251h124v-2l-253 -304h193l-20 -74h-180l4 -90h196z" />
    <glyph glyph-name="zero.slashLP" unicode="&#xe130;" horiz-adv-x="640" 
d="M320 -10c-176 0 -261 178 -260 396c0 239 101 374 260 374s260 -135 260 -374c-1 -213 -88 -396 -260 -396zM159 392c0 -65 6 -122 18 -168l242 394c-26 32 -60 49 -99 49c-95 0 -161 -103 -161 -275zM320 72c99 0 161 115 161 319c0 53 -6 99 -17 137l-246 -399
c27 -37 61 -57 102 -57z" />
    <glyph glyph-name="zero.LP" unicode="&#xe12b;" horiz-adv-x="640" 
d="M320 -10c-176 0 -261 178 -260 396c0 239 101 374 260 374s260 -135 260 -374c-1 -213 -88 -396 -260 -396zM320 72c99 0 161 115 161 319c-1 175 -66 276 -161 276s-161 -103 -161 -275c0 -205 62 -320 161 -320z" />
    <glyph glyph-name="one.LP" unicode="&#xe0f0;" horiz-adv-x="378" 
d="M149 0l22 607l-131 -51v42l161 152h56l11 -750h-119z" />
    <glyph glyph-name="two.LP" unicode="&#xe11a;" horiz-adv-x="544" 
d="M25 0v11l215 323c78 114 111 163 111 226c0 68 -45 107 -116 107c-50 0 -100 -30 -149 -64h-2l18 122c37 21 101 35 144 35c140 0 204 -98 204 -195c0 -69 -28 -134 -89 -214l-208 -286l344 37h2l-21 -102h-453z" />
    <glyph glyph-name="three.LP" unicode="&#xe113;" horiz-adv-x="551" 
d="M240 -10c-52 0 -112 13 -165 35l-20 117h8c74 -44 120 -70 183 -70c96 0 141 63 141 140c0 92 -77 139 -156 139c-26 0 -48 -2 -74 -9v35l173 305l-272 -26h-2l20 94h407v-10l-208 -311c136 -3 211 -98 211 -210c0 -98 -57 -229 -246 -229z" />
    <glyph glyph-name="four.LP" unicode="&#xe0ca;" horiz-adv-x="667" 
d="M652 250h-185l8 -250h-110l8 250h-358v18l442 494h18l-11 -433h188v-79zM375 329l-3 223l-206 -223h209z" />
    <glyph glyph-name="five.LP" unicode="&#xe0bf;" horiz-adv-x="556" 
d="M245 -10c-52 0 -108 12 -165 35l-20 117h8c105 -64 139 -70 186 -70c93 0 138 61 138 148c0 79 -61 131 -158 131c-40 0 -81 -13 -111 -26h-14l-13 425h379l15 -97h-2l-286 39l-11 -269c18 8 50 13 82 13c120 0 218 -86 218 -207c0 -116 -65 -239 -246 -239z" />
    <glyph glyph-name="six.LP" unicode="&#xe108;" horiz-adv-x="604" 
d="M539 227c0 -120 -83 -237 -238 -237c-160 0 -236 122 -236 243c0 95 70 199 108 271l131 246h133v-2l-238 -345c48 38 89 47 129 47c117 0 211 -92 211 -223zM164 217c0 -78 46 -145 137 -145c92 0 139 65 139 145c0 81 -48 140 -140 140c-66 0 -136 -43 -136 -140z" />
    <glyph glyph-name="seven.LP" unicode="&#xe102;" horiz-adv-x="552" 
d="M90 0v2l323 653h-363v95h482v-8l-317 -742h-125z" />
    <glyph glyph-name="eight.LP" unicode="&#xe0af;" horiz-adv-x="606" 
d="M303 -10c-154 0 -238 122 -238 231c0 81 39 152 116 187c-48 35 -82 92 -82 166c0 107 78 186 204 186s204 -79 204 -186c0 -75 -35 -131 -82 -166c76 -36 116 -107 116 -187c0 -110 -84 -231 -238 -231zM303 441c71 0 105 61 105 118c0 53 -34 108 -105 108
s-105 -55 -105 -108c0 -56 34 -118 105 -118zM303 72c94 0 139 71 139 144c0 75 -49 138 -139 138s-139 -60 -139 -138c0 -72 45 -144 139 -144z" />
    <glyph glyph-name="nine.LP" unicode="&#xe0e4;" horiz-adv-x="598" 
d="M65 524c0 124 82 226 235 226c158 0 233 -106 233 -232c0 -97 -64 -204 -102 -276l-134 -252h-133v2l241 351c-49 -39 -91 -47 -132 -47c-115 0 -208 104 -208 228zM434 524c0 71 -45 132 -134 132c-90 0 -136 -59 -136 -132c0 -85 47 -147 137 -147c65 0 133 45 133 147
z" />
    <glyph glyph-name="numbersign.OT" unicode="&#xe0ed;" 
d="M390 201l35 98h-152l-35 -98h152zM318 2l44 123h-152l-45 -125h-79v2l44 123h-110l20 76h118l35 98h-110l20 76h118l45 125h79v-2l-44 -123h152l45 125h79v-2l-44 -123h110l-20 -76h-118l-35 -98h110l-20 -76h-118l-45 -125h-79v2z" />
    <glyph glyph-name="Euro.OT" unicode="&#xe026;" 
d="M441 -10c-116 0 -215 46 -256 144h-125l21 74h85c-1 12 -2 24 -2 37c0 8 0 16 1 24h-105l21 74h97c36 114 136 167 249 167c53 0 110 -8 147 -16l18 -116h-2c-40 21 -101 41 -166 41c-55 0 -111 -19 -140 -76h254l-21 -74h-253c-1 -8 -1 -17 -1 -27c0 -12 1 -23 3 -34
h272l-21 -74h-222c32 -43 83 -68 143 -68c48 0 94 16 143 43h2l-18 -94c-20 -11 -73 -25 -124 -25z" />
    <glyph glyph-name="dollar.OT" unicode="&#xe0ab;" 
d="M293 -143v135c-44 4 -81 17 -108 33l-19 109h2c54 -40 106 -70 167 -70c44 0 68 24 68 60c0 35 -25 57 -68 75l-66 28c-87 37 -108 90 -108 142c0 74 52 124 132 138v86l86 50h2v-136c27 -3 58 -10 92 -24l18 -114h-2c-48 35 -106 53 -156 53c-48 0 -75 -20 -75 -49
s18 -51 74 -76l51 -23c81 -37 116 -75 116 -137c0 -66 -39 -124 -118 -141v-89l-86 -50h-2z" />
    <glyph glyph-name="cent.OT" unicode="&#xe09e;" 
d="M315 -143h-2v139c-111 25 -183 128 -183 260c0 143 81 225 183 248v89l86 50h2v-134c40 -3 71 -12 93 -23l20 -117h-2c-46 34 -93 50 -142 50c-76 0 -141 -50 -141 -165c0 -127 62 -188 151 -188c53 0 95 22 133 46h2l-10 -70c-19 -19 -59 -41 -104 -49v-86z" />
    <glyph glyph-name="sterling.OT" unicode="&#xe111;" 
d="M62 0v2l193 269h-142l20 74h129c-66 84 -114 147 -114 227c0 104 77 188 225 188c42 0 92 -8 131 -20l18 -126h-2c-38 28 -97 61 -155 61c-67 0 -114 -39 -114 -107c0 -73 53 -131 126 -223h189l-20 -74h-184l-129 -181h354v-90h-525z" />
    <glyph glyph-name="florin.OT" unicode="&#xe0c9;" 
d="M148 -165c-19 0 -45 2 -60 6l-12 96h2c20 -8 44 -17 70 -17c49 0 75 38 82 101l42 372h-120l7 77l117 -10l9 118c6 74 39 182 182 182c19 0 45 -2 60 -6l12 -96h-2c-20 8 -44 17 -70 17c-62 0 -77 -48 -89 -123l-15 -93l141 11l-7 -77h-141l-32 -389
c-8 -97 -66 -169 -176 -169z" />
    <glyph glyph-name="yen.OT" unicode="&#xe129;" 
d="M582 114h-172l6 -114h-127l6 114h-188l20 74h172l4 80h-196l20 74h119l-157 156v2h139l133 -158l125 158h126v-2l-155 -156h145l-20 -74h-181l4 -80h197z" />
    <glyph glyph-name="zero.slashOT" unicode="&#xe133;" 
d="M330 -10c-172 0 -255 139 -254 263c0 155 101 257 254 257s254 -102 254 -257c-1 -121 -86 -263 -254 -263zM175 249c0 -34 6 -65 19 -91l226 232c-24 17 -55 27 -90 27c-92 0 -155 -67 -155 -168zM330 72c95 0 155 74 155 176c0 30 -6 56 -15 79l-225 -230
c23 -16 52 -25 85 -25z" />
    <glyph glyph-name="zero.OT" unicode="&#xe12e;" 
d="M330 -10c-172 0 -255 139 -254 263c0 155 101 257 254 257s254 -102 254 -257c-1 -121 -86 -263 -254 -263zM330 72c95 0 155 74 155 176c-1 103 -63 169 -155 169s-155 -67 -155 -168c0 -103 60 -177 155 -177z" />
    <glyph glyph-name="one.OT" unicode="&#xe0f3;" 
d="M263 0l22 357l-131 -51v42l161 152h56l11 -500h-119z" />
    <glyph glyph-name="two.OT" unicode="&#xe11d;" 
d="M109 0v14l177 191c67 72 94 95 94 142s-38 70 -87 70c-53 0 -96 -26 -141 -57h-2l18 122c34 18 94 28 133 28c118 0 178 -66 178 -154c0 -70 -43 -124 -134 -208l-88 -83l261 37h2l-21 -102h-390z" />
    <glyph glyph-name="three.OT" unicode="&#xe116;" 
d="M292 -260c-52 0 -112 13 -165 35l-20 117h8c74 -44 120 -70 183 -70c96 0 141 63 141 140c0 92 -77 139 -156 139c-26 0 -48 -2 -74 -9v35l173 305l-272 -26h-2l20 94h407v-10l-208 -311c136 -3 211 -98 211 -210c0 -98 -57 -229 -246 -229z" />
    <glyph glyph-name="four.OT" unicode="&#xe0cd;" 
d="M642 0h-185l8 -250h-110l8 250h-358v18l442 494h18l-11 -433h188v-79zM365 79l-3 223l-206 -223h209z" />
    <glyph glyph-name="five.OT" unicode="&#xe0c2;" 
d="M300 -260c-52 0 -108 12 -165 35l-20 117h8c105 -64 139 -70 186 -70c93 0 138 61 138 148c0 79 -61 131 -158 131c-40 0 -81 -13 -111 -26h-14l-13 425h379l15 -97h-2l-286 39l-11 -269c18 8 50 13 82 13c120 0 218 -86 218 -207c0 -116 -65 -239 -246 -239z" />
    <glyph glyph-name="six.OT" unicode="&#xe10b;" 
d="M577 227c0 -120 -83 -237 -238 -237c-160 0 -236 122 -236 243c0 95 70 199 108 271l131 246h133v-2l-238 -345c48 38 89 47 129 47c117 0 211 -92 211 -223zM202 217c0 -78 46 -145 137 -145c92 0 139 65 139 145c0 81 -48 140 -140 140c-66 0 -136 -43 -136 -140z" />
    <glyph glyph-name="seven.OT" unicode="&#xe105;" 
d="M129 -250v2l323 653h-363v95h482v-8l-317 -742h-125z" />
    <glyph glyph-name="eight.OT" unicode="&#xe0b2;" 
d="M335 -10c-154 0 -238 122 -238 231c0 81 39 152 116 187c-48 35 -82 92 -82 166c0 107 78 186 204 186s204 -79 204 -186c0 -75 -35 -131 -82 -166c76 -36 116 -107 116 -187c0 -110 -84 -231 -238 -231zM335 441c71 0 105 61 105 118c0 53 -34 108 -105 108
s-105 -55 -105 -108c0 -56 34 -118 105 -118zM335 72c94 0 139 71 139 144c0 75 -49 138 -139 138s-139 -60 -139 -138c0 -72 45 -144 139 -144z" />
    <glyph glyph-name="nine.OT" unicode="&#xe0e7;" 
d="M106 284c0 124 82 226 235 226c158 0 233 -106 233 -232c0 -97 -64 -204 -102 -276l-134 -252h-133v2l241 351c-49 -39 -91 -47 -132 -47c-115 0 -208 104 -208 228zM475 284c0 71 -45 132 -134 132c-90 0 -136 -59 -136 -132c0 -85 47 -147 137 -147
c65 0 133 45 133 147z" />
    <glyph glyph-name="numbersign.OP" unicode="&#xe0ec;" horiz-adv-x="663" 
d="M390 201l35 98h-152l-35 -98h152zM318 2l44 123h-152l-45 -125h-79v2l44 123h-110l20 76h118l35 98h-110l20 76h118l45 125h79v-2l-44 -123h152l45 125h79v-2l-44 -123h110l-20 -76h-118l-35 -98h110l-20 -76h-118l-45 -125h-79v2z" />
    <glyph glyph-name="Euro.OP" unicode="&#xe025;" horiz-adv-x="612" 
d="M416 -10c-116 0 -215 46 -256 144h-125l21 74h85c-1 12 -2 24 -2 37c0 8 0 16 1 24h-105l21 74h97c36 114 136 167 249 167c53 0 110 -8 147 -16l18 -116h-2c-40 21 -101 41 -166 41c-55 0 -111 -19 -140 -76h254l-21 -74h-253c-1 -8 -1 -17 -1 -27c0 -12 1 -23 3 -34
h272l-21 -74h-222c32 -43 83 -68 143 -68c48 0 94 16 143 43h2l-18 -94c-20 -11 -73 -25 -124 -25z" />
    <glyph glyph-name="dollar.OP" unicode="&#xe0aa;" horiz-adv-x="458" 
d="M192 -143v135c-44 4 -81 17 -108 33l-19 109h2c54 -40 106 -70 167 -70c44 0 68 24 68 60c0 35 -25 57 -68 75l-66 28c-87 37 -108 90 -108 142c0 74 52 124 132 138v86l86 50h2v-136c27 -3 58 -10 92 -24l18 -114h-2c-48 35 -106 53 -156 53c-48 0 -75 -20 -75 -49
s18 -51 74 -76l51 -23c81 -37 116 -75 116 -137c0 -66 -39 -124 -118 -141v-89l-86 -50h-2z" />
    <glyph glyph-name="cent.OP" unicode="&#xe09d;" horiz-adv-x="485" 
d="M235 -143h-2v139c-111 25 -183 128 -183 260c0 143 81 225 183 248v89l86 50h2v-134c40 -3 71 -12 93 -23l20 -117h-2c-46 34 -93 50 -142 50c-76 0 -141 -50 -141 -165c0 -127 62 -188 151 -188c53 0 95 22 133 46h2l-10 -70c-19 -19 -59 -41 -104 -49v-86z" />
    <glyph glyph-name="sterling.OP" unicode="&#xe110;" horiz-adv-x="595" 
d="M30 0v2l193 269h-142l20 74h129c-66 84 -114 147 -114 227c0 104 77 188 225 188c42 0 92 -8 131 -20l18 -126h-2c-38 28 -97 61 -155 61c-67 0 -114 -39 -114 -107c0 -73 53 -131 126 -223h189l-20 -74h-184l-129 -181h354v-90h-525z" />
    <glyph glyph-name="florin.OP" unicode="&#xe0c8;" horiz-adv-x="483" 
d="M72 -165c-19 0 -45 2 -60 6l-12 96h2c20 -8 44 -17 70 -17c49 0 75 38 82 101l42 372h-120l7 77l117 -10l9 118c6 74 39 182 182 182c19 0 45 -2 60 -6l12 -96h-2c-20 8 -44 17 -70 17c-62 0 -77 -48 -89 -123l-15 -93l141 11l-7 -77h-141l-32 -389
c-8 -97 -66 -169 -176 -169z" />
    <glyph glyph-name="yen.OP" unicode="&#xe128;" horiz-adv-x="573" 
d="M518 114h-172l6 -114h-127l6 114h-188l20 74h172l4 80h-196l20 74h119l-157 156v2h139l133 -158l125 158h126v-2l-155 -156h145l-20 -74h-181l4 -80h197z" />
    <glyph glyph-name="zero.slashOP" unicode="&#xe132;" horiz-adv-x="608" 
d="M304 -10c-172 0 -255 139 -254 263c0 155 101 257 254 257s254 -102 254 -257c-1 -121 -86 -263 -254 -263zM149 249c0 -34 6 -65 19 -91l226 232c-24 17 -55 27 -90 27c-92 0 -155 -67 -155 -168zM304 72c95 0 155 74 155 176c0 30 -6 56 -15 79l-225 -230
c23 -16 52 -25 85 -25z" />
    <glyph glyph-name="zero.OP" unicode="&#xe12d;" horiz-adv-x="608" 
d="M304 -10c-172 0 -255 139 -254 263c0 155 101 257 254 257s254 -102 254 -257c-1 -121 -86 -263 -254 -263zM304 72c95 0 155 74 155 176c-1 103 -63 169 -155 169s-155 -67 -155 -168c0 -103 60 -177 155 -177z" />
    <glyph glyph-name="one.OP" unicode="&#xe0f2;" horiz-adv-x="353" 
d="M149 0l22 357l-131 -51v42l161 152h56l11 -500h-119z" />
    <glyph glyph-name="two.OP" unicode="&#xe11c;" horiz-adv-x="471" 
d="M25 0v14l177 191c67 72 94 95 94 142s-38 70 -87 70c-53 0 -96 -26 -141 -57h-2l18 122c34 18 94 28 133 28c118 0 178 -66 178 -154c0 -70 -43 -124 -134 -208l-88 -83l261 37h2l-21 -102h-390z" />
    <glyph glyph-name="three.OP" unicode="&#xe115;" horiz-adv-x="491" 
d="M215 -260c-52 0 -112 13 -165 35l-20 117h8c74 -44 120 -70 183 -70c96 0 141 63 141 140c0 92 -77 139 -156 139c-26 0 -48 -2 -74 -9v35l173 305l-272 -26h-2l20 94h407v-10l-208 -311c136 -3 211 -98 211 -210c0 -98 -57 -229 -246 -229z" />
    <glyph glyph-name="four.OP" unicode="&#xe0cc;" horiz-adv-x="667" 
d="M652 0h-185l8 -250h-110l8 250h-358v18l442 494h18l-11 -433h188v-79zM375 79l-3 223l-206 -223h209z" />
    <glyph glyph-name="five.OP" unicode="&#xe0c1;" horiz-adv-x="541" 
d="M245 -260c-52 0 -108 12 -165 35l-20 117h8c105 -64 139 -70 186 -70c93 0 138 61 138 148c0 79 -61 131 -158 131c-40 0 -81 -13 -111 -26h-14l-13 425h379l15 -97h-2l-286 39l-11 -269c18 8 50 13 82 13c120 0 218 -86 218 -207c0 -116 -65 -239 -246 -239z" />
    <glyph glyph-name="six.OP" unicode="&#xe10a;" horiz-adv-x="574" 
d="M524 227c0 -120 -83 -237 -238 -237c-160 0 -236 122 -236 243c0 95 70 199 108 271l131 246h133v-2l-238 -345c48 38 89 47 129 47c117 0 211 -92 211 -223zM149 217c0 -78 46 -145 137 -145c92 0 139 65 139 145c0 81 -48 140 -140 140c-66 0 -136 -43 -136 -140z" />
    <glyph glyph-name="seven.OP" unicode="&#xe104;" horiz-adv-x="527" 
d="M75 -250v2l323 653h-363v95h482v-8l-317 -742h-125z" />
    <glyph glyph-name="eight.OP" unicode="&#xe0b1;" horiz-adv-x="576" 
d="M288 -10c-154 0 -238 122 -238 231c0 81 39 152 116 187c-48 35 -82 92 -82 166c0 107 78 186 204 186s204 -79 204 -186c0 -75 -35 -131 -82 -166c76 -36 116 -107 116 -187c0 -110 -84 -231 -238 -231zM288 441c71 0 105 61 105 118c0 53 -34 108 -105 108
s-105 -55 -105 -108c0 -56 34 -118 105 -118zM288 72c94 0 139 71 139 144c0 75 -49 138 -139 138s-139 -60 -139 -138c0 -72 45 -144 139 -144z" />
    <glyph glyph-name="nine.OP" unicode="&#xe0e6;" horiz-adv-x="568" 
d="M50 284c0 124 82 226 235 226c158 0 233 -106 233 -232c0 -97 -64 -204 -102 -276l-134 -252h-133v2l241 351c-49 -39 -91 -47 -132 -47c-115 0 -208 104 -208 228zM419 284c0 71 -45 132 -134 132c-90 0 -136 -59 -136 -132c0 -85 47 -147 137 -147c65 0 133 45 133 147
z" />
    <glyph glyph-name="numbersign.LT" unicode="&#xe0eb;" 
d="M391 298l40 137h-155l-40 -137h155zM304 2l65 220h-156l-65 -222h-79v2l65 220h-124l20 76h126l40 137h-121l20 76h124l70 239h79v-2l-70 -237h156l70 239h79v-2l-70 -237h117l-20 -76h-119l-40 -137h114l-20 -76h-117l-65 -222h-79v2z" />
    <glyph glyph-name="Euro.LT" unicode="&#xe024;" 
d="M465 -10c-153 0 -281 84 -319 261h-131l21 74h99c-1 14 -1 28 -1 43c0 18 1 36 2 53h-121l21 74h112c43 180 179 265 317 265c64 0 106 -6 161 -19l18 -121h-2c-42 22 -104 43 -178 43c-70 0 -171 -40 -210 -168h344l-21 -74h-338c-1 -15 -2 -31 -2 -48s1 -33 2 -48h359
l-21 -74h-323c33 -110 113 -176 216 -176c55 0 107 19 164 49h2l-19 -111c-38 -10 -90 -23 -152 -23z" />
    <glyph glyph-name="dollar.LT" unicode="&#xe0a9;" 
d="M302 -143v133c-55 2 -119 18 -166 34l-20 136h2c84 -57 138 -89 212 -89c71 0 108 46 108 103c0 54 -27 93 -88 133l-99 65c-101 67 -126 135 -126 194c0 97 59 173 177 190v87l86 50h2v-134c52 -3 102 -12 127 -19l20 -138h-2c-66 43 -126 71 -201 71
c-58 0 -103 -31 -103 -90c0 -50 22 -78 91 -125l65 -44c92 -62 157 -124 157 -218c0 -78 -42 -169 -154 -197v-92l-86 -50h-2z" />
    <glyph glyph-name="cent.LT" unicode="&#xe09c;" 
d="M315 -143h-2v139c-111 25 -183 128 -183 260c0 143 81 225 183 248v89l86 50h2v-134c40 -3 71 -12 93 -23l20 -117h-2c-46 34 -93 50 -142 50c-76 0 -141 -50 -141 -165c0 -127 62 -188 151 -188c53 0 95 22 133 46h2l-10 -70c-19 -19 -59 -41 -104 -49v-86z" />
    <glyph glyph-name="sterling.LT" unicode="&#xe10f;" 
d="M52 0v2l193 269h-142l20 74h129c-66 84 -114 147 -114 227c0 104 77 188 225 188c42 0 92 -8 131 -20l18 -126h-2c-38 28 -97 61 -155 61c-67 0 -114 -39 -114 -107c0 -73 53 -131 126 -223h189l-20 -74h-184l-129 -181h354v-90h-525z" />
    <glyph glyph-name="florin.LT" unicode="&#xe0c7;" 
d="M148 -165c-19 0 -45 2 -60 6l-12 96h2c20 -8 44 -17 70 -17c49 0 75 38 82 101l42 372h-120l7 77l117 -10l9 118c6 74 39 182 182 182c19 0 45 -2 60 -6l12 -96h-2c-20 8 -44 17 -70 17c-62 0 -77 -48 -89 -123l-15 -93l141 11l-7 -77h-141l-32 -389
c-8 -97 -66 -169 -176 -169z" />
    <glyph glyph-name="yen.LT" unicode="&#xe127;" 
d="M562 206h-174l8 -206h-127l7 206h-189l20 74h172l3 90h-195l20 74h167l-255 304v2h136l185 -251l178 251h124v-2l-253 -304h193l-20 -74h-180l4 -90h196z" />
    <glyph glyph-name="zero.slashLT" unicode="&#xe131;" 
d="M330 -10c-176 0 -261 178 -260 396c0 239 101 374 260 374s260 -135 260 -374c-1 -213 -88 -396 -260 -396zM169 392c0 -65 6 -122 18 -168l242 394c-26 32 -60 49 -99 49c-95 0 -161 -103 -161 -275zM330 72c99 0 161 115 161 319c0 53 -6 99 -17 137l-246 -399
c27 -37 61 -57 102 -57z" />
    <glyph glyph-name="zero.LT" unicode="&#xe12c;" 
d="M330 -10c-176 0 -261 178 -260 396c0 239 101 374 260 374s260 -135 260 -374c-1 -213 -88 -396 -260 -396zM330 72c99 0 161 115 161 319c-1 175 -66 276 -161 276s-161 -103 -161 -275c0 -205 62 -320 161 -320z" />
    <glyph glyph-name="one.LT" unicode="&#xe0f1;" 
d="M269 0l22 607l-131 -51v42l161 152h56l11 -750h-119z" />
    <glyph glyph-name="two.LT" unicode="&#xe11b;" 
d="M82 0v11l215 323c78 114 111 163 111 226c0 68 -45 107 -116 107c-50 0 -100 -30 -149 -64h-2l18 122c37 21 101 35 144 35c140 0 204 -98 204 -195c0 -69 -28 -134 -89 -214l-208 -286l344 37h2l-21 -102h-453z" />
    <glyph glyph-name="three.LT" unicode="&#xe114;" 
d="M292 -10c-52 0 -112 13 -165 35l-20 117h8c74 -44 120 -70 183 -70c96 0 141 63 141 140c0 92 -77 139 -156 139c-26 0 -48 -2 -74 -9v35l173 305l-272 -26h-2l20 94h407v-10l-208 -311c136 -3 211 -98 211 -210c0 -98 -57 -229 -246 -229z" />
    <glyph glyph-name="four.LT" unicode="&#xe0cb;" 
d="M642 250h-185l8 -250h-110l8 250h-358v18l442 494h18l-11 -433h188v-79zM365 329l-3 223l-206 -223h209z" />
    <glyph glyph-name="five.LT" unicode="&#xe0c0;" 
d="M300 -10c-52 0 -108 12 -165 35l-20 117h8c105 -64 139 -70 186 -70c93 0 138 61 138 148c0 79 -61 131 -158 131c-40 0 -81 -13 -111 -26h-14l-13 425h379l15 -97h-2l-286 39l-11 -269c18 8 50 13 82 13c120 0 218 -86 218 -207c0 -116 -65 -239 -246 -239z" />
    <glyph glyph-name="six.LT" unicode="&#xe109;" 
d="M567 227c0 -120 -83 -237 -238 -237c-160 0 -236 122 -236 243c0 95 70 199 108 271l131 246h133v-2l-238 -345c48 38 89 47 129 47c117 0 211 -92 211 -223zM192 217c0 -78 46 -145 137 -145c92 0 139 65 139 145c0 81 -48 140 -140 140c-66 0 -136 -43 -136 -140z" />
    <glyph glyph-name="seven.LT" unicode="&#xe103;" 
d="M130 0v2l323 653h-363v95h482v-8l-317 -742h-125z" />
    <glyph glyph-name="eight.LT" unicode="&#xe0b0;" 
d="M330 -10c-154 0 -238 122 -238 231c0 81 39 152 116 187c-48 35 -82 92 -82 166c0 107 78 186 204 186s204 -79 204 -186c0 -75 -35 -131 -82 -166c76 -36 116 -107 116 -187c0 -110 -84 -231 -238 -231zM330 441c71 0 105 61 105 118c0 53 -34 108 -105 108
s-105 -55 -105 -108c0 -56 34 -118 105 -118zM330 72c94 0 139 71 139 144c0 75 -49 138 -139 138s-139 -60 -139 -138c0 -72 45 -144 139 -144z" />
    <glyph glyph-name="nine.LT" unicode="&#xe0e5;" 
d="M96 524c0 124 82 226 235 226c158 0 233 -106 233 -232c0 -97 -64 -204 -102 -276l-134 -252h-133v2l241 351c-49 -39 -91 -47 -132 -47c-115 0 -208 104 -208 228zM465 524c0 71 -45 132 -134 132c-90 0 -136 -59 -136 -132c0 -85 47 -147 137 -147c65 0 133 45 133 147
z" />
    <glyph glyph-name="zerosuperior" unicode="&#x2070;" horiz-adv-x="385" 
d="M192 332c-93 0 -152 98 -152 222c0 123 54 201 152 201c99 0 153 -78 153 -201c0 -121 -59 -222 -153 -222zM192 395c52 0 70 69 70 151c0 95 -24 138 -70 138s-70 -44 -70 -137c0 -83 18 -152 70 -152z" />
    <glyph glyph-name="onesuperior" unicode="&#xb9;" horiz-adv-x="246" 
d="M79 337l24 321l-78 -30v38l97 84h47l12 -413h-102z" />
    <glyph glyph-name="twosuperior" unicode="&#xb2;" horiz-adv-x="347" 
d="M15 337v5l131 180c41 56 54 81 54 110c0 35 -26 52 -59 52c-32 0 -59 -16 -83 -36h-6l10 88c19 10 59 19 91 19c88 0 130 -52 130 -110c0 -54 -23 -94 -78 -159l-81 -95l176 40h7l-13 -94h-279z" />
    <glyph glyph-name="threesuperior" unicode="&#xb3;" horiz-adv-x="344" 
d="M151 332c-30 0 -67 8 -97 20l-11 86h6c46 -26 77 -43 113 -43c38 0 64 26 64 67s-35 64 -82 64c-18 0 -32 -2 -42 -5v26l73 140l-129 -21h-6l11 84h253v-6l-114 -156c83 -13 119 -58 119 -123c0 -57 -37 -133 -158 -133z" />
    <glyph glyph-name="foursuperior" unicode="&#x2074;" horiz-adv-x="430" 
d="M405 447h-104l8 -110h-93l8 110h-204v31l277 277h19l-17 -244h106v-64zM225 511l-5 84l-84 -84h89z" />
    <glyph glyph-name="fivesuperior" unicode="&#x2075;" horiz-adv-x="338" 
d="M150 332c-29 0 -65 7 -94 18l-11 86h6c47 -28 78 -41 104 -41c39 0 60 27 60 64c0 36 -26 58 -67 58c-24 0 -49 -9 -67 -17h-8l-18 250h220l12 -84h-7l-143 22l-9 -111c9 3 27 8 42 8c79 0 128 -49 128 -119c0 -63 -38 -134 -148 -134z" />
    <glyph glyph-name="sixsuperior" unicode="&#x2076;" horiz-adv-x="359" 
d="M324 475c0 -68 -51 -143 -146 -143c-97 0 -143 76 -143 141c0 59 43 123 72 167l73 110h108v-7l-153 -159c21 14 42 19 61 19c68 0 128 -52 128 -128zM113 464c0 -33 22 -69 65 -69c45 0 67 35 67 69c0 35 -23 65 -67 65c-31 0 -65 -23 -65 -65z" />
    <glyph glyph-name="sevensuperior" unicode="&#x2077;" horiz-adv-x="320" 
d="M53 337v6l164 329h-187v78h275v-6l-156 -407h-96z" />
    <glyph glyph-name="eightsuperior" unicode="&#x2078;" horiz-adv-x="367" 
d="M184 332c-93 0 -144 67 -144 125c0 48 20 85 64 104c-27 20 -45 52 -45 93c0 58 48 101 125 101s124 -43 124 -101c0 -41 -18 -73 -45 -93c44 -19 64 -56 64 -104c0 -59 -51 -125 -143 -125zM184 586c30 0 45 29 45 56c0 21 -15 42 -45 42s-45 -21 -45 -42
c0 -27 15 -56 45 -56zM184 395c42 0 63 38 63 67c0 34 -22 63 -63 63c-42 0 -64 -28 -64 -63c0 -29 21 -67 64 -67z" />
    <glyph glyph-name="ninesuperior" unicode="&#x2079;" horiz-adv-x="356" 
d="M35 622c0 65 50 133 144 133c96 0 142 -62 142 -131c0 -62 -42 -131 -72 -177l-71 -110h-108v6l152 162c-19 -13 -37 -17 -54 -17c-78 0 -133 57 -133 134zM243 621c0 31 -22 62 -65 62s-64 -30 -64 -63c0 -34 20 -68 68 -68c34 0 61 27 61 69z" />
    <glyph glyph-name="zeroinferior" unicode="&#x2080;" horiz-adv-x="385" 
d="M192 -255c-93 0 -152 98 -152 222c0 123 54 201 152 201c99 0 153 -78 153 -201c0 -121 -59 -222 -153 -222zM192 -192c52 0 70 69 70 151c0 95 -24 138 -70 138s-70 -44 -70 -137c0 -83 18 -152 70 -152z" />
    <glyph glyph-name="oneinferior" unicode="&#x2081;" horiz-adv-x="246" 
d="M79 -250l24 321l-78 -30v38l97 84h47l12 -413h-102z" />
    <glyph glyph-name="twoinferior" unicode="&#x2082;" horiz-adv-x="347" 
d="M15 -250v5l131 180c41 56 54 81 54 110c0 35 -26 52 -59 52c-32 0 -59 -16 -83 -36h-6l10 88c19 10 59 19 91 19c88 0 130 -52 130 -110c0 -54 -23 -94 -78 -159l-81 -95l176 40h7l-13 -94h-279z" />
    <glyph glyph-name="threeinferior" unicode="&#x2083;" horiz-adv-x="344" 
d="M151 -255c-30 0 -67 8 -97 20l-11 86h6c46 -26 77 -43 113 -43c38 0 64 26 64 67s-35 64 -82 64c-18 0 -32 -2 -42 -5v26l73 140l-129 -21h-6l11 84h253v-6l-114 -156c83 -13 119 -58 119 -123c0 -57 -37 -133 -158 -133z" />
    <glyph glyph-name="fourinferior" unicode="&#x2084;" horiz-adv-x="430" 
d="M405 -140h-104l8 -110h-93l8 110h-204v31l277 277h19l-17 -244h106v-64zM225 -76l-5 84l-84 -84h89z" />
    <glyph glyph-name="fiveinferior" unicode="&#x2085;" horiz-adv-x="338" 
d="M150 -255c-29 0 -65 7 -94 18l-11 86h6c47 -28 78 -41 104 -41c39 0 60 27 60 64c0 36 -26 58 -67 58c-24 0 -49 -9 -67 -17h-8l-18 250h220l12 -84h-7l-143 22l-9 -111c9 3 27 8 42 8c79 0 128 -49 128 -119c0 -63 -38 -134 -148 -134z" />
    <glyph glyph-name="sixinferior" unicode="&#x2086;" horiz-adv-x="359" 
d="M324 -112c0 -68 -51 -143 -146 -143c-97 0 -143 76 -143 141c0 59 43 123 72 167l73 110h108v-7l-153 -159c21 14 42 19 61 19c68 0 128 -52 128 -128zM113 -123c0 -33 22 -69 65 -69c45 0 67 35 67 69c0 35 -23 65 -67 65c-31 0 -65 -23 -65 -65z" />
    <glyph glyph-name="seveninferior" unicode="&#x2087;" horiz-adv-x="320" 
d="M53 -250v6l164 329h-187v78h275v-6l-156 -407h-96z" />
    <glyph glyph-name="eightinferior" unicode="&#x2088;" horiz-adv-x="367" 
d="M184 -255c-93 0 -144 67 -144 125c0 48 20 85 64 104c-27 20 -45 52 -45 93c0 58 48 101 125 101s124 -43 124 -101c0 -41 -18 -73 -45 -93c44 -19 64 -56 64 -104c0 -59 -51 -125 -143 -125zM184 -1c30 0 45 29 45 56c0 21 -15 42 -45 42s-45 -21 -45 -42
c0 -27 15 -56 45 -56zM184 -192c42 0 63 38 63 67c0 34 -22 63 -63 63c-42 0 -64 -28 -64 -63c0 -29 21 -67 64 -67z" />
    <glyph glyph-name="nineinferior" unicode="&#x2089;" horiz-adv-x="356" 
d="M35 35c0 65 50 133 144 133c96 0 142 -62 142 -131c0 -62 -42 -131 -72 -177l-71 -110h-108v6l152 162c-19 -13 -37 -17 -54 -17c-78 0 -133 57 -133 134zM243 34c0 31 -22 62 -65 62s-64 -30 -64 -63c0 -34 20 -68 68 -68c34 0 61 27 61 69z" />
    <glyph glyph-name="fraction" unicode="&#x2044;" horiz-adv-x="720" 
d="M111 0h-101v2l599 748h101v-2z" />
    <glyph glyph-name="onequarter" unicode="&#xbc;" horiz-adv-x="780" 
d="M79 337l24 321l-78 -30v38l97 84h47l12 -413h-102zM136 0h-101v2l599 748h101v-2zM755 111h-104l8 -110h-93l8 110h-204v31l277 277h19l-17 -244h106v-64zM575 175l-5 84l-84 -84h89z" />
    <glyph glyph-name="onehalf" unicode="&#xbd;" horiz-adv-x="859" 
d="M79 337l24 321l-78 -30v38l97 84h47l12 -413h-102zM136 0h-101v2l599 748h101v-2zM527 0v5l131 180c41 56 54 81 54 110c0 35 -26 52 -59 52c-32 0 -59 -16 -83 -36h-6l10 88c19 10 59 19 91 19c88 0 130 -52 130 -110c0 -54 -23 -94 -78 -159l-81 -95l176 40h7l-13 -94
h-279z" />
    <glyph glyph-name="threequarters" unicode="&#xbe;" horiz-adv-x="846" 
d="M202 0h-101v2l599 748h101v-2zM151 333c-30 0 -67 8 -97 20l-11 86h6c46 -26 77 -43 113 -43c38 0 64 26 64 67s-35 64 -82 64c-18 0 -32 -2 -42 -5v26l73 140l-129 -21h-6l11 84h253v-6l-114 -156c83 -13 119 -58 119 -123c0 -57 -37 -133 -158 -133zM821 111h-104
l8 -110h-93l8 110h-204v31l277 277h19l-17 -244h106v-64zM641 175l-5 84l-84 -84h89z" />
    <glyph glyph-name="percent" unicode="%" horiz-adv-x="924" 
d="M192 336c-93 0 -152 98 -152 222c0 123 54 201 152 201c99 0 153 -78 153 -201c0 -121 -59 -222 -153 -222zM211 0h-101v2l599 748h101v-2zM192 399c52 0 70 69 70 151c0 95 -24 138 -70 138s-70 -44 -70 -137c0 -83 18 -152 70 -152zM731 -10c-93 0 -152 98 -152 222
c0 123 54 201 152 201c99 0 153 -78 153 -201c0 -121 -59 -222 -153 -222zM731 53c52 0 70 69 70 151c0 95 -24 138 -70 138s-70 -44 -70 -137c0 -83 18 -152 70 -152z" />
    <glyph glyph-name="perthousand" unicode="&#x2030;" horiz-adv-x="1288" 
d="M192 336c-93 0 -152 98 -152 222c0 123 54 201 152 201c99 0 153 -78 153 -201c0 -121 -59 -222 -153 -222zM211 0h-101v2l599 748h101v-2zM192 399c52 0 70 69 70 151c0 95 -24 138 -70 138s-70 -44 -70 -137c0 -83 18 -152 70 -152zM1095 -10c-93 0 -152 98 -152 222
c0 123 54 201 152 201c99 0 153 -78 153 -201c0 -121 -59 -222 -153 -222zM731 -10c-93 0 -152 98 -152 222c0 123 54 201 152 201c99 0 153 -78 153 -201c0 -121 -59 -222 -153 -222zM1095 53c52 0 70 69 70 151c0 95 -24 138 -70 138s-70 -44 -70 -137
c0 -83 18 -152 70 -152zM731 53c52 0 70 69 70 151c0 95 -24 138 -70 138s-70 -44 -70 -137c0 -83 18 -152 70 -152z" />
    <glyph glyph-name="plus" unicode="+" horiz-adv-x="550" 
d="M471 234h-154v-154l-84 -10v164h-164l10 84h154v154l84 10v-164h164z" />
    <glyph glyph-name="minus" unicode="&#x2212;" horiz-adv-x="550" 
d="M471 234h-402l10 84h402z" />
    <glyph glyph-name="plusminus" unicode="&#xb1;" horiz-adv-x="550" 
d="M471 259h-154v-129l-84 -10v139h-164l10 84h154v129l84 10v-139h164zM471 0h-402l10 81h402z" />
    <glyph glyph-name="multiply" unicode="&#xd7;" horiz-adv-x="550" 
d="M461 417l-127 -127l127 -127l-52 -66l-134 134l-134 -134l-52 66l127 127l-127 127l52 66l134 -134l134 134z" />
    <glyph glyph-name="divide" unicode="&#xf7;" horiz-adv-x="550" 
d="M274 489c31 0 56 -17 56 -54c0 -34 -25 -56 -56 -56c-29 0 -55 22 -55 56c0 37 26 54 55 54zM471 234h-402l10 84h402zM274 170c31 0 56 -17 56 -54c0 -34 -25 -56 -56 -56c-29 0 -55 22 -55 56c0 37 26 54 55 54z" />
    <glyph glyph-name="equal" unicode="=" horiz-adv-x="550" 
d="M471 346h-402l10 84h402zM471 122h-402l10 84h402z" />
    <glyph glyph-name="notequal" unicode="&#x2260;" horiz-adv-x="550" 
d="M471 122h-254l-55 -82h-88v2l54 80h-59l10 84h105l94 140h-209l10 84h255l54 80h88v-2l-52 -78h57l-10 -84h-104l-94 -140h208z" />
    <glyph glyph-name="asciitilde" unicode="~" horiz-adv-x="550" 
d="M366 194c-97 0 -119 82 -178 82c-34 0 -42 -28 -42 -82l-72 20c4 84 30 144 110 144c98 0 119 -82 178 -82c34 0 42 28 42 82l72 -19c-3 -84 -29 -145 -110 -145z" />
    <glyph glyph-name="approxequal" unicode="&#x2248;" horiz-adv-x="550" 
d="M366 303c-97 0 -119 82 -178 82c-34 0 -42 -28 -42 -82l-72 20c4 84 30 144 110 144c98 0 119 -82 178 -82c34 0 42 28 42 82l72 -19c-3 -84 -29 -145 -110 -145zM366 104c-97 0 -119 82 -178 82c-34 0 -42 -28 -42 -82l-72 20c4 84 30 144 110 144c98 0 119 -82 178 -82
c34 0 42 28 42 82l72 -19c-3 -84 -29 -145 -110 -145z" />
    <glyph glyph-name="asciicircum" unicode="^" horiz-adv-x="551" 
d="M51 358l186 392h78l185 -392h-108l-117 306l-116 -306h-108z" />
    <glyph glyph-name="less" unicode="&#x3c;" horiz-adv-x="550" 
d="M64 272v61l402 187v-105l-299 -114l299 -113v-105z" />
    <glyph glyph-name="greater" unicode="&#x3e;" horiz-adv-x="550" 
d="M486 332v-61l-402 -187v105l299 114l-299 113v105z" />
    <glyph glyph-name="lessequal" unicode="&#x2264;" horiz-adv-x="550" 
d="M54 312v61l402 187v-105l-299 -114l299 -113v-105zM466 0h-402v83l402 -10v-73z" />
    <glyph glyph-name="greaterequal" unicode="&#x2265;" horiz-adv-x="550" 
d="M496 371v-61l-402 -187v105l299 114l-299 113v105zM84 73l402 10v-83h-402v73z" />
    <glyph glyph-name="logicalnot" unicode="&#xac;" horiz-adv-x="551" 
d="M469 60l-78 10v157h-329l10 78h397v-245z" />
    <glyph glyph-name="currency" unicode="&#xa4;" horiz-adv-x="550" 
d="M409 97l-73 73c-18 -10 -39 -15 -61 -15s-43 5 -61 15l-73 -73l-52 66l66 66c-10 18 -15 39 -15 61s5 43 15 61l-66 66l52 66l73 -73c18 10 39 15 61 15s43 -5 61 -15l73 73l52 -66l-66 -66c9 -18 14 -39 14 -61s-5 -43 -14 -61l66 -66zM275 218c39 0 71 32 71 72
s-32 72 -71 72c-40 0 -72 -32 -72 -72s32 -72 72 -72z" />
    <glyph glyph-name="infinity" unicode="&#x221e;" horiz-adv-x="878" 
d="M275 169l108 122l-116 134h-7c-83 0 -124 -52 -124 -121c0 -74 57 -135 139 -135zM603 169c82 0 139 61 139 135c0 70 -44 121 -124 121h-4l-118 -132zM554 94l-116 134l-121 -134h-32c-167 0 -240 114 -240 213c0 117 83 203 235 203h28l133 -154l136 154h21
c152 0 235 -86 235 -203c0 -99 -73 -213 -240 -213h-39z" />
    <glyph glyph-name="lozenge" unicode="&#x25ca;" horiz-adv-x="550" 
d="M277 0h-4l-249 374v2l249 374h4l249 -374v-2zM275 610l-152 -235l152 -235l152 235z" />
    <glyph glyph-name="Delta" unicode="&#x2206;" horiz-adv-x="800" 
d="M394 750h12l340 -741v-9h-692v9zM185 79h426l-214 471z" />
    <glyph glyph-name="Omega" unicode="&#x2126;" horiz-adv-x="800" 
d="M400 661c-141 -3 -213 -98 -213 -211c0 -125 45 -238 146 -394v-56h-252v121l170 -59c-136 178 -170 262 -170 392c0 176 112 306 319 306s319 -130 319 -306c0 -130 -34 -214 -170 -392l170 59v-121h-252v56c101 156 146 269 146 394c0 113 -72 208 -213 211z" />
    <glyph glyph-name="partialdiff" unicode="&#x2202;" horiz-adv-x="601" 
d="M300 -10c-151 0 -234 122 -234 268c0 138 84 252 234 252c23 0 45 -3 65 -8c-51 81 -135 159 -250 238v10h103c244 -152 317 -337 317 -492c0 -147 -83 -268 -235 -268zM300 66c92 0 135 83 135 190c0 87 -47 163 -135 163s-135 -75 -135 -163c0 -106 43 -190 135 -190z
" />
    <glyph glyph-name="integral" unicode="&#x222b;" horiz-adv-x="370" 
d="M233 543v-586c3 -81 -23 -207 -172 -207c-19 0 -45 1 -62 6l-20 96h2c20 -8 46 -17 72 -17c69 0 82 56 85 142l-1 586c-3 81 23 207 173 207c19 0 45 -1 61 -6l20 -96h-2c-20 8 -45 17 -71 17c-69 0 -82 -56 -85 -142z" />
    <glyph glyph-name="radical" unicode="&#x221a;" 
d="M346 0h-30l-185 374l-108 -26h-2v96h182l123 -298l207 604h107v-2z" />
    <glyph glyph-name="summation" unicode="&#x2211;" horiz-adv-x="620" 
d="M523 306v-2l-300 -365l339 20l-10 -99h-494v30l343 415l-343 415v30h494l10 -99l-339 20z" />
    <glyph glyph-name="product" unicode="&#x220f;" horiz-adv-x="701" 
d="M248 -140h-114l13 809l-106 -16v97h619v-97l-106 16l13 -809h-114l12 813h-229z" />
    <glyph glyph-name="pi" unicode="&#x3c0;" horiz-adv-x="637" 
d="M578 25c-16 -18 -48 -35 -83 -35c-70 0 -126 57 -121 166l13 267h-165l12 -423h-112l13 419l-110 -16v97h559v-97l-109 16l-3 -246c-1 -79 33 -107 70 -107c17 0 31 5 44 14h2z" />
    <glyph glyph-name="mu" unicode="&#xb5;" horiz-adv-x="562" 
d="M215 -10c-14 0 -28 2 -40 6l5 -246h-117l20 483l-2 136l-21 129v2h122l-6 -294c-2 -91 35 -116 92 -116c40 0 83 18 116 41l-10 369h112l-12 -369l18 -129v-2h-104l-2 78l-23 -20c-44 -37 -94 -68 -148 -68z" />
    <glyph glyph-name="degree" unicode="&#xb0;" horiz-adv-x="436" 
d="M218 760c111 0 163 -71 163 -157c0 -83 -51 -168 -163 -168s-163 85 -163 168c0 86 52 157 163 157zM218 498c57 0 76 51 76 98c0 43 -20 85 -76 85c-55 0 -75 -42 -75 -85c0 -46 18 -98 75 -98z" />
    <glyph glyph-name="litre" unicode="&#x2113;" horiz-adv-x="439" 
d="M250 -10c-56 0 -116 9 -139 145l-79 -79h-2v106l72 74v32v267c0 167 54 225 145 225c107 0 142 -81 142 -189c0 -120 -44 -201 -135 -292l-65 -66c4 -95 22 -147 87 -147c32 0 56 6 71 14h2l-10 -55c-32 -29 -69 -35 -89 -35zM187 330v-6c62 64 116 130 116 231
c0 88 -22 114 -56 114c-33 0 -60 -20 -60 -150v-189z" />
    <glyph glyph-name="estimated" unicode="&#x212e;" horiz-adv-x="771" 
d="M673 126c-60 -86 -159 -136 -271 -136c-187 0 -342 134 -342 336c0 178 127 324 326 324s325 -151 325 -334c0 -15 -1 -28 -3 -42h-522v-133c51 -61 131 -96 217 -96c116 0 220 71 264 158h6v-77zM386 596c-85 0 -154 -33 -200 -87v-183h391v193c-46 47 -111 77 -191 77z
" />
    <glyph glyph-name="ampersand" unicode="&#x26;" horiz-adv-x="751" 
d="M211 660l103 -135l121 135h-224zM244 83c58 0 88 45 147 118l25 31l-110 145l-81 -90c-38 -42 -63 -79 -63 -126c0 -43 32 -78 82 -78zM466 148c-75 -92 -121 -158 -228 -158c-120 0 -178 87 -178 166c0 70 30 119 75 169l114 127l-157 206v92h447v-116l-167 -184
l108 -140l183 226h2v-143l-128 -158l179 -233v-2h-123l-120 157z" />
    <glyph glyph-name="ampersand.small" unicode="&#xe087;" horiz-adv-x="666" 
d="M172 525l93 -107l114 107h-207zM225 81c37 0 64 25 121 84l9 10l-100 116l-43 -40c-38 -36 -60 -60 -60 -102c0 -41 30 -68 73 -68zM401 94c-60 -64 -107 -104 -183 -104c-101 0 -166 66 -166 151c0 90 56 131 131 201l16 15l-140 162v87h414v-109l-152 -143l98 -113
l154 162h2v-123l-99 -106l150 -172v-2h-120l-92 107z" />
    <glyph glyph-name="longs" unicode="&#x17f;" horiz-adv-x="335" 
d="M204 0h-109l13 433h-83v77l80 -10l-2 63c-3 81 22 207 166 207c19 0 45 -1 61 -6l20 -96h-2c-20 8 -45 17 -71 17c-68 0 -81 -56 -84 -142l-1 -110z" />
    <glyph glyph-name="arrowleft" unicode="&#x2190;" horiz-adv-x="697" 
d="M50 298v10l256 224h89l-189 -195l441 27v-122l-441 27l189 -195h-89z" />
    <glyph glyph-name="arrowright" unicode="&#x2192;" horiz-adv-x="697" 
d="M647 306v-10l-256 -224h-89l189 195l-441 -27v122l441 -27l-189 195h89z" />
    <glyph glyph-name="arrowup" unicode="&#x2191;" horiz-adv-x="558" 
d="M274 597h10l224 -256v-89l-195 189l27 -441h-122l27 441l-195 -189v89z" />
    <glyph glyph-name="arrowdown" unicode="&#x2193;" horiz-adv-x="558" 
d="M284 1h-10l-224 256v89l195 -189l-27 441h122l-27 -441l195 189v-89z" />
    <glyph glyph-name="arrowupleft" unicode="&#x2196;" horiz-adv-x="569" 
d="M50 492l7 7l340 -23l63 -62l-272 -5l331 -292l-86 -87l-293 331l-4 -271l-63 63z" />
    <glyph glyph-name="arrowupright" unicode="&#x2197;" horiz-adv-x="569" 
d="M512 499l7 -7l-23 -340l-62 -63l-5 272l-292 -331l-87 86l331 293l-271 4l63 63z" />
    <glyph glyph-name="arrowdownleft" unicode="&#x2199;" horiz-adv-x="569" 
d="M57 30l-7 7l23 340l62 63l5 -272l292 331l87 -86l-331 -293l271 -4l-63 -63z" />
    <glyph glyph-name="arrowdownright" unicode="&#x2198;" horiz-adv-x="569" 
d="M519 37l-7 -7l-340 23l-63 62l272 5l-331 292l86 87l293 -331l4 271l63 -63z" />
    <glyph glyph-name="chevronleft" unicode="&#xe0a0;" horiz-adv-x="635" 
d="M40 381l401 369h154l-431 -374l431 -376h-154l-401 371v10z" />
    <glyph glyph-name="chevronright" unicode="&#xe0a1;" horiz-adv-x="635" 
d="M595 369l-401 -369h-154l431 374l-431 376h154l401 -371v-10z" />
    <glyph glyph-name="chevronup" unicode="&#xe0a2;" horiz-adv-x="860" 
d="M436 654l369 -401v-154l-374 431l-376 -431v154l371 401h10z" />
    <glyph glyph-name="chevrondown" unicode="&#xe09f;" horiz-adv-x="860" 
d="M424 98l-369 401v154l374 -431l376 431v-154l-371 -401h-10z" />
    <glyph glyph-name="A_D_E" unicode="&#xe0b9;" horiz-adv-x="1211" 
d="M515 394l-9 224l-198 -333h203zM893 184h-274l4 -100h124c182 0 293 110 293 310c-1 167 -106 266 -277 266h-141l-4 -89h270l11 -89h-4l-280 27l-5 -99l272 4l-5 -75l-266 14l5 -112l283 36h4zM501 0l8 218h-240l-130 -218h-134v2l496 741v7h271
c219 0 374 -122 374 -361c0 -219 -147 -389 -399 -389h-246z" />
    <glyph glyph-name="A_N" unicode="&#xe0ba;" horiz-adv-x="1186" 
d="M489 285l10 321l-191 -321h181zM480 0l7 218h-218l-130 -218h-134v2l499 748h33l468 -563l-20 563h116l-34 -750h-31l-465 557l29 -557h-120z" />
    <glyph glyph-name="A_N_T" unicode="&#xe0bb;" horiz-adv-x="1375" 
d="M490 285l11 324l-193 -324h182zM480 0l8 218h-219l-130 -218h-134v2l501 748h31l468 -563l-17 488l-264 -46h-2l21 121h601l21 -121h-2l-265 46l-31 -675h-31l-465 557l25 -557h-116z" />
    <glyph glyph-name="A_R" unicode="&#xe0bc;" horiz-adv-x="1042" 
d="M506 0l8 218h-245l-130 -218h-134v2l501 748l5 -124l-203 -341h209l4 109l-15 356h202c143 0 225 -77 225 -185c0 -95 -48 -169 -157 -199l241 -364v-2h-144l-179 353v56c85 10 136 54 136 132c0 65 -46 119 -144 119h-58l-12 -266l16 -394h-126z" />
    <glyph glyph-name="A_S_S_E" unicode="&#xe0bd;" horiz-adv-x="1584" 
d="M1051 78c56 0 88 38 88 93c0 45 -25 79 -62 112l-114 101c-77 69 -96 140 -96 200c0 6 0 12 1 18h-1c-60 39 -123 69 -176 69c-48 0 -82 -26 -82 -75c0 -39 16 -69 60 -116l106 -112c54 -57 96 -106 96 -185c0 -5 0 -10 -1 -14c71 -57 124 -91 181 -91zM503 584
c0 12 1 25 3 36l-187 -320h373l-93 92c-72 71 -96 134 -96 192zM144 0h-139v2l464 749h2l46 -97c26 60 89 101 188 101c57 0 116 -7 144 -15l19 -134c11 82 84 144 218 144h413l20 -104h-2l-433 25h-13c-62 0 -98 -30 -98 -86c0 -34 14 -69 60 -113l58 -55l411 10l-10 -93
l-334 19c51 -51 87 -101 87 -174c0 -36 -10 -75 -35 -108l317 44h2l-21 -115h-463c-45 0 -118 14 -157 35l-19 124c-10 -77 -71 -159 -219 -159c-47 0 -110 14 -146 34l-20 136h2c80 -64 130 -92 186 -92c66 0 93 42 93 93c0 24 -6 44 -16 62h-469z" />
    <glyph glyph-name="A_U" unicode="&#xe0be;" horiz-adv-x="1196" 
d="M807 -10c-151 0 -249 85 -279 228h-259l-130 -218h-134v2l501 748h123l-20 -432c0 -162 82 -242 198 -242c118 0 196 80 196 242l-19 432h122l-12 -432c0 -203 -102 -328 -287 -328zM518 318l-8 305l-202 -338h211c-1 11 -1 22 -1 33z" />
    <glyph glyph-name="A_V" unicode="&#xe0c5;" horiz-adv-x="966" 
d="M484 285l-139 358l-118 -358h257zM595 0l-85 218h-305l-72 -218h-128v2l298 748h103l229 -608l193 608h128v-2l-294 -748h-67z" />
    <glyph glyph-name="C_H" unicode="&#xe150;" horiz-adv-x="787" 
d="M710 44c-40 -21 -135 -54 -236 -54c-241 0 -409 143 -409 388c0 246 158 382 421 382c97 0 183 -19 231 -35l20 -142h-2c-71 48 -157 78 -270 78c-137 0 -295 -69 -295 -281c0 -181 108 -305 306 -305c86 0 175 29 252 84h2zM549 183l9 162h-169l8 -162h-94l10 198
l-10 179h94l-9 -154h170l-9 154h94l-10 -179l10 -198h-94z" />
    <glyph glyph-name="D_E" unicode="&#xe151;" horiz-adv-x="805" 
d="M95 0l14 394l-14 356h271c219 0 374 -122 374 -361c0 -219 -147 -389 -399 -389h-246zM487 184h-274l4 -100h124c182 0 293 110 293 310c-1 167 -106 266 -277 266h-141l-4 -89h270l11 -89h-4l-280 27l-5 -99l272 4l-5 -75l-266 14l5 -112l283 36h4z" />
    <glyph glyph-name="D_U" unicode="&#xe152;" horiz-adv-x="1297" 
d="M908 -10c-130 0 -221 63 -263 171c-65 -99 -175 -161 -316 -161h-234l14 394l-14 356h251c204 0 364 -122 364 -361v-71c0 -162 82 -242 198 -242c118 0 196 80 196 242l-19 432h122l-12 -432c0 -203 -102 -328 -287 -328zM203 394l14 -310h112c161 0 275 110 275 310
c-1 167 -111 266 -257 266h-131z" />
    <glyph glyph-name="E_A_U" unicode="&#xe153;" horiz-adv-x="1392" 
d="M1135 274c63 0 126 46 126 118c0 41 -13 76 -43 126l-155 232h135l100 -184c35 -59 54 -121 54 -174c0 -119 -109 -203 -222 -203c-93 0 -171 55 -231 157l-261 404h146l194 -359c51 -84 99 -117 157 -117zM484 285h188l-183 333l-9 -224zM76 0l-21 115h2l316 -56l13 311
l-274 -28l-10 93l284 -9l-12 262l-307 -42h-2l20 104h409l471 -748v-2h-136l-120 218h-223l8 -218h-418z" />
    <glyph glyph-name="E_L_L_E" unicode="&#xe154;" horiz-adv-x="1242" 
d="M643 202l14 291l-14 257h123l-19 -483l229 54h2l-19 -119h-316zM920 393l14 176l-14 181h249l19 -91h-2l-168 32l-8 -92l142 8l-8 -77l-136 23l10 -105l172 36h2l-18 -91h-254zM76 0l-21 115h2l318 -47l11 293l-274 -19l-10 93l284 -9l-10 251l-304 -31h-2l20 104h406
l-19 -687l321 63h2l-20 -126h-704z" />
    <glyph glyph-name="E_N" unicode="&#xe155;" horiz-adv-x="1099" 
d="M76 0l-21 115h2l338 -49l8 296l-291 -20l-10 93l303 -9l7 252l-340 -32h-2l20 104h360l468 -563l-20 563h116l-34 -750h-31l-465 557l25 -557h-433z" />
    <glyph glyph-name="E_N_T" unicode="&#xe156;" horiz-adv-x="1288" 
d="M76 0l-21 115h2l338 -49l8 296l-291 -20l-10 93l303 -9l7 252l-340 -32h-2l20 104h360l468 -563l-17 488l-264 -46h-2l21 121h601l21 -121h-2l-265 46l-31 -675h-31l-465 557l25 -557h-433z" />
    <glyph glyph-name="E_R" unicode="&#xe157;" horiz-adv-x="933" 
d="M76 0l-21 115h2l342 -56l12 305l-299 -22l-10 93l309 -10l-11 263l-328 -42h-2l20 104h509c143 0 225 -77 225 -185c0 -95 -48 -169 -157 -199l241 -364v-2h-144l-179 353v56c85 10 136 54 136 132c0 65 -46 119 -144 119h-58l-12 -266l16 -394h-447z" />
    <glyph glyph-name="E_S_S_E" unicode="&#xe158;" horiz-adv-x="1419" 
d="M886 78c56 0 88 38 88 93c0 45 -25 79 -62 112l-114 101c-77 69 -96 140 -96 200v8c-60 41 -118 79 -179 79h-2l-11 -1c-40 -4 -66 -28 -66 -74c0 -39 16 -69 60 -116l106 -112c54 -57 96 -106 96 -185c0 -5 0 -10 -1 -14c71 -57 124 -91 181 -91zM704 159
c-9 -75 -66 -156 -210 -159h-418l-21 115h2l444 -37c76 0 99 45 99 95c0 52 -29 84 -66 120l-64 63l-377 -21l-10 93l325 -8c-52 60 -70 114 -70 164c0 28 6 55 19 78l-290 -16h-2l20 104h455c57 0 116 -12 144 -20l19 -130c8 86 81 150 218 150h413l20 -104h-2l-433 25h-13
c-62 0 -98 -30 -98 -86c0 -34 14 -69 60 -113l58 -55l411 10l-10 -93l-334 19c51 -51 87 -101 87 -174c0 -36 -10 -75 -35 -108l317 44h2l-21 -115h-463c-45 0 -118 14 -157 35z" />
    <glyph glyph-name="E_T_T_E" unicode="&#xe159;" horiz-adv-x="1245" 
d="M106 0l-16 110h4l278 -52l5 174l-244 -26l-8 89l254 -8l5 160l-275 -41h-4l17 100h264l5 167l-349 -44h-2l21 121h1123l21 -121h-2l-348 44l5 -168h239l17 -100h-4l-250 37l5 -155l229 7l-8 -88l-219 23l5 -166l253 47h4l-16 -110h-365l21 673h-296l21 -673h-390z" />
    <glyph glyph-name="E_U" unicode="&#xe15a;" horiz-adv-x="1120" 
d="M734 0h-658l-21 115h2l473 -41c-57 57 -88 144 -88 254l-1 36l-329 -22l-10 93l337 -10l-7 253l-360 -32h-2l20 104h463l-20 -422c0 -162 82 -242 198 -242c118 0 196 80 196 242l-19 422h122l-12 -422c0 -203 -102 -328 -284 -328z" />
    <glyph glyph-name="G_N" unicode="&#xe15b;" horiz-adv-x="1142" 
d="M638 51c-39 -30 -128 -61 -224 -61c-206 0 -349 142 -349 386c0 239 155 384 396 384c99 0 202 -23 277 -75l19 -134h-2c-81 65 -187 110 -305 110c-131 0 -281 -70 -281 -286c0 -179 97 -300 257 -300c38 0 92 11 123 29l-28 251v2l117 80l315 -301l-12 614h116
l-28 -750h-73l-318 304v-253z" />
    <glyph glyph-name="H_O_M_O" unicode="&#xe15c;" horiz-adv-x="2034" 
d="M798 394l8 -314c117 26 202 136 202 300c-1 148 -80 251 -203 274zM706 428l-10 226c-109 -21 -184 -106 -199 -226h209zM1113 377c0 -213 -143 -389 -362 -389c-212 0 -352 159 -362 365h-186l15 -353h-123l13 394l-13 356h123l-15 -322h188c21 204 169 330 360 330
c110 0 206 -42 271 -117l99 129h6l245 -329l258 329h13l183 -361c95 -18 163 -91 163 -199c0 -125 -84 -220 -212 -220s-212 92 -212 221c0 102 61 173 149 195l-89 193l-253 -319h-5l-244 325l-41 -60c19 -47 31 -108 31 -168zM694 80l12 273h-211c9 -149 90 -248 199 -273
zM1777 66c66 0 118 55 118 142c-1 81 -47 119 -118 119c-70 0 -118 -37 -118 -118c0 -89 52 -143 118 -143z" />
    <glyph glyph-name="I_L_L_E" unicode="&#xe15d;" horiz-adv-x="1242" 
d="M166 755c43 0 72 -24 72 -65c0 -42 -30 -70 -72 -70c-40 0 -71 28 -71 70c0 41 29 65 71 65zM373 0l14 394l-14 356h123l-19 -687l321 63h2l-20 -126h-407zM643 202l14 291l-14 257h123l-19 -483l229 54h2l-19 -119h-316zM107 0l16 334l-22 229h133l-18 -229l12 -334
h-121zM920 393l14 176l-14 181h249l19 -91h-2l-168 32l-8 -92l142 8l-8 -77l-136 23l10 -105l172 36h2l-18 -91h-254z" />
    <glyph glyph-name="I_O_N" unicode="&#xe15e;" horiz-adv-x="1615" 
d="M140 363c0 -43 -25 -72 -68 -72c-40 0 -67 30 -67 72c0 40 27 71 67 71c43 0 68 -29 68 -71zM1096 379c0 -213 -143 -389 -362 -389c-196 0 -331 136 -358 321l-155 -11v121l151 -10c14 215 165 349 362 349c114 0 213 -45 278 -125l422 -452l-20 567h116l-34 -750h-31
l-369 398v-19zM734 76c144 0 257 117 257 306c-1 169 -104 279 -257 279c-145 1 -247 -101 -256 -254l368 14v-121l-364 13c24 -148 126 -237 252 -237z" />
    <glyph glyph-name="I_S_M_E" unicode="&#xe15f;" horiz-adv-x="2047" 
d="M1282 0l-217 524l-80 -524h-124l159 750h50l218 -536l223 536h411l20 -104h-2l-367 33l55 -254l297 10l-10 -93l-273 18l62 -290l296 45h2l-21 -115h-386l-83 533l-228 -533h-2zM72 429c43 0 68 -29 68 -71c0 -43 -25 -72 -68 -72c-40 0 -67 30 -67 72c0 40 27 71 67 71z
M493 -10c-57 0 -128 17 -178 34l-20 136h2c84 -57 138 -89 212 -89c71 0 108 47 108 106c0 56 -23 92 -83 132l-313 -14v121l177 -15c-73 60 -94 118 -94 170c0 107 77 189 229 189c64 0 132 -11 163 -20l20 -138h-2c-66 42 -129 71 -201 71c-62 0 -103 -35 -103 -92
c0 -47 28 -79 71 -110l85 -60c6 -4 13 -9 19 -13l288 21l-25 -125l-162 10c23 -31 37 -67 37 -108c0 -94 -60 -206 -230 -206z" />
    <glyph glyph-name="L_A" unicode="&#xe160;" horiz-adv-x="1098" 
d="M863 285l-120 326l-117 -326h237zM95 0l14 394l-14 356h123l-19 -688l243 44l295 669h35l321 -773v-2h-124l-81 218h-286l-78 -218h-429z" />
    <glyph glyph-name="L_E" unicode="&#xe161;" horiz-adv-x="781" 
d="M95 0l14 394l-14 356h123l-19 -688l341 64h2l-20 -126h-427zM364 234l14 267l-14 249h337l20 -104h-2l-236 41l-10 -158l217 9l-10 -93l-207 27l10 -177l241 54h2l-21 -115h-341z" />
    <glyph glyph-name="L_I_G_A" unicode="&#xe162;" horiz-adv-x="1837" 
d="M95 0l15 394l-15 356h121l-17 -684l371 60h2l-20 -126h-457zM455 227l15 276l-15 247h121l-15 -247l15 -276h-121zM1097 75c46 0 114 10 150 31l-17 253v2h297l-98 221c-89 55 -201 79 -325 79c-122 0 -285 -68 -285 -275c0 -186 106 -311 278 -311zM1341 66
c-42 -33 -134 -76 -257 -76c-212 0 -369 138 -369 388c0 239 153 382 409 382c125 0 224 -22 334 -61l374 -697v-2h-144l-131 294h-202z" />
    <glyph glyph-name="L_L" unicode="&#xe163;" horiz-adv-x="746" 
d="M95 0l14 394l-14 356h123l-19 -687l321 63h2l-20 -126h-407zM365 227l14 286l-14 237h123l-18 -457l229 60h2l-20 -126h-316z" />
    <glyph glyph-name="M_A_X_I" unicode="&#xe164;" horiz-adv-x="2514" 
d="M1361 285l-120 326l-117 -326h237zM466 0l-217 524l-80 -524h-124l159 750h50l218 -536l223 536h47l158 -735l335 760h35l317 -764l242 353l-286 -26l-53 133l343 -31l-201 308v2h136l141 -275l141 275h130v-2l-218 -309l331 24v-121l-315 24l254 -364v-2h-146l-193 340
l-172 -340h-254l-81 218h-286l-78 -218h-243l-85 529l-226 -529h-2zM2374 400c0 43 25 72 68 72c40 0 67 -30 67 -72c0 -40 -27 -71 -67 -71c-43 0 -68 29 -68 71z" />
    <glyph glyph-name="M_E" unicode="&#xe165;" horiz-adv-x="1241" 
d="M466 0l-217 524l-80 -524h-124l159 750h50l218 -536l223 536h411l20 -104h-2l-367 33l55 -254l297 10l-10 -93l-273 18l62 -290l296 45h2l-21 -115h-386l-83 533l-228 -533h-2z" />
    <glyph glyph-name="N_E" unicode="&#xe166;" horiz-adv-x="1094" 
d="M641 0l-465 557l25 -557h-116l26 750h31l468 -563l-20 563h414l20 -104h-2l-318 30l-7 -250l295 9l-10 -93l-287 20l-8 -294l350 47h2l-21 -115h-377z" />
    <glyph glyph-name="N_N" unicode="&#xe167;" horiz-adv-x="1312" 
d="M641 0l-465 557l25 -557h-116l26 750h31l468 -563l-20 563h112l428 -552l-19 552h116l-34 -750h-38l-457 589l-26 -589h-31z" />
    <glyph glyph-name="N_T" unicode="&#xe168;" horiz-adv-x="980" 
d="M641 0l-465 557l25 -557h-116l26 750h31l468 -563l-17 488l-264 -46h-2l21 121h601l21 -121h-2l-265 46l-31 -675h-31z" />
    <glyph glyph-name="O_I" unicode="&#xe169;" horiz-adv-x="1160" 
d="M1020 355c0 43 25 72 68 72c40 0 67 -30 67 -72c0 -40 -27 -71 -67 -71c-43 0 -68 29 -68 71zM428 76c125 0 227 88 251 235l-365 -14v121l370 -14c-9 157 -110 257 -256 257c-153 1 -257 -112 -257 -278c0 -190 112 -307 257 -307zM939 297l-154 11
c-28 -180 -163 -318 -357 -318c-220 0 -363 171 -363 389c0 234 157 381 363 381c196 0 349 -135 361 -352l150 10v-121z" />
    <glyph glyph-name="O_N" unicode="&#xe16a;" horiz-adv-x="1309" 
d="M428 76c144 0 257 117 257 306c-1 169 -104 279 -257 279c-153 1 -257 -112 -257 -278c0 -190 112 -307 257 -307zM790 379c0 -213 -143 -389 -362 -389c-220 0 -363 171 -363 389c0 234 157 381 363 381c114 0 213 -45 278 -125l422 -452l-20 567h116l-34 -750h-31
l-369 398v-19z" />
    <glyph glyph-name="O_U" unicode="&#xe16b;" horiz-adv-x="1377" 
d="M988 -10c-127 0 -217 60 -260 164c-62 -99 -167 -164 -300 -164c-220 0 -363 171 -363 389c0 234 157 381 363 381c202 0 357 -143 362 -371v-71c0 -162 82 -242 198 -242c118 0 196 80 196 242l-19 432h122l-12 -432c0 -203 -102 -328 -287 -328zM428 76
c144 0 257 117 257 306c-1 169 -104 279 -257 279c-153 1 -257 -112 -257 -278c0 -190 112 -307 257 -307z" />
    <glyph glyph-name="P_A_L_E_O" unicode="&#xe16c;" horiz-adv-x="2268" 
d="M1841 0h-623l14 394l-14 356h208l78 194h124v-2l-136 -192h355c202 -3 356 -145 356 -371c0 -208 -143 -379 -362 -379zM1435 -250h-503l10 250h-135l-94 213h-502l7 -213h-123l15 394l-15 356h204c108 0 185 -41 223 -105l55 105h2l363 -746l10 260l-14 486h126
l-20 -934l409 62h2zM1327 428l154 2c10 98 52 178 115 233l-258 25zM205 394l2 -52h67c100 0 174 55 174 165c0 95 -47 154 -176 154h-57zM273 280h411l-150 342c11 -27 17 -56 17 -88c0 -144 -82 -254 -278 -254zM1339 57l256 35c-70 65 -112 159 -117 267l-152 6zM1841 86
c144 0 257 113 257 296c-1 163 -104 269 -257 269c-137 1 -235 -86 -254 -220l273 4l-10 -93l-265 12c11 -167 119 -268 256 -268z" />
    <glyph glyph-name="P_A_R_A" unicode="&#xe16d;" horiz-adv-x="1832" 
d="M205 394l2 -52h67c100 0 174 55 174 165c0 95 -47 154 -176 154h-57zM273 280h411l-150 342c11 -27 17 -56 17 -88c0 -144 -82 -254 -278 -254zM1265 280h274l-181 340c4 -17 7 -36 7 -59v-10c0 -2 0 -2 -1 -3v-11s-1 0 -1 -1v-4c-10 -79 -59 -140 -155 -166zM211 213
l7 -213h-123l15 394l-15 356h204c108 0 185 -41 223 -105l55 105h2l359 -739l15 383l-15 356h219c1 0 2 0 3 -1h9c1 0 3 0 5 -1c86 -8 145 -46 173 -103l50 105h2l428 -748v-2h-139l-114 213h-265l140 -211v-2h-144l-179 353v56c85 10 136 54 136 132c0 65 -46 119 -144 119
h-58l-12 -266l16 -394h-257l-94 213h-502z" />
    <glyph glyph-name="P_H" unicode="&#xe16e;" horiz-adv-x="1137" 
d="M205 394l13 -394h-123l15 394l-15 356h201c162 0 252 -86 252 -205c0 -43 -8 -83 -24 -117h413l-18 322h123l-13 -356l13 -394h-123l18 353h-397l15 -353h-123l11 341c-40 -24 -93 -38 -160 -40v62c93 6 162 52 162 155c0 88 -47 143 -176 143h-54z" />
    <glyph glyph-name="P_O_S_T" unicode="&#xe16f;" horiz-adv-x="1357" 
d="M725 136c112 0 198 90 198 235c-1 131 -79 217 -198 216c-118 1 -198 -86 -198 -215c0 -146 86 -236 198 -236zM1078 -188c-47 0 -107 11 -146 24l-17 124h5c72 -48 115 -75 170 -75c56 0 80 36 80 79c0 42 -22 71 -75 106l-73 48c-27 18 -47 36 -62 54
c-52 -71 -133 -117 -235 -117c-167 0 -280 121 -295 279c-39 -20 -87 -31 -147 -33v62c93 6 162 52 162 155c0 88 -47 143 -176 143h-54l-10 -267l13 -394h-123l15 394l-15 356h201c127 0 210 -53 240 -134c50 41 116 63 189 63c152 0 273 -97 294 -257c11 4 22 7 35 9
l18 468l-222 -47h-4l17 114h497l17 -114h-4l-223 47l17 -466c32 -3 62 -8 81 -13l17 -123h-5c-53 39 -100 61 -154 61c-50 0 -83 -23 -83 -67c0 -34 17 -60 69 -96l58 -40c74 -51 121 -97 121 -175s-55 -168 -193 -168z" />
    <glyph glyph-name="Q_U" unicode="&#xe170;" horiz-adv-x="884" 
d="M844 -135h-2l-451 125c-199 27 -326 179 -326 389c0 234 153 381 378 381c218 0 367 -147 367 -381c0 -190 -104 -333 -272 -377h286zM443 76c147 0 262 117 262 306c-1 169 -96 279 -262 279c-172 1 -272 -112 -272 -278c0 -190 118 -307 272 -307zM441 239
c44 0 75 29 75 98l-14 187h99l-7 -187c0 -99 -49 -170 -153 -170c-103 0 -152 70 -152 170l-8 187h99l-13 -187c0 -69 32 -98 74 -98z" />
    <glyph glyph-name="Q_U_E" unicode="&#xe171;" horiz-adv-x="1199" 
d="M443 76c144 0 258 113 262 296l-2 47c-14 148 -107 242 -260 242c-172 1 -272 -112 -272 -278c0 -190 118 -307 272 -307zM441 239c44 0 75 29 75 98l-14 187h99l-7 -187c0 -99 -49 -170 -153 -170c-103 0 -152 70 -152 170l-8 187h99l-13 -187c0 -69 32 -98 74 -98z
M1123 0h-588c-16 -4 -34 -7 -52 -8l76 -242h-152v241c-222 17 -342 189 -342 388c0 234 153 381 378 381c33 0 65 -3 94 -10h577l20 -107h-2l-438 28c64 -58 104 -141 114 -244l289 8l-10 -93l-277 19c-5 -108 -46 -216 -128 -287l460 44h2z" />
    <glyph glyph-name="R_E" unicode="&#xe172;" horiz-adv-x="929" 
d="M169 0h-144v2l241 364c-109 30 -157 104 -157 199c0 108 82 185 225 185h510l20 -104h-2l-309 43l-11 -263l285 9l-10 -93l-275 29l12 -313l318 57h2l-21 -115h-418l15 394l-11 266h-83c-98 0 -144 -54 -144 -119c0 -78 51 -122 136 -132v-56z" />
    </font>
</defs>
</svg>
